<?xml version="1.0" encoding="utf-8"?>
<!-- Generator: Adobe Illustrator 22.0.1, SVG Export Plug-In . SVG Version: 6.00 Build 0)  -->
<svg version="1.1" id="OBJECTS" xmlns="http://www.w3.org/2000/svg" xmlns:xlink="http://www.w3.org/1999/xlink" x="0px" y="0px"
	 viewBox="0 0 500 500" style="enable-background:new 0 0 500 500;" xml:space="preserve">
<style type="text/css">
	.st0{fill:#AAC7E2;}
	.st1{fill:#84A7C1;}
	.st2{fill:#FFFFFF;}
	.st3{fill:#F4DE42;}
	.st4{fill:#BBD6F2;}
	.st5{fill:#33302F;}
	.st6{fill:none;stroke:#33302F;stroke-width:2.4867;stroke-linecap:round;stroke-linejoin:round;stroke-miterlimit:10;}
	.st7{opacity:0.18;fill:#594E17;enable-background:new    ;}
	.st8{display:none;}
	.st9{display:inline;}
	.st10{fill:#211915;}
	.st11{display:none;fill:#DB8F6E;}
	.st12{fill:#FFFBE3;}
	.st13{fill:#482A19;}
</style>
<g>
	<path class="st0" d="M186.9,298.7c25.4-22.4,51.1-31.4,51.1-31.4c-13.4-24.1-12.5-52.3-0.1-74.8c-12.5-10.7-30.1-17.3-48.4-12.1
		c-20.7,5.9-45.8,26.1-40.6,64.2C153.5,278.2,186.9,298.7,186.9,298.7L186.9,298.7z"/>
</g>
<path class="st1" d="M172.2,239.4c31.8,26.6,35.3,52.3,35.3,52.3l11-5.9c-4-9.9-12.8-25.8-32.2-42c-10.1-8.5-21-13.2-31.8-15.3
	C160.4,231,166.4,234.6,172.2,239.4z"/>
<path class="st2" d="M155.4,248.3c-5.2-38.1,19.9-58.3,40.6-64.2c12.5-3.5,24.7-1.6,35.2,3.4c-11.7-7.6-26.5-11.4-41.7-7.1
	c-20.7,5.9-45.8,26.1-40.6,64.2c4.5,33.6,37.9,54.2,37.9,54.2l0,0c0.2-0.2,0.4-0.4,0.6-0.5C177.7,290.6,158.8,272.9,155.4,248.3z"/>
<path class="st3" d="M238,267.3c0,0-123.4,43.4-95.9,174.5c0,0,140.7,41.5,180.3-137C289.9,312.3,255.1,297.9,238,267.3z"/>
<path class="st4" d="M141.3,374.4L141.3,374.4c9.8-45.4,40.2-74,64.4-90.1l0,0c0,0-5.5-25.3-39.3-49.3
	c-40.5-28.7-87.7-4.4-99.7,14.1c-11.9,18.5-19.5,47.7,5.7,88.3C97.7,378.1,141.3,374.4,141.3,374.4z"/>
<path class="st5" d="M148.2,352.1c-9.7,23.8-13.7,53.4-6.1,89.8c0,0,38.8,11.4,81.4-3.6C156,409.6,148.2,352.1,148.2,352.1z"/>
<path class="st5" d="M205.7,284.3c-11,7.3-23.3,17.3-34.4,30.2c9.1,68.9,89.1,102.6,89.7,102.9c11.4-9.2,22.3-21.2,32.1-36.7
	C211.9,367.2,205.7,284.8,205.7,284.3z"/>
<path class="st5" d="M308.9,349.1c5.2-13,9.8-27.7,13.5-44.3c-32.5,7.5-67.3-6.9-84.4-37.5c0,0-3,1.1-8,3.4
	C235.3,288.4,255.3,340.1,308.9,349.1z"/>
<path class="st6" d="M223.9,66.8c0,0,52.6,14,55.7,74.3"/>
<path class="st7" d="M238,267.3c0,0-2.3,0.8-6.1,2.5c12.6,27.8,45.6,55.6,75.4,48.7c-41.5,140.5-167.2,107-167.2,107
	c-0.6-2.6-1-5.2-1.5-7.7c0.6,7.7,1.7,15.7,3.5,24.1c0,0,140.7,41.5,180.3-137C289.9,312.3,255.1,297.9,238,267.3z"/>
<path class="st6" d="M370.8,157.3c0,0,6.4-55,53.2-67.5"/>
<ellipse transform="matrix(0.7071 -0.7071 0.7071 0.7071 -66.2517 286.5016)" class="st3" cx="312.7" cy="223.2" rx="87.9" ry="87.9"/>
<g class="st8">
	<g class="st9">
		<path class="st5" d="M261.8,243.2c-0.2-8.7,4.6-20.6,14.2-22.3c10.3-1.9,18.6,9,19.8,18.1c0.3,2,3.4,2,3.1,0
			c-1.4-10.7-10.4-22.4-22.4-21.3c-11.7,1-18.1,15.3-17.9,25.6C258.7,245.2,261.8,245.2,261.8,243.2L261.8,243.2z"/>
	</g>
</g>
<g>
	<g>
		<path class="st10" d="M339.6,265.3c-12.1,4.5-24.3,9.5-36.7,13.2c0.3,0.6,0.5,1.2,0.8,1.9c0.5-0.2,1-0.4,1.6-0.6
			c1.2-0.5,0.7-2.4-0.5-2c-0.7,0.3-1.4,0.5-2.1,0.8c-1,0.5-0.3,2.2,0.8,1.9c12.4-3.7,24.6-8.7,36.7-13.2
			C341.4,266.8,340.9,264.8,339.6,265.3L339.6,265.3z"/>
	</g>
</g>
<g class="st8">
	<g class="st9">
		<path class="st5" d="M337,233.7c-0.2-8.7,4.6-20.6,14.2-22.3c10.3-1.9,18.6,9,19.8,18.1c0.3,2,3.4,2,3.1,0
			c-1.4-10.7-10.4-22.4-22.4-21.3c-11.7,1-18.1,15.3-17.9,25.6C333.9,235.7,337.1,235.7,337,233.7L337,233.7z"/>
	</g>
</g>
<path class="st11" d="M269.2,260.2c0.2,3.7-4.6,7-10.8,7.3c-6.1,0.3-11.3-2.4-11.5-6.1s4.6-7,10.8-7.3
	C263.9,253.7,269,256.5,269.2,260.2z"/>
<path class="st11" d="M389,250.4c0.2,3.7-4.6,7-10.8,7.3c-6.1,0.3-11.3-2.4-11.5-6.1c-0.2-3.7,4.6-7,10.8-7.3
	C383.6,244,388.8,246.7,389,250.4z"/>
<path class="st3" d="M223.1,59.3c2.8,5,1,11.3-4,14.1s-11.3,1-14.1-4s-1-11.3,4-14.1C214,52.5,220.3,54.3,223.1,59.3z"/>
<path class="st3" d="M443.1,81.4c2.8,5,1,11.3-4,14.1c-5,2.8-11.3,1-14.1-4c-2.8-5-1-11.3,4-14.1S440.3,76.4,443.1,81.4z"/>
<path class="st12" d="M238,267.4C238,267.3,238,267.3,238,267.4c0,0-123.5,43.4-95.9,174.5C142.1,441.8,126.1,332.5,238,267.4z"/>
<path class="st12" d="M244.9,270.1c-23.6-42.4-8.4-95.9,34-119.6c23.9-13.3,51.4-14.3,75.1-5c-25.4-13.5-57-14.2-84,0.9
	c-42.4,23.6-57.6,77.2-34,119.6c10.3,18.5,26.2,31.7,44.5,38.9C266,297.3,253.4,285.5,244.9,270.1z"/>
<path class="st2" d="M80,339.8c-25.3-40.6-17.7-69.8-5.7-88.3c9.6-14.9,42.2-33.6,75.6-25.3c-36-13.5-72.9,6.9-83.2,22.9
	c-11.9,18.5-19.5,47.7,5.7,88.3c13.5,21.6,32.1,30.7,46.6,34.4C106,367.1,91.2,357.8,80,339.8z"/>
<path class="st0" d="M242,273.7c1.2,1.8,2.5,3.5,3.8,5.1l0,0C244.5,277.1,243.2,275.4,242,273.7L242,273.7z"/>
<g>
	<g>
		<g>
			
				<ellipse transform="matrix(0.9964 -8.489650e-02 8.489650e-02 0.9964 -16.9527 24.756)" class="st13" cx="282.6" cy="211.7" rx="14.3" ry="18.1"/>
		</g>
	</g>
</g>
<g>
	<g>
		<g>
			
				<ellipse transform="matrix(0.9964 -8.487792e-02 8.487792e-02 0.9964 -16.5887 30.4323)" class="st13" cx="349.6" cy="210.3" rx="14.3" ry="18.1"/>
		</g>
	</g>
</g>
<g class="st8">
	<g class="st9">
		<g>
			<ellipse class="st13" cx="281.4" cy="210.8" rx="15.8" ry="20"/>
		</g>
	</g>
</g>
<g>
	<g>
		<g>
			<path class="st2" d="M295.9,205.5c0,3.6-2.9,6.6-6.6,6.6c-3.6,0-6.6-2.9-6.6-6.6c0-3.6,2.9-6.6,6.6-6.6S295.9,201.8,295.9,205.5z
				"/>
		</g>
	</g>
</g>
<g class="st8">
	<g class="st9">
		<g>
			<ellipse class="st13" cx="351.7" cy="210.7" rx="15.2" ry="19.3"/>
		</g>
	</g>
</g>
<g>
	<g>
		<g>
			<circle class="st2" cx="355.9" cy="202.2" r="6.3"/>
		</g>
	</g>
</g>
</svg>
