<svg xmlns="http://www.w3.org/2000/svg" xmlns:xlink="http://www.w3.org/1999/xlink" viewBox="0 0 509.18 497.3"><defs><style>.cls-1{fill:none;}.cls-2{clip-path:url(#clip-path);}.cls-3{fill:#d84315;}.cls-4{fill:#ff5722;}.cls-5{fill:#ffb301;}.cls-6{fill:#fec108;}.cls-7{fill:#f57c00;}.cls-8{fill:#ff9801;}</style><clipPath id="clip-path" transform="translate(0 -30.11)"><rect class="cls-1" x="254.59" width="260.98" height="557.52" transform="translate(770.16 557.52) rotate(180)"/></clipPath></defs><title>beehiveright</title><g id="Layer_2" data-name="Layer 2"><g id="Capa_1" data-name="Capa 1"><g class="cls-2"><rect class="cls-3" x="407.13" y="408.81" width="50.9" height="80.13"/><rect class="cls-3" x="50.81" y="408.81" width="50.9" height="80.13"/><rect class="cls-4" x="432.58" y="408.81" width="25.45" height="80.13"/><rect class="cls-4" x="76.26" y="408.81" width="25.45" height="80.13"/><path class="cls-3" d="M8.35,527.41H500.49a8.26,8.26,0,1,0,0-16.52H8.45A8.36,8.36,0,0,0,0,519.15,8.2,8.2,0,0,0,8.35,527.41Z" transform="translate(0 -30.11)"/><polygon class="cls-5" points="8.35 240.39 33.8 240.39 8.35 339.85 33.8 339.85 8.35 439.31 500.49 439.31 475.04 339.85 500.49 339.85 475.04 240.39 500.49 240.39 475.04 140.93 500.49 140.93 475.04 41.47 475.04 16.61 33.8 16.61 33.8 41.47 8.35 140.93 33.8 140.93 8.35 240.39"/><polygon class="cls-6" points="33.8 240.39 59.26 240.39 33.8 339.85 59.26 339.85 33.8 439.31 500.49 439.31 475.04 339.85 500.49 339.85 475.04 240.39 500.49 240.39 475.04 140.93 500.49 140.93 475.04 16.61 59.26 16.61 59.26 41.47 33.8 140.93 59.26 140.93 33.8 240.39"/><polygon class="cls-7" points="8.35 140.93 500.49 140.93 475.04 41.47 33.8 41.47 8.35 140.93"/><polygon class="cls-7" points="8.35 339.85 500.49 339.85 475.04 240.39 33.8 240.39 8.35 339.85"/><polygon class="cls-8" points="33.8 140.93 500.49 140.93 475.04 41.47 59.26 41.47 33.8 140.93"/><polygon class="cls-8" points="33.8 339.85 500.49 339.85 475.04 240.39 59.26 240.39 33.8 339.85"/><path class="cls-3" d="M220.52,436.2v33.12h67.9V436.2a33.06,33.06,0,0,0-21.17-30.69A33.46,33.46,0,0,0,254.52,403C235.63,403.08,220.52,417.94,220.52,436.2Z" transform="translate(0 -30.11)"/><path class="cls-3" d="M491.94,38.37H16.8a8.35,8.35,0,0,0-8.45,8.25V63.23a8.35,8.35,0,0,0,8.45,8.26H491.94a8.35,8.35,0,0,0,8.45-8.26V46.72A8.36,8.36,0,0,0,491.94,38.37Z" transform="translate(0 -30.11)"/><path class="cls-4" d="M246,436.2v33.12h42.45V436.2a33.06,33.06,0,0,0-21.17-30.69A32.86,32.86,0,0,0,246,436.2Z" transform="translate(0 -30.11)"/><path class="cls-4" d="M491.94,38.37H42.26a8.35,8.35,0,0,0-8.46,8.25V63.23a8.35,8.35,0,0,0,8.46,8.26H491.94a8.35,8.35,0,0,0,8.45-8.26V46.72A8.36,8.36,0,0,0,491.94,38.37Z" transform="translate(0 -30.11)"/><path d="M16.9,30.11h475a16.74,16.74,0,0,1,17,16.61V63.33a16.8,16.8,0,0,1-17,16.61h-6.07L508.64,169a8.15,8.15,0,0,1-1.49,7.09,8.46,8.46,0,0,1-6.66,3.21H485.87l22.87,89.16a8.22,8.22,0,0,1-1.49,7.09,8.46,8.46,0,0,1-6.66,3.21H486l22.87,89.16a8.22,8.22,0,0,1-1.49,7.09,8.78,8.78,0,0,1-6.66,3.21H486.07l22.87,89.16a8.22,8.22,0,0,1-1.49,7.09,8.46,8.46,0,0,1-6.66,3.21H466.88V510.8h33.61a8.26,8.26,0,1,1,0,16.51H8.45a8.26,8.26,0,1,1,0-16.51H42.36V477.68H8.45a8.46,8.46,0,0,1-6.66-3.21A8,8,0,0,1,.3,467.38l22.87-89.16H8.55A8.46,8.46,0,0,1,1.89,375,8,8,0,0,1,.4,367.92l22.87-89.16H8.65A8.46,8.46,0,0,1,2,275.55,8,8,0,0,1,.5,268.46L23.37,179.3H8.75a8.46,8.46,0,0,1-6.66-3.21A8,8,0,0,1,.6,169L23.46,79.84H17.4A16.8,16.8,0,0,1,.4,63.23V46.72C-.1,37.49,7.46,30.11,16.9,30.11ZM449.58,510.8V477.68h-33.9V510.8ZM288.32,477.68H110.16V510.8H398.68V477.68ZM229,461.07h50.9V436.2c0-13.69-11.43-24.86-25.45-24.86S229,422.51,229,436.2ZM59.26,510.8h33.9V477.68H59.26Zm-40-348.11H59.36a8.26,8.26,0,1,1,0,16.51H40.57L19.39,262.05H59.46a8.26,8.26,0,1,1,0,16.51H40.66L19.49,361.41H59.56a8.26,8.26,0,1,1,0,16.52H40.76L19.59,460.78H212V435.91c0-22.92,19-41.47,42.45-41.47s42.45,18.55,42.45,41.47v24.87H489.55l-21.18-82.85H110.16a8.26,8.26,0,1,1,0-16.52H489.55l-21.18-82.65H110.16a8.26,8.26,0,1,1,0-16.51H489.55L468.37,179.4H110.16a8.26,8.26,0,1,1,0-16.52H489.55L468.37,80H40.47ZM33.8,63.23H491.94V46.72H16.8V63.33l17-.1Z" transform="translate(0 -30.11)"/></g></g></g></svg>