<svg xmlns="http://www.w3.org/2000/svg" xmlns:xlink="http://www.w3.org/1999/xlink" viewBox="0 0 508.81 497.3"><defs><style>.cls-1{fill:none;}.cls-2{clip-path:url(#clip-path);}.cls-3{fill:#d84315;}.cls-4{fill:#ff5722;}.cls-5{fill:#ffb301;}.cls-6{fill:#fec108;}.cls-7{fill:#f57c00;}.cls-8{fill:#ff9801;}</style><clipPath id="clip-path" transform="translate(-6.38 -30.11)"><rect class="cls-1" width="260.79" height="557.52"/></clipPath></defs><title>beehiveleft</title><g id="Layer_2" data-name="Layer 2"><g id="Capa_1" data-name="Capa 1"><g class="cls-2"><rect class="cls-3" x="51.11" y="408.81" width="50.87" height="80.13"/><rect class="cls-3" x="407.17" y="408.81" width="50.87" height="80.13"/><rect class="cls-4" x="51.11" y="408.81" width="25.43" height="80.13"/><rect class="cls-4" x="407.17" y="408.81" width="25.43" height="80.13"/><path class="cls-3" d="M506.85,527.41H15.07a8.26,8.26,0,1,1,0-16.52H506.75a8.34,8.34,0,0,1,8.44,8.26A8.2,8.2,0,0,1,506.85,527.41Z" transform="translate(-6.38 -30.11)"/><polygon class="cls-5" points="500.46 240.39 475.03 240.39 500.46 339.85 475.03 339.85 500.46 439.31 8.69 439.31 34.12 339.85 8.69 339.85 34.12 240.39 8.69 240.39 34.12 140.93 8.69 140.93 34.12 41.47 34.12 16.61 475.03 16.61 475.03 41.47 500.46 140.93 475.03 140.93 500.46 240.39"/><polygon class="cls-6" points="475.03 240.39 449.6 240.39 475.03 339.85 449.6 339.85 475.03 439.31 8.69 439.31 34.12 339.85 8.69 339.85 34.12 240.39 8.69 240.39 34.12 140.93 8.69 140.93 34.12 16.61 449.6 16.61 449.6 41.47 475.03 140.93 449.6 140.93 475.03 240.39"/><polygon class="cls-7" points="500.46 140.93 8.69 140.93 34.12 41.47 475.03 41.47 500.46 140.93"/><polygon class="cls-7" points="500.46 339.85 8.69 339.85 34.12 240.39 475.03 240.39 500.46 339.85"/><polygon class="cls-8" points="475.03 140.93 8.69 140.93 34.12 41.47 449.6 41.47 475.03 140.93"/><polygon class="cls-8" points="475.03 339.85 8.69 339.85 34.12 240.39 449.6 240.39 475.03 339.85"/><path class="cls-3" d="M294.84,436.2v33.12H227V436.2a33.07,33.07,0,0,1,21.16-30.69A33.41,33.41,0,0,1,260.86,403C279.74,403.08,294.84,417.94,294.84,436.2Z" transform="translate(-6.38 -30.11)"/><path class="cls-3" d="M23.62,38.37H498.4a8.35,8.35,0,0,1,8.45,8.25V63.23a8.35,8.35,0,0,1-8.45,8.26H23.62a8.35,8.35,0,0,1-8.45-8.26V46.72A8.36,8.36,0,0,1,23.62,38.37Z" transform="translate(-6.38 -30.11)"/><path class="cls-4" d="M269.4,436.2v33.12H227V436.2a33.07,33.07,0,0,1,21.16-30.69A32.85,32.85,0,0,1,269.4,436.2Z" transform="translate(-6.38 -30.11)"/><path class="cls-4" d="M23.62,38.37H473a8.34,8.34,0,0,1,8.44,8.25V63.23A8.34,8.34,0,0,1,473,71.49H23.62a8.35,8.35,0,0,1-8.45-8.26V46.72A8.36,8.36,0,0,1,23.62,38.37Z" transform="translate(-6.38 -30.11)"/><path d="M498.3,30.11H23.62a16.73,16.73,0,0,0-17,16.61V63.33a16.8,16.8,0,0,0,17,16.61h6.06L6.93,169a8.15,8.15,0,0,0,1.49,7.09,8.44,8.44,0,0,0,6.65,3.21H29.68L6.83,268.46a8.22,8.22,0,0,0,1.49,7.09A8.44,8.44,0,0,0,15,278.76H29.58L6.73,367.92A8.22,8.22,0,0,0,8.22,375a8.76,8.76,0,0,0,6.65,3.21H29.48L6.63,467.38a8.22,8.22,0,0,0,1.49,7.09,8.44,8.44,0,0,0,6.65,3.21H48.65V510.8H15.07a8.26,8.26,0,1,0,0,16.51H506.75a8.26,8.26,0,1,0,0-16.51H472.87V477.68h33.88a8.44,8.44,0,0,0,6.65-3.21,8,8,0,0,0,1.49-7.09L492,378.22h14.61A8.44,8.44,0,0,0,513.3,375a8,8,0,0,0,1.49-7.09l-22.85-89.16h14.61a8.44,8.44,0,0,0,6.65-3.21,8,8,0,0,0,1.49-7.09L491.84,179.3h14.61a8.46,8.46,0,0,0,6.66-3.21A8,8,0,0,0,514.6,169L491.75,79.84h6.06a16.79,16.79,0,0,0,17-16.61V46.72C515.29,37.49,507.74,30.11,498.3,30.11ZM65.94,510.8V477.68H99.82V510.8Zm161.14-33.12h178V510.8H116.81V477.68Zm59.31-16.61H235.53V436.2c0-13.69,11.42-24.86,25.43-24.86s25.43,11.17,25.43,24.86ZM456,510.8H422.1V477.68H456Zm39.94-348.11h-40a8.26,8.26,0,1,0,0,16.51h18.78l21.16,82.85h-40a8.26,8.26,0,1,0,0,16.51h18.78l21.16,82.85h-40a8.26,8.26,0,1,0,0,16.52h18.78l21.16,82.85H303.38V435.91c0-22.92-19-41.47-42.42-41.47S218.54,413,218.54,435.91v24.87H26l21.16-82.85h358a8.26,8.26,0,1,0,0-16.52H26l21.16-82.65h358a8.26,8.26,0,1,0,0-16.51H26L47.16,179.4h358a8.26,8.26,0,1,0,0-16.52H26L47.16,80h427.6ZM481.41,63.23H23.62V46.72H498.4V63.33l-17-.1Z" transform="translate(-6.38 -30.11)"/></g></g></g></svg>