<?xml version="1.0" encoding="utf-8"?>
<!-- Generator: Adobe Illustrator 22.0.1, SVG Export Plug-In . SVG Version: 6.00 Build 0)  -->
<svg version="1.1" id="Capa_1" xmlns="http://www.w3.org/2000/svg" xmlns:xlink="http://www.w3.org/1999/xlink" x="0px" y="0px"
	 viewBox="0 0 525 574" style="enable-background:new 0 0 525 574;" xml:space="preserve">
<style type="text/css">
	.st0{fill:#D84315;}
	.st1{fill:#FF5722;}
	.st2{fill:#FFB301;}
	.st3{fill:#FEC108;}
	.st4{fill:#F57C00;}
	.st5{fill:#FF9801;}
</style>
<g>
	<g transform="translate(0 1)">
		<g>
			<rect x="56.2" y="474.9" class="st0" width="51.2" height="82.5"/>
			<rect x="414.6" y="474.9" class="st0" width="51.2" height="82.5"/>
		</g>
		<g>
			<rect x="56.2" y="474.9" class="st1" width="25.6" height="82.5"/>
			<rect x="414.6" y="474.9" class="st1" width="25.6" height="82.5"/>
		</g>
		<path class="st0" d="M508.5,566H13.5c-4.7,0-8.5-3.8-8.5-8.5c0-4.7,3.8-8.5,8.5-8.5h494.9c4.7,0,8.5,3.8,8.5,8.5
			C517,562.2,513.2,566,508.5,566z"/>
		<polygon class="st2" points="508.5,301.5 482.9,301.5 508.5,403.9 482.9,403.9 508.5,506.3 13.5,506.3 39.1,403.9 13.5,403.9 
			39.1,301.5 13.5,301.5 39.1,199.1 13.5,199.1 39.1,96.7 39.1,71.1 482.9,71.1 482.9,96.7 508.5,199.1 482.9,199.1 		"/>
		<polygon class="st3" points="482.9,301.5 457.3,301.5 482.9,403.9 457.3,403.9 482.9,506.3 13.5,506.3 39.1,403.9 13.5,403.9 
			39.1,301.5 13.5,301.5 39.1,199.1 13.5,199.1 39.1,71.1 457.3,71.1 457.3,96.7 482.9,199.1 457.3,199.1 		"/>
		<g>
			<polygon class="st4" points="508.5,199.1 13.5,199.1 39.1,96.7 482.9,96.7 			"/>
			<polygon class="st4" points="508.5,403.9 13.5,403.9 39.1,301.5 482.9,301.5 			"/>
		</g>
		<g>
			<polygon class="st5" points="482.9,199.1 13.5,199.1 39.1,96.7 457.3,96.7 			"/>
			<polygon class="st5" points="482.9,403.9 13.5,403.9 39.1,301.5 457.3,301.5 			"/>
		</g>
		<g>
			<path class="st0" d="M295.1,472.1v34.1h-68.3v-34.1c0-13.9,8.4-26.4,21.3-31.6c4-1.7,8.4-2.6,12.8-2.6
				C279.9,438,295.1,453.3,295.1,472.1z"/>
			<path class="st0" d="M22.1,62.5h477.9c4.7,0,8.5,3.8,8.5,8.5v17.1c0,4.7-3.8,8.5-8.5,8.5H22.1c-4.7,0-8.5-3.8-8.5-8.5V71.1
				C13.5,66.4,17.4,62.5,22.1,62.5z"/>
		</g>
		<g>
			<path class="st1" d="M269.5,472.1v34.1h-42.7v-34.1c0-13.9,8.4-26.4,21.3-31.6C261.1,445.7,269.6,458.2,269.5,472.1z"/>
			<path class="st1" d="M22.1,62.5h452.3c4.7,0,8.5,3.8,8.5,8.5v17.1c0,4.7-3.8,8.5-8.5,8.5H22.1c-4.7,0-8.5-3.8-8.5-8.5V71.1
				C13.5,66.4,17.4,62.5,22.1,62.5z"/>
		</g>
	</g>
	<path d="M499.9,55H22.1C12.6,55,5,62.6,5,72.1v17.1c0,9.4,7.6,17.1,17.1,17.1h6.1L5.3,198c-0.6,2.6-0.1,5.3,1.5,7.3
		c1.6,2.1,4.1,3.3,6.7,3.3h14.7l-23,91.8c-0.6,2.5-0.1,5.3,1.5,7.3c1.6,2.1,4.1,3.3,6.7,3.3h14.7l-23,91.8c-0.6,2.5-0.1,5.3,1.5,7.3
		s4.1,3.3,6.7,3.3h14.7l-23,91.8c-0.6,2.5-0.1,5.3,1.5,7.3c1.6,2.1,4.1,3.3,6.7,3.3h34.1v34.1H13.5c-4.7,0-8.5,3.8-8.5,8.5
		c0,4.7,3.8,8.5,8.5,8.5h494.9c4.7,0,8.5-3.8,8.5-8.5c0-4.7-3.8-8.5-8.5-8.5h-34.1v-34.1h34.1c2.6,0,5.1-1.2,6.7-3.3
		c1.6-2.1,2.2-4.8,1.5-7.3l-23-91.8h14.7c2.6,0,5.1-1.2,6.7-3.3c1.6-2.1,2.2-4.8,1.5-7.3l-23-91.8h14.7c2.6,0,5.1-1.2,6.7-3.3
		c1.6-2.1,2.2-4.8,1.5-7.3l-23-91.8h14.7c2.6,0,5.1-1.2,6.7-3.3c1.6-2.1,2.2-4.8,1.5-7.3l-23-91.8h6.1c9.4,0,17.1-7.6,17.1-17.1
		V72.1C517,62.6,509.4,55,499.9,55z M64.7,549.9v-34.1h34.1v34.1H64.7L64.7,549.9z M226.9,515.8h179.2v34.1H115.9v-34.1H226.9z
		 M286.6,498.7h-51.2v-25.6c0-14.1,11.5-25.6,25.6-25.6c14.1,0,25.6,11.5,25.6,25.6V498.7z M457.3,549.9h-34.1v-34.1h34.1V549.9z
		 M497.5,191.5h-40.3c-4.7,0-8.5,3.8-8.5,8.5c0,4.7,3.8,8.5,8.5,8.5h18.9l21.3,85.3h-40.3c-4.7,0-8.5,3.8-8.5,8.5
		c0,4.7,3.8,8.5,8.5,8.5h18.9l21.3,85.3h-40.3c-4.7,0-8.5,3.8-8.5,8.5c0,4.7,3.8,8.5,8.5,8.5h18.9l21.3,85.3H303.7v-25.6
		c0-23.6-19.1-42.7-42.7-42.7s-42.7,19.1-42.7,42.7v25.6H24.5l21.3-85.3h360.3c4.7,0,8.5-3.8,8.5-8.5c0-4.7-3.8-8.5-8.5-8.5H24.5
		L45.8,311h360.3c4.7,0,8.5-3.8,8.5-8.5c0-4.7-3.8-8.5-8.5-8.5H24.5l21.3-85.3h360.3c4.7,0,8.5-3.8,8.5-8.5c0-4.7-3.8-8.5-8.5-8.5
		H24.5l21.3-85.3h430.4L497.5,191.5z M482.9,89.1H22.1V72.1h477.9v17.1L482.9,89.1L482.9,89.1z"/>
</g>
</svg>
