<svg id="elements" xmlns="http://www.w3.org/2000/svg" viewBox="0 0 1409.9 561.71"><defs><style>.cls-1{fill:#1e1201;}</style></defs><title>Cute bee2</title><path class="cls-1" d="M533.12,600.39a5,5,0,0,1,0-10c7.3,0,14.64-.2,21.81-.5a5,5,0,0,1,.41,10c-7.29.3-14.75.47-22.18.5Zm-28-.54h-.21c-7.27-.31-14.71-.74-22.13-1.3a5,5,0,0,1,.75-10c7.31.55,14.64,1,21.79,1.28a5,5,0,0,1-.2,10ZM583,598a5,5,0,0,1-.45-10c7.25-.67,14.53-1.5,21.65-2.46a5,5,0,0,1,1.34,9.91c-7.25,1-14.68,1.82-22.07,2.51A3.62,3.62,0,0,1,583,598Zm-127.72-2.12a5.63,5.63,0,0,1-.58,0c-7.22-.84-14.61-1.8-22-2.87a5,5,0,0,1,1.44-9.9c7.26,1.06,14.55,2,21.67,2.83a5,5,0,0,1-.57,10ZM632.53,591a5,5,0,0,1-.93-9.92c7.12-1.36,14.28-2.91,21.28-4.58a5,5,0,1,1,2.33,9.73c-7.15,1.7-14.46,3.28-21.73,4.67A4.38,4.38,0,0,1,632.53,591Zm-226.65-2.47a5.47,5.47,0,0,1-.9-.08c-7.14-1.29-14.44-2.71-21.71-4.2a5,5,0,0,1,2-9.8c7.19,1.48,14.42,2.88,21.48,4.15a5,5,0,0,1-.88,9.93Zm275.2-9.45a5,5,0,0,1-1.44-9.79c6.92-2.09,13.88-4.36,20.7-6.75a5,5,0,0,1,3.32,9.43c-7,2.45-14.07,4.77-21.14,6.89A4.85,4.85,0,0,1,681.08,579.09ZM357,578.3a5.09,5.09,0,0,1-1.16-.13c-7.06-1.67-14.28-3.46-21.45-5.32a5,5,0,1,1,2.5-9.68c7.11,1.84,14.26,3.61,21.25,5.27A5,5,0,0,1,357,578.3Zm-48.38-12.63a5,5,0,0,1-1.37-.19c-6.93-2-14.06-4.06-21.19-6.22a5,5,0,1,1,2.9-9.57c7.08,2.14,14.15,4.22,21,6.17a5,5,0,0,1-1.37,9.81Zm419.54-3.52a5,5,0,0,1-2-9.58c6.47-2.84,13-6.06,19.27-9.57a5,5,0,1,1,4.86,8.74c-6.59,3.66-13.35,7-20.11,10A5.14,5.14,0,0,1,728.11,562.15ZM260.74,551.09a4.87,4.87,0,0,1-1.54-.25c-6.5-2.1-13.23-4.34-20-6.63l-.95-.32a5,5,0,0,1,3.23-9.47l.93.32c6.73,2.28,13.41,4.5,19.88,6.59a5,5,0,0,1-1.55,9.76Zm510.73-13.67a5,5,0,0,1-2.9-9.08c5-3.58,10.07-7.43,15-11.46-.17,0-.35-.08-.53-.13-7.14-2.28-14.22-4.76-21-7.38a5,5,0,0,1,3.59-9.34c6.64,2.56,13.53,5,20.48,7.19a5,5,0,0,1,3.25,6.28,4.68,4.68,0,0,1-.18.48,5,5,0,0,1,3,8.82c-5.77,4.84-11.73,9.44-17.71,13.69A4.94,4.94,0,0,1,771.47,537.42Zm149.3-.06c-3.44,0-6.93,0-10.36-.11a5,5,0,1,1,.22-10c7.2.15,14.54.14,21.77,0a5,5,0,0,1,.24,10C928.71,537.32,924.71,537.36,920.77,537.36Zm-38.2-1.52-.41,0c-7.38-.59-14.83-1.36-22.12-2.29a5,5,0,1,1,1.27-9.92c7.13.91,14.42,1.67,21.65,2.24a5,5,0,0,1-.39,10Zm77.89-.15a5,5,0,0,1-.42-10c7.27-.63,14.54-1.43,21.61-2.39a5,5,0,0,1,1.36,9.9c-7.24,1-14.68,1.81-22.11,2.45Zm-746.89-1.16a5,5,0,0,1-1.81-.34c-6.57-2.56-13.46-5.37-20.51-8.33a5,5,0,0,1,3.88-9.22c7,2.93,13.78,5.7,20.26,8.23a5,5,0,0,1-1.82,9.66ZM833,529.19a5,5,0,0,1-.94-.09c-7.32-1.39-14.64-3-21.76-4.71a5,5,0,1,1,2.37-9.71c6.95,1.69,14.1,3.24,21.26,4.6a5,5,0,0,1-.93,9.91Zm176.89-.65a5,5,0,0,1-1-9.89c7.19-1.5,14.29-3.21,21.09-5.07a5,5,0,0,1,2.64,9.65c-7,1.91-14.3,3.67-21.7,5.21A5,5,0,0,1,1009.91,528.54ZM167.52,515.06a4.93,4.93,0,0,1-2-.44c-6-2.71-12.59-5.7-20.07-9.16a5,5,0,1,1,4.2-9.07c7.44,3.43,14,6.42,20,9.11a5,5,0,0,1-2,9.56ZM1058,515a5,5,0,0,1-1.64-9.72c6.83-2.39,13.7-4.94,20.41-7.59a5,5,0,1,1,3.68,9.3c-6.84,2.7-13.84,5.3-20.8,7.73A5,5,0,0,1,1058,515ZM809.46,505a5,5,0,0,1-3.55-8.53c5-5,10-10.39,14.73-15.88a5,5,0,1,1,7.55,6.55c-4.91,5.66-10,11.17-15.18,16.38A5,5,0,0,1,809.46,505Zm-71.4-6.42a5.08,5.08,0,0,1-2.17-.49c-6.78-3.28-13.43-6.78-19.78-10.42a5,5,0,0,1,5-8.67c6.14,3.52,12.58,6.91,19.15,10.08a5,5,0,0,1-2.18,9.5Zm366.3-2.22a5,5,0,0,1-2.07-9.55c6.55-3,13.16-6.16,19.63-9.43a5,5,0,1,1,4.51,8.92c-6.59,3.33-13.32,6.56-20,9.61A5,5,0,0,1,1104.36,496.38Zm-982.24-2.27a4.94,4.94,0,0,1-2.11-.47q-10-4.65-19.94-9.26a5,5,0,0,1,4.19-9.08q10,4.6,20,9.27a5,5,0,0,1-2.12,9.54Zm1026.7-20.51a5,5,0,0,1-2.49-9.35c6.28-3.58,12.57-7.35,18.7-11.18a5,5,0,1,1,5.3,8.47c-6.24,3.91-12.64,7.74-19,11.4A5.09,5.09,0,0,1,1148.82,473.6ZM76.64,473.32a5,5,0,0,1-2-.43c-7.12-3.13-13.7-5.95-20.12-8.62A5,5,0,0,1,58.34,455c6.49,2.7,13.14,5.55,20.32,8.71a5,5,0,0,1-2,9.58ZM695,473.23a5,5,0,0,1-2.91-.94c-6.14-4.4-12.08-9.06-17.65-13.85a5,5,0,0,1,6.52-7.58c5.35,4.59,11,9.07,17,13.3a5,5,0,0,1-2.92,9.07ZM841.91,467a5,5,0,0,1-4-8c4.25-5.75,8.42-11.75,12.4-17.84a5,5,0,1,1,8.37,5.47c-4.08,6.25-8.37,12.41-12.72,18.31A5,5,0,0,1,841.91,467ZM30.38,454.37a4.82,4.82,0,0,1-1.74-.32c-7-2.6-13.92-5-20.57-7.23a5,5,0,1,1,3.14-9.5C18,439.55,25,442,32.13,444.68a5,5,0,0,1-1.75,9.69ZM1191,446.85a5,5,0,0,1-2.87-9.1c5.93-4.14,11.85-8.47,17.59-12.84a5,5,0,1,1,6.06,8c-5.85,4.45-11.88,8.85-17.92,13.08A5,5,0,0,1,1191,446.85Zm-533.36-6.68a5,5,0,0,1-3.7-1.64,220,220,0,0,1-14.26-17.39,5,5,0,0,1,8-5.93,206.18,206.18,0,0,0,13.61,16.59,5,5,0,0,1-.34,7.06A5,5,0,0,1,657.66,440.17ZM869,425a5,5,0,0,1-4.36-7.43c3.49-6.28,6.89-12.76,10.08-19.27a5,5,0,0,1,9,4.4c-3.27,6.67-6.74,13.31-10.33,19.74A5,5,0,0,1,869,425Zm361.65-8.6a5,5,0,0,1-3.23-8.81c5.52-4.67,11-9.52,16.34-14.4a5,5,0,1,1,6.76,7.37c-5.42,5-11,9.91-16.64,14.66A5,5,0,0,1,1230.6,416.37ZM628.66,399.52a4.87,4.87,0,0,1-4.31-2.56l-.12-.21A166.82,166.82,0,0,1,615,376.33a5,5,0,1,1,9.35-3.53,160.15,160.15,0,0,0,8.76,19.26,5,5,0,0,1-4.4,7.46Zm638.55-17.13a5,5,0,0,1-3.57-8.5c5.07-5.16,10.09-10.5,14.94-15.86a5,5,0,0,1,7.42,6.71c-4.94,5.46-10.06,10.9-15.22,16.15A5,5,0,0,1,1267.21,382.39Zm-376.57-2.46a5.13,5.13,0,0,1-1.9-.37A5,5,0,0,1,886,373c2.74-6.68,5.34-13.51,7.73-20.31a5,5,0,0,1,9.44,3.31c-2.45,7-5.11,14-7.92,20.8A5,5,0,0,1,890.64,379.93ZM611.89,352.68a5,5,0,0,1-4.89-4,201.53,201.53,0,0,1-3.29-22.3,5,5,0,1,1,9.95-.92,196,196,0,0,0,3.13,21.2,5,5,0,0,1-4.9,6Zm688.6-7.55a5,5,0,0,1-3.88-8.15c4.56-5.62,9.05-11.41,13.36-17.2a5,5,0,1,1,8,6c-4.38,5.9-9,11.8-13.61,17.53A5,5,0,0,1,1300.49,345.13ZM906.88,332.67a5.2,5.2,0,0,1-1.34-.18,5,5,0,0,1-3.48-6.16c2-7,3.72-14.1,5.26-21.09a5,5,0,0,1,9.77,2.16c-1.59,7.16-3.4,14.44-5.4,21.61A5,5,0,0,1,906.88,332.67Zm423.17-27.81a5,5,0,0,1-4.17-7.76c4-6,7.91-12.24,11.62-18.42a5,5,0,0,1,8.57,5.15c-3.79,6.3-7.77,12.63-11.85,18.78A5,5,0,0,1,1330.05,304.86ZM607.94,303h-.18a5,5,0,0,1-4.82-5.18c.27-7.38.9-14.9,1.87-22.37a5,5,0,0,1,9.92,1.29c-.93,7.16-1.54,14.38-1.79,21.45A5,5,0,0,1,607.94,303Zm309.33-19.2a6,6,0,0,1-.73,0,5,5,0,0,1-4.23-5.67c1.06-7.23,1.89-14.48,2.49-21.56a5,5,0,0,1,10,.84c-.61,7.28-1.47,14.74-2.55,22.16A5,5,0,0,1,917.27,283.78Zm438.24-21.92a5,5,0,0,1-4.43-7.33c3.38-6.41,6.64-13,9.7-19.49a5,5,0,0,1,9,4.25c-3.12,6.65-6.45,13.35-9.89,19.89A5,5,0,0,1,1355.51,261.86Zm-740.57-8.29a5,5,0,0,1-4.86-6.2c1.78-7.22,3.89-14.46,6.29-21.53a5,5,0,0,1,9.47,3.21c-2.3,6.8-4.34,13.77-6.05,20.71A5,5,0,0,1,614.94,253.57Zm306-19.62a5,5,0,0,1-5-5,160.8,160.8,0,0,0-1.61-21.25,5,5,0,1,1,9.9-1.42,170.72,170.72,0,0,1,1.71,22.58,5,5,0,0,1-5,5Zm455.52-17.46a5,5,0,0,1-4.64-6.86c2.69-6.73,5.25-13.6,7.62-20.4a5,5,0,1,1,9.44,3.27c-2.41,7-5,14-7.77,20.84A5,5,0,0,1,1376.46,216.49Zm-744.94-10a5.08,5.08,0,0,1-2.11-.46,5,5,0,0,1-2.42-6.65c3.16-6.8,6.65-13.5,10.36-19.91a5,5,0,1,1,8.65,5c-3.56,6.16-6.9,12.6-10,19.13A5,5,0,0,1,631.52,206.46Zm281.32-21.63a5,5,0,0,1-4.74-3.41,144.88,144.88,0,0,0-8.22-19.57,5,5,0,1,1,8.9-4.55,153.3,153.3,0,0,1,8.8,20.94,5,5,0,0,1-3.15,6.33A5,5,0,0,1,912.84,184.83Zm479.7-15.69a5.28,5.28,0,0,1-1.35-.18,5,5,0,0,1-3.46-6.17c2-7,3.77-14.09,5.38-21.11a5,5,0,0,1,9.75,2.24c-1.65,7.18-3.5,14.44-5.5,21.57A5,5,0,0,1,1392.54,169.14Zm-735.46-5.58a4.93,4.93,0,0,1-3-1,5,5,0,0,1-1-7,219.33,219.33,0,0,1,14.39-17.31,5,5,0,1,1,7.35,6.77,211.76,211.76,0,0,0-13.74,16.54A5,5,0,0,1,657.08,163.56Zm232.16-22.51a5,5,0,0,1-3.93-1.9,131.58,131.58,0,0,0-14.42-15.49,5,5,0,0,1,6.74-7.38,141.73,141.73,0,0,1,15.52,16.66,5,5,0,0,1-3.91,8.11ZM691.52,127.43a5,5,0,0,1-3.16-8.87,181.66,181.66,0,0,1,18.37-13.18,5,5,0,0,1,5.3,8.48,174,174,0,0,0-17.36,12.45A4.94,4.94,0,0,1,691.52,127.43Zm711.91-7.11a5.67,5.67,0,0,1-.82-.07,5,5,0,0,1-4.12-5.75c1.18-7.12,2.21-14.37,3-21.54a5,5,0,1,1,9.94,1.16c-.86,7.33-1.9,14.73-3.11,22A5,5,0,0,1,1403.43,120.32Zm-551.68-11.9a5,5,0,0,1-2.51-.68,122.15,122.15,0,0,0-19.08-9,5,5,0,1,1,3.48-9.38,133.07,133.07,0,0,1,20.63,9.76,5,5,0,0,1-2.52,9.32Zm-117.48-6.54a5,5,0,0,1-1.88-9.64,157.94,157.94,0,0,1,21.6-7,5,5,0,0,1,2.38,9.71,146.06,146.06,0,0,0-20.22,6.57A5,5,0,0,1,734.27,101.88Zm70.53-9.61a5,5,0,0,1-.67,0,125.64,125.64,0,0,0-21.09-1,5,5,0,1,1-.36-10,134.1,134.1,0,0,1,22.78,1.11,5,5,0,0,1-.66,10Zm604.08-21.61h-.27a5,5,0,0,1-4.73-5.26c.4-7.2.62-14.52.66-21.74a5,5,0,0,1,5-5h0a5,5,0,0,1,5,5c0,7.38-.27,14.86-.67,22.22A5,5,0,0,1,1408.88,70.66Z" transform="translate(-4.64 -38.68)"/></svg>