<svg xmlns="http://www.w3.org/2000/svg" viewBox="0 0 836.99 257.62"><defs><style>.cls-1,.cls-12,.cls-2,.cls-3,.cls-4,.cls-5{fill:none;}.cls-1,.cls-2,.cls-3,.cls-4,.cls-5{stroke:#000;stroke-miterlimit:10;}.cls-1{stroke-width:7px;}.cls-2,.cls-3,.cls-4,.cls-5{stroke-width:5px;}.cls-3{stroke-dasharray:8.21 3.08;}.cls-4{stroke-dasharray:7.83 2.94;}.cls-5{stroke-dasharray:7.68 2.88;}.cls-6{fill:#9ec8e4;}.cls-7{fill:#73a9c3;}.cls-8{fill:#fff;}.cls-9{fill:#fcdf29;}.cls-10{fill:#b0d7f3;}.cls-11{fill:#312c2b;}.cls-12{stroke:#312c2b;stroke-linecap:round;stroke-linejoin:round;stroke-width:2.49px;}.cls-13{fill:#5d4d07;opacity:0.18;}.cls-14{fill:#fffbe3;}</style></defs><title>Asset 3</title><g id="Layer_2" data-name="Layer 2"><g id="Layer_1-2" data-name="Layer 1"><path d="M63.15,177.64V184q-9.75,6.45-15.37,6.45a22.38,22.38,0,0,1-6.56-1.07q-8.43,11.13-14.47,16.3t-12.13,5.18q-7,0-10.83-7.72T0,184q0-15.53,9-33.83a188.51,188.51,0,0,1,21.69-34.28,204.49,204.49,0,0,1,24.6-26.42Q67.18,79,71.39,79q4,0,4,5.77,0,25.58-63,89.25-.2,1.77-.19,6.94,0,13.47,6.94,13.47a8.63,8.63,0,0,0,5.48-2.29,92,92,0,0,0,8.48-8.74q-2.25-5.28-2.25-7.81,0-5.37,4.21-11.63a52.11,52.11,0,0,1,9.61-10.79q5.38-4.53,7.82-4.54,3.84,0,3.84,5.76a32.16,32.16,0,0,1-2.2,10.55A108.11,108.11,0,0,1,47.78,179a31,31,0,0,0,2.53,2,5.06,5.06,0,0,0,2.81.63Q57.43,181.64,63.15,177.64ZM15.55,163a95.53,95.53,0,0,0,9.79-10.4q4.92-6,14.38-18.41Q48.81,122.27,54,114.31a134.28,134.28,0,0,0,7.82-13.24q2.63-5.26,2.63-7.22,0-1.47-.75-1.47-2.07,0-8.57,7.08a168.3,168.3,0,0,0-14.85,19.39q-11.53,17-16.68,25.58A78.83,78.83,0,0,0,15.55,163Z"/><path d="M107.93,176.37v7.22q-19.58,27.06-31.85,27-6.66,0-10.45-7.56t-3.8-19.88q0-10,4.5-23.68A188.33,188.33,0,0,1,94,107.08q8.1-10.5,15-14.7a9.42,9.42,0,0,1,4.41-1.76,2.56,2.56,0,0,1,2.62,1.81,20.2,20.2,0,0,1,.66,6.2q0,13.58-10.59,33.35T76.64,172.36a46,46,0,0,0-.94,7.82q0,6.24,2.58,10.15a8.1,8.1,0,0,0,7.16,3.91,9,9,0,0,0,5.06-1.91,51.39,51.39,0,0,0,5.72-4.73Q99.22,184.77,107.93,176.37Zm-28-17.58a97.38,97.38,0,0,0,9.41-11.33,142.65,142.65,0,0,0,8.58-13.57,114.43,114.43,0,0,0,6.32-13q2.3-5.76,2.29-8.69c0-1.5-.5-2.25-1.49-2.25a5.32,5.32,0,0,0-2.16,1.08Q97.16,115.92,90,130.13A116.67,116.67,0,0,0,79.92,158.79Z"/><path d="M167.33,177.25v6.54q-6.18,5.86-9.93,7.81t-10.78,1.56q-12.18,15-21.45,15a14.51,14.51,0,0,1-9.56-3.61,25,25,0,0,1-6.88-9.86,36.3,36.3,0,0,1-2.58-14q0-6.24,4-13.87a62.06,62.06,0,0,1,10.31-14.2A58.23,58.23,0,0,1,134,142q7.2-4,13.39-4a14.34,14.34,0,0,1,6.94,1.41,4.39,4.39,0,0,1,2.53,4q0,1.95-2.16,4.49c2.37.52,4,1.39,4.87,2.59s1.31,3.4,1.31,6.59a43.5,43.5,0,0,1-2.1,11.82A60.43,60.43,0,0,1,153,182.23l1.69,1.75h1.41a6.53,6.53,0,0,0,3.14-.83A20.13,20.13,0,0,0,162,181.4ZM148,151.56q-7.78,4.89-13.3,8.84a64.94,64.94,0,0,0-9.37,8,21.65,21.65,0,0,0-5.16,8.15q-2.34,10.94-2.34,11.82,0,6.45,8.62,6.44,4,0,13.49-7.22a26.83,26.83,0,0,1-1.59-8.79,35.18,35.18,0,0,1,2.43-12.55A106.36,106.36,0,0,1,148,151.56Z"/><path d="M241.62,184l-31.1,26.66Q197.4,234.28,186.63,246t-16,11.67c-1.88,0-2.81-1.21-2.81-3.62q0-7,6.84-18a71.69,71.69,0,0,1,6.23-8.4,92.79,92.79,0,0,1,6.65-7.08q3.14-3,8.29-7.43t7-6.1q9.36-19.92,13.49-30.47-8.81,9.76-15.37,16a75.13,75.13,0,0,1-12,9.62q-5.47,3.36-9.88,3.37-4.78,0-8.81-8a35.9,35.9,0,0,1-4-16.36,21.81,21.81,0,0,1,1.73-8.2,40.21,40.21,0,0,1,5.43-9.18,72.64,72.64,0,0,1,9.42-10,100.68,100.68,0,0,1,13.4-10q14.52-9.48,22.58-9.48c4,0,6,1.54,6,4.59q0,6.36-13,12.41A82.49,82.49,0,0,0,196,160.94a61.25,61.25,0,0,0-12.65,12.64q-4.81,6.69-4.82,12.06a6.6,6.6,0,0,0,1.22,4.2,3.82,3.82,0,0,0,3.18,1.57q3.28,0,7.5-3.13a147.28,147.28,0,0,0,12.46-11,117,117,0,0,0,10-11.67,156.37,156.37,0,0,1,10.3-12.31q4.08-4.25,7.36-4.25a4,4,0,0,1,3,1.22,5,5,0,0,1,1.17,3.57q0,4.49-3.42,13t-12.32,28l22.67-17.18Z"/><path d="M315.45,184l-31.1,26.66Q271.23,234.28,260.46,246t-16,11.67q-2.82,0-2.82-3.62,0-7,6.84-18a72.84,72.84,0,0,1,6.23-8.4,92.78,92.78,0,0,1,6.66-7.08q3.13-3,8.29-7.43t7-6.1q9.36-19.92,13.49-30.47-8.82,9.76-15.37,16a75.13,75.13,0,0,1-12,9.62q-5.47,3.36-9.88,3.37-4.78,0-8.81-8a35.79,35.79,0,0,1-4-16.36,21.83,21.83,0,0,1,1.74-8.2,40.21,40.21,0,0,1,5.43-9.18,72,72,0,0,1,9.42-10,100.54,100.54,0,0,1,13.39-10q14.52-9.48,22.58-9.48c4,0,6,1.54,6,4.59q0,6.36-13,12.41a82.18,82.18,0,0,0-15.79,9.57,61,61,0,0,0-12.65,12.64q-4.83,6.69-4.82,12.06a6.66,6.66,0,0,0,1.21,4.2,3.84,3.84,0,0,0,3.19,1.57q3.27,0,7.49-3.13a145.45,145.45,0,0,0,12.47-11,115.87,115.87,0,0,0,10-11.67A158.33,158.33,0,0,1,297,153.27Q301,149,304.3,149a4.05,4.05,0,0,1,3.05,1.22,5,5,0,0,1,1.17,3.57q0,4.49-3.42,13t-12.32,28l22.67-17.18Z"/><path d="M359.58,177.44v7.13q-9.09,12.21-17,18.41t-13.4,6.2q-7.68,0-11.43-8.4a44.68,44.68,0,0,1-3.74-18.36,34.26,34.26,0,0,1,.75-7.27,28.19,28.19,0,0,1,1.78-5.72c.68-1.49,2-3.84,3.84-7q13.31-21.59,24.36-21.58,5.72,0,5.71,4.59,0,3.12-3.7,9.77a43.39,43.39,0,0,1-6.6,9.47,154.44,154.44,0,0,0-10.64,11.42,11.72,11.72,0,0,0-2.48,7.33,7.65,7.65,0,0,0,2.53,5.86,9.28,9.28,0,0,0,6.56,2.34c2.93,0,6.17-1.12,9.69-3.37A118.8,118.8,0,0,0,359.58,177.44Zm-6.37-43.65a6.64,6.64,0,0,1-4.45-1.86,5.94,5.94,0,0,1-2.11-4.68q0-4.31,3.94-9.57t8.15-5.28a6.46,6.46,0,0,1,4.68,1.81,6.92,6.92,0,0,1,1.88,5.22q0,4.2-3.85,9.28T353.21,133.79Z"/><path d="M421.88,159.77q-16.49,19.14-16.49,26.66c0,2.8,1.1,4.19,3.28,4.19q2.71,0,7.08-3t13.63-10.6v6.74Q416.08,197.46,409,203.52c-4.74,4-8.62,6-11.61,6q-7.69,0-7.69-10.55a20.86,20.86,0,0,1,.94-6.15,41.29,41.29,0,0,1,2.58-6.3q1.63-3.27,5-9.37T406,163.38q-5.34,2.84-13.4,11.23a105.25,105.25,0,0,0-8.9,10q-3.66,4.74-7.82,10.55a85.27,85.27,0,0,1-6.09,7.81,5.52,5.52,0,0,1-3.89,2q-3,0-5.53-6.54a42,42,0,0,1-2.53-15.24,24.07,24.07,0,0,1,1.17-8.4,57.42,57.42,0,0,1,4.64-8.59q6.47-10.35,11.15-15.18t9-4.84a9.44,9.44,0,0,1,4.83,1.08,3.59,3.59,0,0,1,1.82,3.32,4.37,4.37,0,0,1-.56,2,12.07,12.07,0,0,1-1.26,2c-.47.59-1.46,1.73-2.95,3.42q-14.81,17.09-14.81,22.17c0,1.88.6,2.83,1.78,2.83.75,0,2.2-1.26,4.36-3.76s4.93-5.8,8.34-9.87a157.22,157.22,0,0,1,12.08-12.74,131.62,131.62,0,0,1,15.88-12.79q5-3.61,8.25-3.62c1,0,2,1.44,2.95,4.3a26.94,26.94,0,0,1,1.45,8.69Q425.91,155.38,421.88,159.77Z"/><path d="M503.3,184l-31.11,26.66Q459.08,234.28,448.3,246t-16,11.67q-2.8,0-2.81-3.62,0-7,6.84-18a71.69,71.69,0,0,1,6.23-8.4,92.79,92.79,0,0,1,6.65-7.08q3.15-3,8.3-7.43t7-6.1q9.38-19.92,13.49-30.47-8.81,9.76-15.36,16a75.57,75.57,0,0,1-12,9.62q-5.48,3.36-9.88,3.37-4.79,0-8.81-8a35.79,35.79,0,0,1-4-16.36,22,22,0,0,1,1.73-8.2,40.65,40.65,0,0,1,5.44-9.18,71.92,71.92,0,0,1,9.41-10,101.33,101.33,0,0,1,13.4-10q14.52-9.48,22.58-9.48c4,0,6,1.54,6,4.59q0,6.36-13,12.41a82.12,82.12,0,0,0-15.78,9.57A60.76,60.76,0,0,0,445,173.58q-4.83,6.69-4.83,12.06a6.66,6.66,0,0,0,1.22,4.2,3.83,3.83,0,0,0,3.19,1.57q3.27,0,7.49-3.13a145.7,145.7,0,0,0,12.46-11,114.38,114.38,0,0,0,10-11.67,156.1,156.1,0,0,1,10.31-12.31q4.06-4.25,7.35-4.25a4.07,4.07,0,0,1,3.05,1.22,5,5,0,0,1,1.17,3.57q0,4.49-3.42,13t-12.32,28l22.67-17.18Z"/><path d="M564.67,177.64V184q-9.75,6.45-15.37,6.45a22.38,22.38,0,0,1-6.56-1.07q-8.43,11.13-14.47,16.3t-12.13,5.18q-7,0-10.83-7.72T501.52,184q0-15.53,9-33.83a188.51,188.51,0,0,1,21.69-34.28,204.49,204.49,0,0,1,24.6-26.42Q568.7,79,572.91,79q4,0,4,5.77,0,25.58-63,89.25-.19,1.77-.19,6.94,0,13.47,6.94,13.47a8.63,8.63,0,0,0,5.48-2.29,92,92,0,0,0,8.48-8.74q-2.25-5.28-2.25-7.81,0-5.37,4.21-11.63a52.11,52.11,0,0,1,9.61-10.79q5.38-4.53,7.82-4.54,3.84,0,3.84,5.76a32.16,32.16,0,0,1-2.2,10.55A108.11,108.11,0,0,1,549.3,179a31,31,0,0,0,2.53,2,5.06,5.06,0,0,0,2.81.63Q558.94,181.64,564.67,177.64ZM517.07,163a95.53,95.53,0,0,0,9.79-10.4q4.92-6,14.38-18.41,9.09-11.91,14.29-19.87a136.31,136.31,0,0,0,7.82-13.24Q566,95.81,566,93.85q0-1.47-.75-1.47-2.07,0-8.57,7.08a168.3,168.3,0,0,0-14.85,19.39q-11.53,17-16.68,25.58A78.83,78.83,0,0,0,517.07,163Z"/><path d="M579.66,181v2.44q0,5.76,2.71,9a8.88,8.88,0,0,0,7.12,3.23,22.82,22.82,0,0,0,9.51-2.25,51.15,51.15,0,0,0,9.79-6q4.88-3.71,11.9-10v6q-10.59,13.28-19.86,20.36T582,210.84a15.47,15.47,0,0,1-13.21-6.74q-4.87-6.73-4.87-18.46a38,38,0,0,1,4.59-18.6q4.59-8.35,15-17.63a57.55,57.55,0,0,1,14.15-9.57,30.75,30.75,0,0,1,12.55-3.22,10.74,10.74,0,0,1,7,2.1q2.58,2.1,2.58,6.3,0,6.15-4.41,12.26t-13.44,12.1A135.39,135.39,0,0,1,579.66,181Zm.93-6.35a52.68,52.68,0,0,0,14.43-8.5,42.6,42.6,0,0,0,8.86-9.71c1.9-3.09,2.85-5.36,2.85-6.79s-.65-2.25-2-2.25q-1.69,0-5.49,2.25a45.71,45.71,0,0,0-7.68,5.86,42.86,42.86,0,0,0-7,8.49A28.31,28.31,0,0,0,580.59,174.61Z"/><path d="M635.68,181v2.44q0,5.76,2.72,9a8.86,8.86,0,0,0,7.12,3.23,22.82,22.82,0,0,0,9.51-2.25,51.46,51.46,0,0,0,9.79-6q4.88-3.71,11.9-10v6q-10.59,13.28-19.86,20.36T638,210.84a15.48,15.48,0,0,1-13.22-6.74q-4.86-6.73-4.87-18.46a38,38,0,0,1,4.59-18.6q4.59-8.35,15-17.63a57.92,57.92,0,0,1,14.15-9.57,30.83,30.83,0,0,1,12.56-3.22,10.74,10.74,0,0,1,7,2.1q2.56,2.1,2.57,6.3,0,6.15-4.4,12.26t-13.45,12.1A134.58,134.58,0,0,1,635.68,181Zm.94-6.35a52.83,52.83,0,0,0,14.43-8.5,42.53,42.53,0,0,0,8.85-9.71c1.91-3.09,2.86-5.36,2.86-6.79s-.66-2.25-2-2.25q-1.68,0-5.48,2.25a45.31,45.31,0,0,0-7.68,5.86,42.86,42.86,0,0,0-7,8.49A28.14,28.14,0,0,0,636.62,174.61Z"/><path class="cls-1" d="M534.37,118.09c8.7-13.53,20.17-30.82,15.76-47.84-.28-1.06-14.33,10.23-15.37,11.37-17.3,19-25,51.81-25.54,77.33-.18,8.28.6,11.79,1.5,20"/><path class="cls-2" d="M770.92,101.08c-.45,1.26-.94,2.5-1.47,3.73"/><path class="cls-3" d="M768.17,107.6a63,63,0,0,1-7.09,11.28c-2.33,3-5.12,5.81-8.69,6.75-6.35,1.67-13.18-4.26-13.55-11.08s4.94-13.2,11.34-14.7c3.94,1.12,4.1,6.9,3,11a59.92,59.92,0,0,1-17.93,28.93c-4.8,4.24-11.37,7.76-17.2,5.3-4.84-2-7.57-8.32-5.85-13.45a10.73,10.73,0,0,1,7.14-6.71"/><path class="cls-2" d="M720.83,124.59a9.16,9.16,0,0,1,4,.3c0,1.34-.12,2.67-.27,4"/><path class="cls-4" d="M724.07,131.78c-2.23,11.72-9.48,22.39-19.52,28.19-5.5,3.17-13.75,4.18-16.9-1.48-2.07-3.74-.47-8.93,2.93-11.41a11,11,0,0,1,6.59-2"/><path class="cls-2" d="M698.63,145.17a14.77,14.77,0,0,1,3.86,1,9,9,0,0,1-.24,4"/><path class="cls-5" d="M701.15,152.8a31.2,31.2,0,0,1-4.29,5.72Q684.94,171.77,673,185c-4,4.49-10.06,7.76-15.32,11.33"/><path class="cls-2" d="M656.49,197.17c-1.12.79-2.19,1.59-3.18,2.43"/><path class="cls-6" d="M776,58a41.16,41.16,0,0,1,12.11-7.45,18.2,18.2,0,0,1,0-17.71,12.41,12.41,0,0,0-11.47-2.87c-4.9,1.39-10.84,6.17-9.62,15.2,1.08,8,9,12.83,9,12.83Z"/><path class="cls-7" d="M772.52,43.9c7.53,6.31,8.35,12.38,8.35,12.38l2.6-1.4a25.62,25.62,0,0,0-7.63-10,16.49,16.49,0,0,0-7.52-3.63A17.17,17.17,0,0,1,772.52,43.9Z"/><path class="cls-8" d="M768.57,46c-1.22-9,4.71-13.81,9.62-15.2a11.7,11.7,0,0,1,8.32.81,12,12,0,0,0-9.87-1.68c-4.9,1.39-10.84,6.17-9.62,15.2,1.08,8,9,12.83,9,12.83h0l.15-.13C773.84,56,769.36,51.85,768.57,46Z"/><path class="cls-9" d="M788.12,50.51s-29.23,10.29-22.7,41.33c0,0,33.31,9.83,42.68-32.44A18.21,18.21,0,0,1,788.12,50.51Z"/><path class="cls-10" d="M765.22,75.87h0c2.32-10.75,9.53-17.52,15.25-21.33h0s-1.31-6-9.32-11.67c-9.58-6.8-20.77-1-23.6,3.35s-4.63,11.3,1.36,20.91A18.45,18.45,0,0,0,765.22,75.87Z"/><path class="cls-11" d="M766.85,70.58c-2.3,5.64-3.24,12.65-1.43,21.26A34.45,34.45,0,0,0,784.69,91C768.71,84.2,766.85,70.58,766.85,70.58Z"/><path class="cls-11" d="M780.47,54.54a40.05,40.05,0,0,0-8.15,7.15C774.48,78,793.42,86,793.56,86.05a34.64,34.64,0,0,0,7.59-8.7C781.94,74.17,780.48,54.66,780.47,54.54Z"/><path class="cls-11" d="M804.91,69.88A66.46,66.46,0,0,0,808.1,59.4a18.21,18.21,0,0,1-20-8.89s-.71.26-1.9.8C787.48,55.5,792.2,67.74,804.91,69.88Z"/><path class="cls-12" d="M784.79,3A18.92,18.92,0,0,1,798,20.61"/><path class="cls-13" d="M788.12,50.51s-.54.19-1.44.59c3,6.59,10.79,13.17,17.85,11.55C794.7,95.92,764.93,88,764.93,88c-.13-.62-.24-1.23-.34-1.84a43.94,43.94,0,0,0,.83,5.71s33.31,9.83,42.68-32.44A18.21,18.21,0,0,1,788.12,50.51Z"/><path class="cls-12" d="M819.57,24.45s1.53-13,12.6-16"/><circle class="cls-9" cx="805.81" cy="40.07" r="20.81" transform="translate(416.7 746.84) rotate(-64.01)"/><path class="cls-9" d="M784.58,1.26a2.45,2.45,0,1,1-3.34-.95A2.45,2.45,0,0,1,784.58,1.26Z"/><path class="cls-9" d="M836.68,6.48a2.46,2.46,0,1,1-3.34-1A2.45,2.45,0,0,1,836.68,6.48Z"/><path class="cls-14" d="M788.13,50.52h0s-29.23,10.29-22.7,41.33C765.42,91.84,761.62,66,788.13,50.52Z"/><path class="cls-14" d="M789.74,51.18a20.81,20.81,0,0,1,25.82-29.49,20.81,20.81,0,1,0-17.4,37.73A20.71,20.71,0,0,1,789.74,51.18Z"/><path class="cls-8" d="M750.7,67.69c-6-9.61-4.18-16.52-1.35-20.91,2.28-3.53,10-8,17.91-6-8.53-3.2-17.26,1.63-19.71,5.43-2.83,4.39-4.63,11.3,1.36,20.91a18.05,18.05,0,0,0,11,8.15A18.05,18.05,0,0,1,750.7,67.69Z"/></g></g></svg>