<?xml version="1.0" encoding="utf-8"?>
<!-- Generator: Adobe Illustrator 22.0.1, SVG Export Plug-In . SVG Version: 6.00 Build 0)  -->
<svg version="1.1" id="master-artboard" xmlns="http://www.w3.org/2000/svg" xmlns:xlink="http://www.w3.org/1999/xlink" x="0px"
	 y="0px" viewBox="0 0 1523 430.5" style="enable-background:new 0 0 1523 430.5;" xml:space="preserve">
<style type="text/css">
	.st0{fill:url(#SVGID_1_);}
	.st1{fill:url(#SVGID_2_);}
	.st2{fill:url(#SVGID_3_);}
	.st3{fill:url(#SVGID_4_);}
	.st4{fill:url(#SVGID_5_);}
	.st5{fill:url(#SVGID_6_);}
	.st6{fill:url(#SVGID_7_);}
</style>
<linearGradient id="SVGID_1_" gradientUnits="userSpaceOnUse" x1="748.0352" y1="636.4123" x2="748.0352" y2="461.8981" gradientTransform="matrix(1 0 0 -1 0 602)">
	<stop  offset="0" style="stop-color:#F5B31A"/>
	<stop  offset="1" style="stop-color:#F8CA10"/>
</linearGradient>
<path class="st0" d="M0,411.5c0,0,78.4,17.3,113.2-21.5s-9.9-119.9,22.6-170.9s73.1-12.7,96.4,31.9s116.1,49.1,113.2-13.9
	c-2.9-63,23.2-126,75.5-126s32.3,89.1,113.6,90.3s51.9-66.3,86.7-81.3c34.8-15,77.4,30,144.5,19.5c67.3-10.5,64.6-70.5,115.3-78
	c50.7-7.5,34.4,49.5,107.8,52.5c73.3,3,26.7,60,90.7,63s49.1-77.3,100.2-83.7c51.1-6.4,11,121.2,89,121.2c78,0,25.7-124.5,89.6-141
	S1496.1,59.9,1496.1,0H0V411.5z"/>
<linearGradient id="SVGID_2_" gradientUnits="userSpaceOnUse" x1="748.1319" y1="394.9244" x2="748.1319" y2="758.1221" gradientTransform="matrix(1 0 0 -1 0 602)">
	<stop  offset="0" style="stop-color:#F5B31A"/>
	<stop  offset="1" style="stop-color:#F8CA10;stop-opacity:0"/>
</linearGradient>
<path class="st1" d="M1413.1,41c-40.1,8-114.7,0-111.6,37c3.1,37-41.8,54-67.1,38.4c-25.3-15.6-19.2-43.4-71.4-31.4
	c-52.2,12-27.5,52-60,57.7c-32.5,5.7-46.4-13.7-62.7-37.7s-53.4-15-74.9-30s-23-54-57.5-54c-34.4,0-25.5,18-77.4,25
	c-51.9,7-25.5,30-56.5,47.4S690.8,98,654,89c-36.8-9-63.9,6-77.4,40c-13.5,34-61.9,29-83.2,13.7c-21.3-15.3-3.9-50.7-40.6-58.7
	s-63.9,11-85.1,31.6c-21.3,20.6-32.9,10.4-38.7,35.4c-5.8,25,3.9,74-38.7,77s-56.1-25-69.7-63.3c-13.5-38.3-56.1-39.7-73.5-5.3
	c-17.4,34.3-34.8,38.6-61.9,56.6s9.7,77,0,110.5c-7,23.8-56.9,31.6-85.1,34v51c0,0,78.4,17.3,113.2-21.5s-9.9-119.9,22.6-170.9
	s73.1-12.7,96.4,31.9s116.1,49.1,113.2-13.9c-2.9-63,23.2-126,75.5-126s32.3,89.1,113.6,90.3s51.9-66.3,86.7-81.3
	c34.8-15,77.4,30,144.5,19.5c67.3-10.5,64.6-70.5,115.3-78c50.7-7.5,34.4,49.5,107.8,52.5c73.3,3,26.7,60,90.7,63
	s49.1-77.3,100.2-83.7c51.1-6.4,11,121.2,89,121.2c78,0,25.7-124.5,89.6-141s138-13.7,138-73.6h-28.6C1467.4,0,1453.1,33,1413.1,41z
	"/>
<linearGradient id="SVGID_3_" gradientUnits="userSpaceOnUse" x1="1334.5514" y1="414.7395" x2="1360.4318" y2="414.7395" gradientTransform="matrix(1 0 0 -1 0 602)">
	<stop  offset="0" style="stop-color:#FFFFFF"/>
	<stop  offset="1" style="stop-color:#FFFFFF;stop-opacity:0"/>
</linearGradient>
<path class="st2" d="M1337.3,183c0,0,7.9,29,19.2,26.7s-4.5-9.3-10.1-18.7c-5.6-9.3-3.9-26-9.1-26.3
	C1332.2,164.3,1335.6,177.4,1337.3,183z"/>
<linearGradient id="SVGID_4_" gradientUnits="userSpaceOnUse" x1="1330.4838" y1="450.9989" x2="1337.0691" y2="450.9989" gradientTransform="matrix(1 0 0 -1 0 602)">
	<stop  offset="0" style="stop-color:#FFFFFF"/>
	<stop  offset="1" style="stop-color:#FFFFFF;stop-opacity:0"/>
</linearGradient>
<path class="st3" d="M1332.6,142.7c-3.6-0.2-2.4,16.9,1.5,16.6C1338,159,1338.6,143,1332.6,142.7z"/>
<linearGradient id="SVGID_5_" gradientUnits="userSpaceOnUse" x1="1249.1211" y1="413.811" x2="1272.9666" y2="413.811" gradientTransform="matrix(1 0 0 -1 0 602)">
	<stop  offset="0" style="stop-color:#FFFFFF"/>
	<stop  offset="1" style="stop-color:#FFFFFF;stop-opacity:0"/>
</linearGradient>
<path class="st4" d="M1252.9,173.8c-6.2-0.7-4.3,18.6,2.7,24.6c7.1,6,18.5,5,17.3,0s-11.8-3.7-14.9-6.3
	C1254.9,189.4,1259.1,174.5,1252.9,173.8z"/>
<linearGradient id="SVGID_6_" gradientUnits="userSpaceOnUse" x1="505.89" y1="422.9898" x2="557.5845" y2="422.9898" gradientTransform="matrix(1 0 0 -1 0 602)">
	<stop  offset="0" style="stop-color:#FFFFFF"/>
	<stop  offset="1" style="stop-color:#FFFFFF;stop-opacity:0"/>
</linearGradient>
<path class="st5" d="M507,170.6c-4.6,3.2,5.5,15.7,22,17.3c16.5,1.7,29.4-4.3,28.6-8.7c-0.8-4.3-16.2,2.3-25.6,2.3
	C522.6,181.6,513.2,166.3,507,170.6z"/>
<linearGradient id="SVGID_7_" gradientUnits="userSpaceOnUse" x1="531.7079" y1="437.309" x2="541.3077" y2="437.309" gradientTransform="matrix(1 0 0 -1 0 602)">
	<stop  offset="0" style="stop-color:#FFFFFF"/>
	<stop  offset="1" style="stop-color:#FFFFFF;stop-opacity:0"/>
</linearGradient>
<path class="st6" d="M540.6,160.6c-2.6-2.8-11.4,4.7-8.2,8C535.5,172,543.7,164,540.6,160.6z"/>
</svg>
