<svg xmlns="http://www.w3.org/2000/svg" xmlns:xlink="http://www.w3.org/1999/xlink" viewBox="0 0 70.52 81.48"><defs><style>.cls-1{fill:url(#linear-gradient);}</style><linearGradient id="linear-gradient" x1="10.6" y1="40.78" x2="58.02" y2="40.7" gradientUnits="userSpaceOnUse"><stop offset="0" stop-color="#b07e09"/><stop offset="1" stop-color="#ffe178"/></linearGradient></defs><title>Asset 2_1</title><g id="Layer_2" data-name="Layer 2"><g id="Layer_2-2" data-name="Layer 2"><path class="cls-1" d="M35.26,0,18.16,9.88,0,20.36V61.08H0l6.26,3.64.57.32.13.08.15.09,2,1.14.42.24,3.64,2.13.39.23.45.26,1.41.82.29.16.14.08.46.27,19,10.94L54.74,70.19c-.71-.14-1.41-.27-2.12-.39l-17.36,10L18.39,70.08l-.57-.36L17,69.23l-.18-.1-.71-.41-.57-.33-.27-.13L9.07,64.72l-.15-.09-.14-.08-.29-.17L1.4,60.29V21.17L20.58,10.1,35.26,1.62,69.12,21.17v6.39c.47.21.94.43,1.4.66V20.36Z"/></g></g></svg>