<?xml version="1.0" encoding="utf-8"?>
<!-- Generator: Adobe Illustrator 22.1.0, SVG Export Plug-In . SVG Version: 6.00 Build 0)  -->
<svg version="1.1" id="Capa_1" xmlns="http://www.w3.org/2000/svg" xmlns:xlink="http://www.w3.org/1999/xlink" x="0px" y="0px"
	 viewBox="0 0 250 250" style="enable-background:new 0 0 250 250;" xml:space="preserve">
<path d="M-140.2,286.1c-18.5-3-40.4-13.3-55.1-24.8c-4.4-3.5-8.5-7.3-12.4-11.5c-2.5-2.6-4.3-2.8-3.3,0.8c6,21.8-1.1,48.3-14.1,66.9
	c-2,2.8,19.4-4,26.4-8.5c7.9,36,0.2,74.1-21.2,104.1c-5.1,7.2-11,13.9-17.5,19.9c-6.9,5.1-3.1,11.8,5,5.4
	c16.8-12.5,32.6-26.6,45.2-43.4c13.7-18.2,23.2-39.8,25.4-62.6c1.1-11.5,0.2-23.2-2.9-34.3C-157.7,295.8-133.6,287.2-140.2,286.1z"
	/>
<path d="M73.5,206.2c1.6,2.8,4.9,3.4,7.6,2c9.9-4.9,25.5-10.4,43.4-28c0.5,0.2,1,0.3,1.5,0.5c7.8,2.5,16.1,2.7,24.2,1.5
	c16.5-2.5,30.9-12.4,40.1-26.2c9.4-14.2,13.2-32,12-48.9c-2.3-33.3-22.1-64.9-51.8-80.1c-3.8-2-7.8-3.6-11.9-5.1
	c-2.8-1-6,1.1-6.8,3.8c-0.9,3.1,1,5.9,3.8,6.8c0.8,0.3,1.8,0.6,2.6,0.9c0.5,0.2,1.1,0.4,1.5,0.6c0,0,0.3,0.1,0.5,0.2
	c1.8,0.7,3.5,1.6,5.2,2.5c3.2,1.7,6.4,3.5,9.4,5.7c0.8,0.5,1.5,1,2.3,1.6c0.4,0.3,0.9,0.7,1.3,1c0,0,0.2,0.2,0.3,0.2
	c1.5,1.2,3,2.4,4.5,3.8c2.7,2.4,5.2,5,7.7,7.7c1.3,1.4,2.4,2.7,3.5,4.2c0-0.1,0.4,0.5,0.5,0.8c0.2,0.3,0.5,0.8,0.5,0.8
	c0.7,0.8,1.3,1.8,1.9,2.7c2.1,3,2.9,6.5,4.6,9.7c0.9,1.6,1.7,3.3,2.4,4.9c0.4,0.8,0.7,1.7,1.1,2.5c0.4,1,0.1,0.4,0.1,0.2
	c0.3,0.5,0.5,1.2,0.6,1.8c1.3,3.5,2.4,7.1,3.3,10.7c1.8,7.5,2.3,13.5,1.9,21.5c-0.1,1.9-0.2,3.7-0.4,5.6c0,0.3-0.1,0.8-0.1,1.1
	c0,0.2,0,0.3-0.1,0.4c0,0.1,0,0.2-0.1,0.4c-0.1,1-0.3,2-0.6,3c-0.8,3.8-1.8,7.4-3.1,10.9c-0.8,2-1,2.8-1.8,4.3
	c-0.8,1.7-1.6,3.3-2.5,4.8c-0.9,1.6-1.9,3.2-3,4.6c-0.3,0.4-0.7,0.9-1,1.3c0,0-0.1,0.2-0.2,0.3c-0.6,0.8-1.3,1.6-2,2.4
	c-1.2,1.4-2.5,2.6-3.9,3.9c-0.6,0.5-1.1,1.1-1.7,1.6c-0.3,0.3-0.7,0.5-1,0.8c-0.1,0.1-0.2,0.2-0.3,0.2c-0.1,0-0.2,0.1-0.3,0.2
	c-3,2.1-6.1,4-9.4,5.5c-0.3,0.1-0.6,0.3-0.9,0.4c-0.1,0-0.2,0.1-0.3,0.1c-0.1,0-0.2,0.1-0.3,0.1c-0.8,0.2-1.5,0.6-2.2,0.8
	c-1.7,0.6-3.5,1-5.3,1.5c-0.9,0.2-1.7,0.4-2.5,0.6c-0.4,0-0.9,0.2-1.3,0.2c-0.1,0-0.5,0-0.7,0.1c-1.7,0.2-3.6,0.3-5.4,0.2
	c-1.7,0-3.3-0.1-4.9-0.2c-0.3,0-0.8-0.1-1.1-0.1c-0.1,0-0.2,0-0.2,0c-0.9-0.2-1.9-0.4-2.8-0.5c10.8-14.7,17.6-32.4,18.7-50.7
	c0.7-10-0.8-20.7-6.4-29.3c-5.4-8-12.6-13.6-22.3-13.9c-8.9-0.3-17.8,3.5-24.1,9.9c-6.5,6.6-11,15.6-12.3,24.6
	c-1.3,9.9,0.6,20.2,4.1,29.5c3.3,9.1,7.9,17.8,14.4,25.1c2.9,3.3,6.3,6.3,9.9,8.7c-1.3,1.2-11.6,16.5-38.6,23.6
	C72.6,199.4,72,203.7,73.5,206.2z M97.5,127.8c-0.8-4.2-1.2-8.2-0.9-12.8c0.2-3.1,0.8-6.3,2.3-10c0.2-0.5,0.4-0.8,0.5-1.3
	c0.1-0.1,0.2-0.4,0.3-0.5c0.4-0.8,0.9-1.6,1.2-2.5c0.5-0.8,1-1.5,1.5-2.3c-0.1,0.1,0.4-0.7,0.6-0.8c0.2-0.3,0.8-1,0.9-1.1
	c2.6-3,5.3-4.6,9-6.3c0.1,0,1.1-0.4,1-0.4c0.2-0.1,0.5-0.1,0.7-0.2c0.9-0.3,1.7-0.5,2.6-0.7c0.5-0.1,0.9-0.2,1.4-0.3
	c0.2-0.1,0.7-0.1,0.8-0.1c0.9-0.1,1.9-0.2,2.9-0.1c0.3,0,0.7,0,1.1,0.1c0,0,1,0.1,1.1,0.1c0.7,0.1,1.3,0.3,2,0.4
	c0.4,0.1-0.2,0.6,0.2,0.8c0.1,0.1,0.2,0,0.3,0.1l0.1,0.1c1,0.4,1.8,0.9,2.7,1.5l0.9,0.7c0.2,0.1,0.4,0.4,0.7,0.5
	c0.7,0.6,1.4,1.3,2.1,2c0.3,0.3,0.6,0.7,0.9,1.1c0.1,0.1,0.2,0.2,0.2,0.2c0,0.1,0.2,0.2,0.2,0.3c0.7,0.9,1.3,1.9,1.8,3
	c1.6,3,2.8,6.9,3.3,10.7c0.6,4.6,0.3,9.5-0.2,14c-0.1,0.8-0.1,1.6-0.3,2.4c0,0.1-0.1,0.1,0,0.2c0,0.1,0,0.2,0,0.3
	c-0.1,0.4-0.2,0.9-0.2,1.3c-0.4,1.9-0.8,3.8-1.2,5.6c-0.9,3.6-2,7.2-3.3,10.6c-0.4,0.8-0.7,1.7-1,2.5c-0.1,0.1-0.1,0.1,0,0.2
	c-0.1,0.1-0.1,0.1-0.1,0.2c-0.1,0.3-0.3,0.6-0.4,1c-0.8,1.8-1.7,3.6-2.7,5.4c-1.7,3.2-3.7,6.4-5.8,9.5c-0.4,0.7-1,1.3-1.4,2
	c-0.3,0.4-0.6,0.8-0.9,1.2c-0.1,0.1-0.2,0.3-0.2,0.3c-0.1,0.1-0.2,0.2-0.1,0.2c-6.1-3.8-10.9-9.2-14.7-15.2
	C102.4,144,99.3,136.3,97.5,127.8z"/>
<path d="M51.8,213.9c0.8,1.5,2.4,2.6,4.1,2.9c0.1,0,0.1,0.1,0.2,0l0,0c0.7,0.1,1.4,0.1,2.1-0.1c7.9-1.9,15-2.4,23.3-1.5
	c3.9,0.4,6.9,1,10.8,2c1.9,0.6,3.9,1.1,5.8,1.8c1,0.3,2,0.8,3,1.2c0.4,0.2,0.8,0.3,1.2,0.5c0,0,1.4,0.6,1,0.4c2.7,1.3,5.9,1,7.6-1.7
	c1.5-2.3,1-6.4-1.7-7.6c-10.6-5.2-22.2-7.9-33.9-8.2c8.2-8.3,14.5-18.4,18.2-29.6c0.9-2.8-0.7-6.2-3.5-7c-2.9-0.8-6,0.6-7,3.5
	c-0.7,2-1.3,3.9-2.2,5.9c-0.2,0.5-0.3,0.9-0.6,1.3c-0.1,0.1-0.3,0.5-0.3,0.7c-0.4,1-0.9,1.8-1.5,2.7c-2,3.6-4.3,7-6.8,10.2
	c-0.1,0.1-0.4,0.5-0.5,0.6c-0.3,0.4-0.6,0.7-1,1.1c-0.6,0.7-1.2,1.4-2,2.1c-1.4,1.5-3,3-4.6,4.3c-0.7,0.6-1.4,1.3-2.2,1.8
	c-0.4,0.3-0.9,0.7-1.4,1c0,0-0.8,0.5-0.8,0.7c-1.6,1.1-3.4,2.3-5.1,3.2C51.5,207.9,50.4,211.1,51.8,213.9z"/>
<path d="M-37.8,322.4c-7.5-7.1-14.2-15.1-19.5-23.2c-3-4.6-5.7-9.5-8.2-14.4c-1.2-2.5-2.3-5-3.4-7.6c-0.3-0.7-0.5-1.3-0.8-2
	c-0.1-0.2-0.2-0.5-0.3-0.7v-0.1c0,0,0-0.1-0.1-0.2c-0.5-1.3-1-2.7-1.4-4c-2-6-3.6-12.2-4.7-18.4c-0.5-2.6-3.5-4.3-6-3.7
	c-0.4,0.1-0.8,0.2-1.1,0.4c-1.3,0.5-2.4,1.5-2.7,3c-4.7,23.3-14.3,44.4-28.8,63.2c-3.6,4.6-7.3,8.9-11.6,13.3
	c-1.5,0.7-2.5,2.3-2.7,4c-0.3,1.5,0.1,3.1,1.2,4.3c1.6,1.7,24.1-1.5,33-2.8c-0.1,24.5-1.5,49.1-4.4,73.4c-0.9,7.4-1.9,14.7-3,22.1
	c-0.4,2.6,2.3,5.2,4.8,5.2c0.8,0,1.6-0.2,2.2-0.5c11.8-0.4,23.6-0.8,35.4-1.2c2.4-0.1,4.9-1.7,5.1-4.3c0.1-0.7,0.2-1.4,0-2.1
	c-4.2-25-6.9-50.1-8.2-75.4c-0.3-5.8-0.5-11.6-0.7-17.4c7.6-0.3,26.1-0.9,27.4-2.1c0.4-0.4,0.7-0.8,1-1.3c0.4-0.7,0.7-1.5,0.7-2.4
	C-34.7,325.3-36,323.1-37.8,322.4z M-68.4,323.4c-0.8,0-1.7,0.3-2.4,0.6c-1.7,0.7-3.1,2.3-3,4.3c0.5,26.1,2.5,52.1,5.9,78
	c0.7,5.4,1.5,10.9,2.4,16.3l-26.2,0.9c3.5-24.2,5.7-48.7,6.4-73.2c0.2-7.4,0.3-14.9,0.2-22.3c0-2.6-2-5.2-4.8-5.2
	c-0.2,0-0.3,0-0.5,0c-0.5-0.1-1,0-1.6,0c-6.4,0.9-12.7,1.7-19.1,2.6c12.7-15.1,22.6-32.5,29-51.2c0.2-0.7,0.5-1.5,0.7-2.2
	c5.4,16.2,13.8,31.4,24.6,44.6c1.6,2,3.3,4,5.1,5.9C-57.2,322.9-62.8,323.1-68.4,323.4z"/>
<path d="M-290.4,95c4-1.4,8-2.8,12-4.2c1.3,0,2.6-0.4,3.7-1.4c2.1-1.9,2.5-5.8,0.3-7.8c-14.2-13-44.1-37.8-56.9-48.3
	c-2.5-2.1-6.3-0.4-6.5,2.8c-1,15.7-3.2,51.1-3.4,68.6c0,2.9,2.3,5.8,5.3,5.7c0.4,0,0.8,0,1.1-0.1c0.3,0,0.7-0.1,1-0.2
	c5.5-1.9,10.9-3.8,16.4-5.7c6.7,14.5,12.5,29.2,14.8,45.2c1.1,7.2,1.2,14.9,0.3,22.4c-0.1,0.8-0.2,1.7-0.4,2.5c0,0.2,0,0.3-0.1,0.4
	c0,0.1,0,0.2-0.1,0.4c-0.1,0.4-0.1,0.7-0.2,1.1c-0.4,1.8-0.8,3.7-1.3,5.5c-0.5,1.7-1,3.4-1.6,5.1c-0.3,0.8-0.6,1.6-0.9,2.3
	c-0.2,0.4-0.4,0.9-0.5,1.3c-0.1,0.1-0.5,1.2-0.5,1.2c-1.7,3.5-3.7,6.8-6,9.9c-0.3,0.4-0.6,0.7-0.8,1.1c0,0-0.6,0.7-0.7,0.8
	c-0.6,0.7-1.2,1.4-1.9,2c-1.5,1.5-3,3-4.7,4.3c-0.1,0.1-0.2,0.2-0.3,0.3c-0.2,0.1-0.3,0.1-0.5,0.2c-2.4,1.3-4,5-2.3,7.5
	c3.8,5.5,8.2,10.1,13.4,14.2c1.5,1.2,3.7,1.1,5.4,0.3c0.6-0.2,1.1-0.6,1.6-1c14.8-11.9,24.6-29.5,28.8-47.9
	c4.6-20.3,2.8-41.4-3.4-61.2C-282.1,112.9-285.9,103.8-290.4,95z M-330,97.1l0.7-50.7c13.4,12.2,26.7,24.3,40.1,36.5
	c-2.5,0.9-5,1.7-7.4,2.6C-297.6,85.2-326.2,95.8-330,97.1z M-284.3,165.2c-0.1,2.1-0.3,4.2-0.5,6.3c-0.1,0.9-0.2,1.9-0.4,2.8
	c-0.3,1.7-0.2,1.3-0.5,3.1c-0.8,4.3-2,8.6-3.4,12.7c-1.5,4.4-2.8,7.4-4.9,11.2c-2.3,4.3-5.1,8.4-8.1,12.3c-0.3,0.4-0.9,1-1.7,1.9
	c-0.9,1-1.8,1.9-2.7,2.9c-0.6,0.6-1.3,1.2-1.9,1.8c-1.3-1.2-2.6-2.6-3.8-4c11.3-10.2,17.9-24.6,20.5-39.5c3-17.5,0.2-35.3-5.4-52
	c-2.7-8.2-6.1-16.2-9.6-24c2-0.7,4-1.4,6-2.1c3.9,7.4,7.3,15.1,9.9,22.8c3.2,9.3,5.7,19.9,6.5,29.1
	C-284.2,155.4-284,160.3-284.3,165.2z"/>
<path d="M-269.9,435.7c-0.7-6.9-1.3-13.7-2-20.6c0.5-2.2-0.8-5.2-3.3-4.8c-14,2.6-28.1,3.2-42.2,2c-1.6-0.9-3.9,0-4.1,2.9
	c-0.4,8.2-0.8,16.3-1.2,24.5c-0.1,2.9,2.2,4,3.8,3.2c14.9-0.7,29.8-1.3,44.8-2c0.6,0.5,1.4,0.7,2.1,0.4c1.4-0.4,2.1-1.9,2.1-3.5
	C-269.6,437.2-269.6,436.4-269.9,435.7z M-316.7,435.9c0.3-5.5,0.5-11,0.8-16.6c13,1,26,0.4,38.8-1.7c0.5,5.5,1.1,11,1.6,16.4
	C-289.3,434.7-303,435.3-316.7,435.9z"/>
<path d="M-273.6,403.7c-1.1-7.4-2.2-14.8-3.3-22.2c-0.4-2.5-2.3-3-3.7-2.3c-12.1,0.4-24.1,0.2-36.2-0.6c-1.4-0.1-2.3,0.9-2.6,2.2
	c-0.1,0.3-0.2,0.5-0.3,0.8c-1.2,7.5-2.3,15.1-3.5,22.6c-0.3,1.9,0.3,3.7,1.8,4.4c0.7,0.3,30-0.8,43.8-1.1
	C-275.9,408.7-273.1,407-273.6,403.7z M-317.2,401.4c0.8-5.2,1.6-10.4,2.4-15.6c11,0.7,21.9,0.8,32.9,0.5c0.7,4.8,1.5,9.7,2.2,14.5
	C-292.2,401-304.7,401.2-317.2,401.4z"/>
<path d="M-278.5,369.7c-1-7.5-2.9-17.5-4.1-25.4c-0.2-1.4-1.2-2.4-2.3-2.4h-29.5c-1.4,0-2.3,1.1-2.6,2.4c-0.2,0.5-0.4,1-0.4,1.6
	c-0.4,8-1.9,26.5-1.6,27.9c0.4,2,0.7,2.8,2.2,2.6c11.8-1.8,23.6-2.3,35.4-1.6c1.9,0.1,2.9-1.8,2.8-3.7
	C-278.4,370.6-278.4,370.2-278.5,369.7z M-313,368.9c0.4-6.7,0.7-13.4,1.1-20.1c8.4,0.2,16.7,0.5,25.1,0.7l2.5,18.1
	C-293.9,367.3-303.5,367.7-313,368.9z"/>
<path d="M-261.4,312c1.3,0.1,2.3-1.2,2-2.5c-0.2-0.8-0.5-1.5-0.7-1.7c-13.6-14.9-24.6-32.1-32.6-50.9c-0.8-1.8-2.3-2.1-3.7-1.5
	c-0.9,0.1-1.8,0.6-2.2,1.5c-8.5,18.5-35.3,51.9-35.4,53.3c0,1.3,0.9,2.9,2.2,3.3c0.8,0.5,12.8-0.9,17.8-1.4
	c-0.7,6.5-1.4,16.4-2.2,23.3c-0.2,2,1.2,3.7,3.1,3.9c6.3,0.8,19.6,0.3,25.5,0.4c2.4,0,3.5-3.9,3.2-5.7c0-0.2,0-0.5,0-0.7
	c-1.2-7.1-2.3-14.1-3.5-21.2C-281.4,311.1-267.2,311.7-261.4,312z M-292,305.9c-1.1,0.2-1.8,0.8-2.1,1.5c-0.5,0.7-0.8,1.5-0.6,2.6
	l3.5,23.2c-6.1-0.1-12.2-0.2-18.3-0.3c0.8-6.8,0.5-17.1,3.1-24.5c1.8-5.1-1.4-3.6-3.1-3.4c-4.3,0.4-8.6,0.8-12.9,1.1
	c10.5-12.3,19.4-25.9,26.7-40.4c6.4,13.6,14.7,27.1,25.2,39.8C-277.6,304.5-284.9,304.6-292,305.9z"/>
<g>
	<path d="M363.6,389.8c1.9-0.3,3.6-1.5,4.7-3.3c1.1-1.8,1.4-3.8,0.9-5.7c-1.1-3.8-4.7-6-8.6-5.3c-0.7,0.1-1.4,0.2-2,0.3
		c-0.2,0-0.4,0.1-0.6,0.1h-0.1c-0.1,0-0.2,0-0.3,0c-1.3,0.1-2.7,0.1-4.1,0.1c-1.2,0-2.5-0.1-3.7-0.2c-0.6-0.1-1.3-0.1-1.9-0.2
		c-0.2,0-0.3,0-0.5-0.1h-0.1l0,0c-0.1,0-0.2,0-0.3-0.1c-0.2,0-0.4-0.1-0.4-0.1c-2.6-0.5-5.2-1.3-7.7-2.2c-0.5-0.2-1.1-0.4-1.6-0.6
		c-0.2-0.1-0.3-0.1-0.5-0.2s-0.3-0.1-0.5-0.2l-0.2-0.1c-1.4-0.7-2.6-1.3-3.7-1.9c-1.1-0.6-2.2-1.3-3.2-2c-0.5-0.3-0.9-0.7-1.4-1
		c-0.3-0.2-0.5-0.4-0.8-0.6c-0.2-0.1-0.3-0.3-0.5-0.4c-2.1-1.8-3.9-3.6-5.5-5.6c-0.4-0.4-0.7-0.9-1.1-1.3c-0.1-0.1-0.2-0.3-0.3-0.4
		v-0.1c-0.1-0.1-0.1-0.2-0.2-0.3l-0.2-0.2c-0.8-1.1-1.5-2.3-2.1-3.5c-0.6-1.1-1.2-2.3-1.7-3.4c-0.1-0.2-0.2-0.4-0.2-0.5
		c-0.1-0.2-0.1-0.3-0.2-0.5v-0.1c-0.3-0.8-0.5-1.5-0.7-2.1c-0.8-2.5-1.4-5.2-1.7-7.9c0-0.2-0.1-0.5-0.1-0.8v-0.5
		c0-0.6-0.1-1.2-0.1-1.8c-0.1-1.4,0-2.8,0-4.2c0.1-1.3,0.2-2.6,0.3-3.9c0-0.3,0.1-0.7,0.1-1c0-0.1,0.1-0.4,0.1-0.6v-0.1
		c0-0.1,0-0.2,0-0.2l0,0c0.1-0.5,0.2-0.9,0.3-1.4c0.6-2.6,1.4-5.2,2.4-7.7c0.1-0.2,0.1-0.3,0.2-0.5c0.1-0.2,0.1-0.3,0.2-0.5l0.1-0.2
		c0.3-0.5,0.5-1.1,0.8-1.6c0.7-1.2,1.4-2.4,2.1-3.6c0.7-1.1,1.5-2.1,2.3-3.2l0.3-0.3c0.2-0.2,0.3-0.4,0.5-0.6c0.5-0.5,0.9-1,1.4-1.5
		c0.9-0.9,1.8-1.7,2.8-2.5c0.5-0.4,1.1-0.9,1.6-1.3c0.1-0.1,0.2-0.2,0.3-0.2c0.1-0.1,0.2-0.2,0.4-0.3l0,0c0.1-0.1,0.4-0.2,0.6-0.4
		c7.5-6.6,16.4-9.1,23.5-9.9c-5,3.2-10.3,7.1-12.8,10.6c-1.1,1.6-1.5,3.6-1,5.6c0.4,2,1.7,3.7,3.3,4.7c3.4,2,7.6,1.1,9.9-2.2
		c0.4-0.6,0.7-1,1.1-1.4l0,0c0-0.1,0.1-0.1,0.1-0.2c0.1-0.1,0.2-0.2,0.2-0.3l0.3-0.3c0.8-0.9,1.6-1.7,2.5-2.5
		c0.4-0.4,0.9-0.8,1.4-1.2c0.2-0.2,0.5-0.4,0.7-0.5l0.3-0.3c0.9-0.6,1.9-1.3,3-1.9c1-0.6,2.1-1.1,3.2-1.6c0.2-0.1,0.4-0.2,0.6-0.3
		l0,0c0.1,0,0.2-0.1,0.3-0.1c0.6-0.2,1.1-0.4,1.7-0.6c1.1-0.3,2.3-0.6,3.5-0.8c0.6-0.1,1.2-0.2,1.8-0.3c0.1,0,0.2,0,0.3,0
		c0.3,0,0.6,0,0.9-0.1c0.4,0,0.9-0.1,1.3-0.2c1.5-0.2,2.9-0.9,3.9-2c2.9-2.9,3-7.5,0.2-10.3l-23.3-23.6c-1.4-1.4-3.4-2.2-5.4-2.2
		l0,0c-1.9,0-3.6,0.7-4.9,2c-2.9,2.9-3,7.5-0.2,10.3l7.2,7.2c-20.3,0.4-39.5,11.7-48.5,29.1c-6.3,12.1-8.2,26.1-5.3,39.4
		c2.9,13.1,10.7,24.7,22.1,32.7c9.7,6.8,21.3,10.4,32.8,10.4C357.2,390.7,360.4,390.4,363.6,389.8z"/>
	<path d="M432.3,351.6c-2.9-13.1-10.7-24.7-22.1-32.7c-12.4-8.7-27.9-12.1-42.5-9.5c-1.9,0.3-3.6,1.5-4.6,3.3
		c-1.1,1.8-1.4,3.8-0.9,5.7c1.1,3.8,4.7,6,8.6,5.3c0.7-0.1,1.4-0.2,2-0.3c0.2,0,0.4-0.1,0.6-0.1h0.1c0.1,0,0.2,0,0.3,0
		c1.3-0.1,2.7-0.2,4.1-0.1c1.2,0,2.5,0.1,3.7,0.2c0.6,0.1,1.2,0.1,1.9,0.2c0.2,0,0.3,0,0.5,0.1h0.1l0,0c0.1,0,0.2,0,0.3,0.1
		c0.2,0,0.4,0.1,0.4,0.1c2.6,0.5,5.2,1.3,7.7,2.2c0.5,0.2,1.1,0.4,1.6,0.6c0.2,0.1,0.3,0.1,0.5,0.2s0.3,0.1,0.5,0.2l0.2,0.1
		c1.4,0.7,2.6,1.3,3.7,1.9c1.1,0.6,2.2,1.3,3.2,2c0.5,0.3,0.9,0.7,1.4,1c0.3,0.2,0.5,0.4,0.8,0.6c0.2,0.1,0.3,0.3,0.5,0.4
		c2.1,1.8,3.9,3.6,5.5,5.6c0.4,0.4,0.7,0.9,1.1,1.3c0.1,0.2,0.2,0.3,0.3,0.5l0,0c0,0.1,0.1,0.2,0.2,0.3l0.2,0.2
		c0.8,1.1,1.5,2.3,2.1,3.5c0.6,1.1,1.2,2.3,1.7,3.4c0.1,0.2,0.2,0.4,0.2,0.5c0.1,0.2,0.1,0.3,0.2,0.5v0.1c0.3,0.8,0.5,1.5,0.7,2.1
		c0.8,2.5,1.4,5.2,1.7,7.9c0,0.3,0.1,0.5,0.1,0.8v0.5c0,0.6,0.1,1.2,0.1,1.7c0.1,1.4,0,2.8,0,4.2c-0.1,1.3-0.2,2.6-0.3,3.9
		c0,0.3-0.1,0.7-0.1,1c0,0.2-0.1,0.4-0.1,0.6v0.1c0,0.1,0,0.1,0,0.2l0,0c-0.1,0.5-0.2,0.9-0.3,1.4c-0.6,2.6-1.4,5.2-2.4,7.7
		c-0.1,0.2-0.1,0.3-0.2,0.5c-0.1,0.2-0.1,0.3-0.2,0.5l-0.1,0.2c-0.3,0.5-0.5,1.1-0.8,1.6c-0.7,1.2-1.4,2.4-2.1,3.6
		c-0.7,1.1-1.5,2.1-2.3,3.2l-0.6,0.3c-0.2,0.2-0.3,0.4-0.5,0.6c-0.5,0.5-0.9,1-1.4,1.5c-0.9,0.9-1.8,1.7-2.8,2.6
		c-0.5,0.4-1.1,0.9-1.6,1.3c-0.1,0.1-0.2,0.2-0.3,0.2c-0.1,0.1-0.2,0.2-0.4,0.3l0,0c-0.1,0.1-0.4,0.2-0.6,0.4
		c-7.5,6.6-16.4,9.1-23.5,9.9c5-3.2,10.3-7.1,12.8-10.6c1.1-1.6,1.5-3.6,1-5.6c-0.4-2-1.7-3.7-3.3-4.7c-3.4-2-7.6-1.1-9.9,2.2
		c-0.4,0.6-0.7,1-1.1,1.4l0,0c-0.1,0.2-0.3,0.3-0.4,0.5l-0.3,0.3c-0.8,0.9-1.6,1.7-2.5,2.5c-0.4,0.4-0.9,0.8-1.4,1.2
		c-0.2,0.2-0.4,0.3-0.7,0.5l-0.3,0.3c-0.9,0.6-1.9,1.3-3,1.9c-1,0.6-2.1,1.1-3.2,1.6c-0.2,0.1-0.4,0.2-0.6,0.2h-0.1
		c-0.1,0-0.2,0.1-0.3,0.1c-0.6,0.2-1.1,0.4-1.7,0.6c-1.1,0.3-2.3,0.6-3.5,0.8c-0.6,0.1-1.2,0.2-1.8,0.3c-0.1,0-0.2,0-0.3,0
		c-0.3,0-0.6,0-0.9,0.1c-0.4,0-0.9,0.1-1.3,0.2c-1.5,0.2-2.9,0.9-3.9,2c-2.9,2.9-3,7.5-0.2,10.3l23.3,23.6c1.4,1.4,3.4,2.2,5.4,2.2
		l0,0c1.9,0,3.6-0.7,4.9-2c2.9-2.9,3-7.5,0.2-10.3l-7.2-7.2c20.3-0.4,39.5-11.7,48.5-29.1C433.3,378.9,435.2,364.9,432.3,351.6z"/>
</g>
<path d="M543.9,392.2c-2.4,2.2-4.8,4.5-7.3,6.7c2-2.3,4.1-4.5,6.1-6.8c0.7-0.8,0.6-1.7,0.1-2.3c0.9-1.3,1.8-2.6,2.6-4
	c1-1.6-1.3-3.7-2.6-2.1c-3.9,4.7-7.9,9.3-11.8,14c2.2-4.1,4.1-8.2,5.9-12.5c0.4-0.9-0.2-1.7-0.9-2c-0.1-0.4-0.4-0.7-0.8-0.9
	c0.2-0.3,0.5-0.6,0.7-0.8c1.4-1.6-0.9-4.1-2.3-2.5l0,0c-0.5-0.2-1.1-0.1-1.6,0.4c-0.4,0.5-0.8,1-1.2,1.5c-0.6-0.2-1.4,0-1.9,0.6
	l-10.8,14.4c-5.5,5.5-10.7,11.4-15.5,17.6c0.7-39.9,1.4-188.8,1.9-228.7c0.4-32.3,0.4-24.1-0.5-56.4c0.1-11.2,0.1,10.5,0.1-0.8
	c0-15.5-0.1-23.3-0.3-38.8l4.8,6.6c0.5,0.7,1.4,0.7,2.1,0.3c0.7,1.3,1.5,2.6,2.2,3.9c0.7,1.4,2.3,1,2.9,0c0.6,0.9,1.2,1.7,1.9,2.6
	c0.3,0.4,0.8,0.6,1.2,0.6c0.1,0.1,0.2,0.3,0.3,0.4c0.8,1,2.1,0.5,2.7-0.3c1.7,2,3.4,4,5.1,6.1c1.2,1.4,3.9-0.4,2.7-2
	c-1.1-1.5-2.1-3-3.2-4.5c0.1,0,0.2-0.1,0.3-0.2c1.3,1.8,2.7,3.6,4,5.4c1.3,1.7,3.8-0.6,2.5-2.3c-0.5-0.7-1.1-1.5-1.6-2.2
	c1.2,1,2.4,2,3.7,3.1c1.1,0.9,2.3-0.1,2.5-1.2l0.8,0.9c1.5,1.6,4-1.8,2.5-3.4c-17-18.4-34-35.7-51-54.1c0.9-1.5,1.8-3,2.7-4.5
	c1.1-1.9-1.7-3.7-2.9-1.8c-0.8,1.2-1.5,2.5-2.3,3.7l-0.1-0.1c-1.5-1.6-3.9,0.6-2.5,2.3l0.1,0.1c-0.5,0.5-0.8,1.4-0.3,2.1
	c-0.3,0.5-0.6,1-0.9,1.5l-2.3,2.6c-0.5-0.2-1.1-0.1-1.6,0.4c-10.1,11.7-20.3,23.3-30.4,35c-2.1,2.2-4.1,4.5-6.2,6.7
	c-1.4,1.5,0.3,3.5,1.9,2.7c-1.5,2.4-3.1,10.9-1.8,9.5c1.2-1.2,2.3-2.5,3.4-3.7c-0.4,1.6,1.9,2.7,3.1,1.2c1.2-1.6,2.5-3.1,3.7-4.7
	c-0.3,0.7,0,1.4,0.5,1.9c-0.8,1.4-1.7,2.8-2.5,4.2c-1.1,1.9,1.6,3.6,2.9,1.8l2.9-4.2c0.7,0.5,1.8,0.6,2.5-0.3
	c2.8-3.6,5.7-7.3,8.5-10.9l9.8-9.4c0,38.2,0.6,15.1,1.6,53.3c0.7,26.5,1.5,33.3,2.5,59.8v201.9c-2.3-2.2-4.6-4.3-7-6.4
	c-3.5-7-6.8-14.1-9.8-21.3c-0.8-2-3.8-0.4-3,1.6c1.5,3.7,3.1,7.3,4.8,10.9c-3.2-3.6-6.6-7.1-10.3-10.2c-1-0.8-2.6-0.3-3,0.7
	c-0.1-0.2-0.2-0.4-0.3-0.5c-0.9-2-3.9-0.4-3,1.6c0.6,1.2,1.1,2.4,1.7,3.6c-0.9-0.2-1.9,0.4-2.2,1.2c-0.3-0.3-0.6-0.5-0.8-0.8
	c-1.3-1.2-3.9,0.3-2.7,2c0,0.1,0.1,0.1,0.1,0.2c-0.8,0.4-1.3,1.3-0.7,2.2c13.7,19.9,27.4,39.7,41.2,59.6c0.1,0.1,0.2,0.2,0.3,0.3
	c0.3,1.1,1.7,2,2.8,0.9c1.3-1.3,2.6-2.6,3.9-4c0.3-0.1,0.6-0.2,0.8-0.5c0.9-0.9,1.8-1.8,2.7-2.7c0.5,0.2,1.2,0.2,1.7-0.3l4.2-3.9
	c-2.7,2.8-5.4,5.6-8.2,8.5c-1.5,1.6,0.8,4.1,2.3,2.5c16-16.6,32.1-33.2,48.1-49.9C547.7,393.1,545.5,390.7,543.9,392.2z
	 M493.4,409.1c0,0.7,0,1.3,0,2c-0.1-0.1-0.2-0.2-0.3-0.4C493.2,410.2,493.3,409.7,493.4,409.1z M490.6,400.2c0,0.8,0,1.5,0.1,2.3
	c0,0.4,0.2,0.8,0.4,1c-0.2,1.3-0.5,2.7-0.7,4c-0.1-0.1-0.3-0.3-0.4-0.4c-0.1-2.3-0.2-4.5-0.3-6.8
	C489.9,400.3,490.3,400.3,490.6,400.2z M489.3,69.1l-0.1,0.7c-0.5,0.2-0.8,0.7-0.8,1.4v5.5c-0.1,0.6-0.1,1.2-0.2,1.7
	c-0.1-0.1-0.3-0.2-0.4-0.3c-0.1-3-0.1-6-0.2-9c0.3-0.4,0.6-0.7,0.9-1.1C488.8,68.5,489.1,68.8,489.3,69.1z M488.4,130.2
	c0,6.6,0-27.3,0-20.6c-0.2-3-0.4-6-0.7-9c-0.1-1.3-0.2-2.6-0.3-3.9C487.8,94.3,488.1,132.5,488.4,130.2z M487.4,52.8l0.4,0.4
	c-0.1,0.1-0.1,0.2-0.2,0.4c-0.4,0.1-0.8,0.3-1.1,0.7l0,0C486.8,53.8,487.1,53.3,487.4,52.8z M487.5,107.7c0.1,1.1,0.1,2.1,0.2,3.2
	c-0.5,3.7-1,7.3-1.5,11c-0.1-0.7-0.1-1.4-0.2-2.1c0-0.7,0-1.3-0.1-2c-0.1-3.4-0.1-6.7-0.2-10.1C486.3,107.9,487,108,487.5,107.7z
	 M486.3,403.3c-0.2-0.2-0.3-0.3-0.5-0.5v-11.1C486,395.5,486.2,399.4,486.3,403.3z M485.9,197.4V190c0.2,7,0.3,13.9,0.5,20.9
	C486.2,206.4,486,201.9,485.9,197.4z M486.6,408.5c0,0.7,0.1,1.3,0.1,2c-0.3-0.3-0.5-0.5-0.8-0.8v-2
	C486.1,407.9,486.3,408.2,486.6,408.5z M482.2,102.7c-0.2-11.1-0.3,18.4-0.4,7.4c0.1,1,0.2,2.1,0.3,3.1l1.3,13.8
	c-0.3,0.1-0.6,0.4-0.7,0.7C482.5,119.3,482.3,111,482.2,102.7z M482.5,404.2v1.2c-0.6-1-1.2-2.1-1.9-3.1
	C481.2,402.9,481.9,403.5,482.5,404.2z M457.8,382c-0.6-1.3-1.2-2.5-1.9-3.8c0.7,1.1,1.4,2.3,2.1,3.4
	C457.9,381.7,457.8,381.9,457.8,382z M460.9,388.2c-0.3-0.5-0.5-1-0.8-1.5c0.3,0.4,0.6,0.8,1,1.2C461,388,461,388.1,460.9,388.2z
	 M462.4,401.4c1.4,1.5,2.8,3,4.2,4.4c2.1,3.7,4.2,7.3,6.4,11C469.5,411.6,465.9,406.5,462.4,401.4z M475.3,414
	c0.1,0.1,0.1,0.1,0.2,0.2c0.1,0.1,0.2,0.2,0.3,0.3c0.2,0.5,0.4,1,0.7,1.5C476,415.3,475.6,414.6,475.3,414z M488.1,435.3
	c-0.1-0.4-0.3-0.8-0.4-1.2c0.1-0.3,0-0.7-0.3-1.1c-0.1-0.2-0.2-0.3-0.3-0.5c-0.7-1.8-1.4-3.6-2.1-5.3c0.5-0.2,0.8-0.7,0.9-1.4
	c1.5,1.8,3,3.6,4.5,5.5C489.6,432.7,488.8,434,488.1,435.3z M490,440.7c-0.1-0.3-0.2-0.6-0.3-0.8c0.1-0.1,0.1-0.1,0.2-0.2
	c1.2-1.5,2.3-3,3.5-4.6c0.4,0.5,1,0.6,1.6,0.4C493.4,437.2,491.7,439,490,440.7z M495.7,108.6c1.8,25.6,2.7,30.5,2.8,56.2
	c0,12.5-0.1,5.3-0.5,17.8c0,0.8,0.4,1.3,0.9,1.5c-0.2,6.2-0.3,12.5-0.5,18.7c-0.2-9.4-0.4-18.8-0.6-28.2l-2.1-61.1
	C495.7,111.9,495.7,110.2,495.7,108.6z M499,418.2c0-0.1-0.1-0.1-0.1-0.2c-0.5-0.7-1-1.3-1.5-2c0.3-5,0.5-10,0.8-14.9
	c0.3,0.1,0.6,0.1,0.9,0C499,406.8,499,412.5,499,418.2z M499.7,117.3c-0.6-9.5-1.3,21.7-2.1,12.2c-0.5-5.6-1-11.1-1.6-16.7
	c0.1-7.7,0.1-15.4,0.2-23.1c1.6,18.4,2.8-3.7,3.5,14.8C499.7,108.7,499.7,113,499.7,117.3z M499.9,86.2c-0.3-1.2-0.6-2.4-1-3.5
	c0-0.2,0-0.4-0.1-0.5c0.3,0.5,0.7,0.9,1,1.4L499.9,86.2z M503.2,422.4c3.3-4.3,6.6-8.6,9.9-12.9c2.1-2.1,4.2-4.3,6.4-6.4
	C514.4,409.8,509,416.3,503.2,422.4z M521.3,407.5c-1.2,1.1-2.4,2.3-3.7,3.4c3-3.8,5.9-7.6,8.7-11.6
	C524.7,402.2,523,404.9,521.3,407.5z"/>
<g>
	<path d="M651.9,288.1c0-0.2,0-0.4-0.1-0.6c0.8-0.9-21-29.1-28.9-43.8c-0.9-1.7-3.1-1.6-4.2-0.2c-3.7,5.1-7.3,10.2-11,15.4
		c-0.4,0.3-0.8,0.8-0.9,1.3c-3,4.2-6,8.4-9,12.6c-1.2,0.3-2.2,1.5-2,2.8c-2.8,3.9-5.6,7.8-8.4,11.7c-0.2,0.3-0.4,0.7-0.4,1
		c-2.2,0.8-2.1,4.7,0.7,4.7h63.9C654.7,292.9,654.9,288.1,651.9,288.1z M620.5,249.3c4.6,8.1,9.7,15.9,15.3,23.3
		c-0.1,0.2-0.2,0.5-0.3,0.8s-0.1,0.6-0.2,0.9c-4.9-7.6-9.8-15.2-14.7-22.9c-0.3-0.4-0.6-0.7-1-0.9
		C619.9,250.1,620.2,249.7,620.5,249.3z M601.9,275.3c0.1,0.2,0.1,0.5,0.2,0.7c-0.1-0.1-0.2-0.3-0.4-0.4
		C601.7,275.5,601.8,275.4,601.9,275.3z M595.1,288.1c0.1-0.2,0.2-0.3,0.2-0.5c0.8-0.1,1.5-0.4,2.2-0.7c0.1,0,0.3,0,0.5,0.1
		c2.4,0.1,4.7,0.1,7.1,0.2c0.3,0.3,0.6,0.5,1,0.6c0,0.1,0.1,0.2,0.1,0.3H595.1z M608.5,282.3c-0.2-0.9-0.4-1.7-0.6-2.6
		c0.7,0.9,1.4,1.8,2.2,2.6C609.5,282.3,609,282.3,608.5,282.3z M605.9,269.7c0.4-0.5,0.7-1,1.1-1.5c0,0.2,0.1,0.3,0.1,0.5
		c0.9,2.1,1.9,4.1,3.1,6c0,0.1,0,0.1,0.1,0.2L605.9,269.7z M614.4,257.8c0.8,2.7,1.5,5.4,2.3,8.2c-1.5-1.7-2.9-3.5-4.4-5.2
		C613,259.8,613.7,258.8,614.4,257.8z M614.7,288.1l3.1-0.7c1.1,0,2.2,0.1,3.2,0.1c0.2,0.2,0.5,0.4,0.7,0.6H614.7z M621.7,281.6
		c-2.1-2.1-4.1-4.4-5.8-6.8c1.1,0.6,2.2,1.3,3.3,1.9c0.3,0.4,0.6,0.7,0.9,1.1c0.7,0.8,1.6,0.9,2.4,0.6c0.5,0.2,0.9,0.5,1.4,0.7
		c0.2,0.6,0.4,1.3,0.6,1.9C623.6,281.2,622.6,281.4,621.7,281.6z M631.5,277.1c-0.9-0.4-1.8-0.8-2.7-1.2c-0.4-1.8-0.9-3.6-1.5-5.4
		C628.7,272.7,630.1,274.9,631.5,277.1z M628.7,288.1c0-0.1-0.1-0.3-0.1-0.4c5.3,0.1,10.5,0.3,15.8,0.4H628.7z"/>
	<path d="M653,379.3h-63.9c-2.8,0-2.9,3.9-0.7,4.7c0,0.3,0.2,0.7,0.4,1c2.8,3.9,5.6,7.8,8.4,11.7c-0.2,1.3,0.8,2.5,2,2.8
		c3,4.2,6,8.4,9,12.6c0.2,0.5,0.5,1,0.9,1.3c3.7,5.1,7.3,10.2,11,15.4c1,1.5,3.3,1.5,4.2-0.2c7.9-14.7,29.7-43,28.9-43.8
		c0.1-0.2,0.1-0.4,0.1-0.6C656.3,384.1,656.1,379.3,653,379.3z M621,421.7c0.4-0.2,0.8-0.5,1-0.9c4.9-7.6,9.8-15.2,14.7-22.9
		c0.1,0.3,0.1,0.6,0.2,0.9c0.1,0.3,0.2,0.5,0.3,0.8c-5.6,7.4-10.8,15.2-15.3,23.3C621.6,422.6,621.3,422.1,621,421.7z M603,396.6
		c0.1-0.1,0.2-0.3,0.4-0.4c-0.1,0.2-0.1,0.5-0.2,0.7C603.2,396.8,603.1,396.7,603,396.6z M607.5,384.2c-0.1,0.1-0.1,0.2-0.1,0.3
		c-0.4,0.1-0.7,0.3-1,0.6c-2.4,0.1-4.7,0.1-7.1,0.2c-0.2,0-0.3,0-0.5,0.1c-0.7-0.3-1.4-0.6-2.2-0.7c0-0.2-0.1-0.4-0.2-0.5H607.5z
		 M611.4,389.9c-0.7,0.9-1.4,1.8-2.2,2.6c0.2-0.9,0.4-1.7,0.6-2.6C610.3,389.9,610.9,389.9,611.4,389.9z M611.5,397.3
		c0,0.1,0,0.1-0.1,0.2c-1.1,1.9-2.2,3.9-3.1,6c-0.1,0.2-0.1,0.3-0.1,0.5c-0.4-0.5-0.7-1-1.1-1.5L611.5,397.3z M613.6,411.5
		c1.5-1.7,2.9-3.5,4.4-5.2c-0.8,2.7-1.5,5.4-2.3,8.2C615.1,413.4,614.3,412.5,613.6,411.5z M623.1,384.2c-0.2,0.2-0.5,0.4-0.7,0.6
		c-1.1,0-2.2,0.1-3.2,0.1l-3.1-0.7H623.1z M625.9,391.3c-0.2,0.6-0.4,1.3-0.6,1.9c-0.5,0.2-0.9,0.4-1.4,0.7
		c-0.8-0.3-1.8-0.1-2.4,0.6c-0.3,0.4-0.6,0.7-0.9,1.1c-1.1,0.6-2.2,1.2-3.3,1.9c1.7-2.5,3.6-4.7,5.8-6.8
		C624,390.8,625,391,625.9,391.3z M628.6,401.7c0.6-1.8,1.1-3.6,1.5-5.4c0.9-0.4,1.8-0.8,2.7-1.2C631.4,397.3,630,399.5,628.6,401.7
		z M645.8,384.2c-5.3,0.1-10.5,0.3-15.8,0.4c0-0.1,0.1-0.3,0.1-0.4H645.8z"/>
	<path d="M665.3,368.5c0.2,0,0.4,0,0.6-0.1c0.9,0.8,29.1-21,43.8-28.9c1.7-0.9,1.6-3.1,0.2-4.2c-5.1-3.7-10.2-7.3-15.4-11
		c-0.3-0.4-0.8-0.8-1.3-0.9c-4.2-3-8.4-6-12.6-9c-0.3-1.2-1.5-2.2-2.8-2c-3.9-2.8-7.8-5.6-11.7-8.4c-0.3-0.2-0.7-0.4-1-0.4
		c-0.8-2.2-4.7-2.1-4.7,0.7v63.9C660.5,371.3,665.2,371.5,665.3,368.5z M704.1,337.1c-8.1,4.6-15.9,9.7-23.3,15.3
		c-0.2-0.1-0.5-0.2-0.8-0.3c-0.3-0.1-0.6-0.1-0.9-0.2c7.6-4.9,15.2-9.8,22.9-14.7c0.4-0.3,0.7-0.6,0.9-1
		C703.3,336.5,703.7,336.8,704.1,337.1z M678.1,318.5c-0.2,0.1-0.5,0.1-0.7,0.2c0.1-0.1,0.3-0.2,0.4-0.4
		C677.9,318.3,678,318.4,678.1,318.5z M665.3,311.7c0.2,0.1,0.3,0.2,0.5,0.2c0.1,0.8,0.4,1.5,0.7,2.2c0,0.1,0,0.3-0.1,0.5
		c-0.1,2.4-0.1,4.7-0.2,7.1c-0.3,0.3-0.5,0.6-0.6,1c-0.1,0-0.2,0.1-0.3,0.1V311.7z M671.1,325.1c0.9-0.2,1.7-0.4,2.6-0.6
		c-0.9,0.7-1.8,1.4-2.6,2.2C671,326.1,671,325.6,671.1,325.1z M683.7,322.5c0.5,0.4,1,0.7,1.5,1.1c-0.2,0-0.3,0.1-0.5,0.1
		c-2.1,0.9-4.1,1.9-6,3.1c-0.1,0-0.1,0-0.2,0.1L683.7,322.5z M695.6,331c-2.7,0.8-5.4,1.5-8.2,2.3c1.7-1.5,3.5-2.9,5.2-4.4
		C693.6,329.6,694.6,330.3,695.6,331z M665.3,331.3l0.7,3.1c0,1.1-0.1,2.2-0.1,3.2c-0.2,0.2-0.4,0.5-0.6,0.7V331.3z M671.8,338.3
		c2.1-2.1,4.4-4.1,6.8-5.8c-0.6,1.1-1.3,2.2-1.9,3.3c-0.4,0.3-0.7,0.6-1.1,0.9c-0.8,0.7-0.9,1.6-0.6,2.4c-0.2,0.5-0.5,0.9-0.7,1.4
		c-0.6,0.2-1.3,0.4-1.9,0.6C672.2,340.2,672,339.3,671.8,338.3z M676.2,348.1c0.4-0.9,0.8-1.8,1.2-2.7c1.8-0.4,3.6-0.9,5.4-1.5
		C680.6,345.3,678.4,346.7,676.2,348.1z M665.3,345.3c0.1,0,0.3-0.1,0.4-0.1c-0.1,5.3-0.3,10.5-0.4,15.8V345.3z"/>
	<path d="M579.9,367.4v-63.9c0-2.8-3.9-2.9-4.7-0.7c-0.3,0-0.7,0.2-1,0.4c-3.9,2.8-7.8,5.6-11.7,8.4c-1.3-0.2-2.5,0.8-2.8,2
		c-4.2,3-8.4,6-12.6,9c-0.5,0.2-1,0.5-1.3,0.9c-5.1,3.7-10.2,7.3-15.4,11c-1.5,1-1.5,3.3,0.2,4.2c14.7,7.9,43,29.7,43.8,28.9
		c0.2,0.1,0.4,0.1,0.6,0.1C575.1,370.7,579.9,370.5,579.9,367.4z M537.5,335.4c0.2,0.4,0.5,0.8,0.9,1c7.6,4.9,15.2,9.8,22.9,14.7
		c-0.3,0.1-0.6,0.1-0.9,0.2c-0.3,0.1-0.5,0.2-0.8,0.3c-7.4-5.6-15.2-10.8-23.3-15.3C536.7,336,537.1,335.7,537.5,335.4z
		 M562.6,317.4c0.1,0.1,0.3,0.2,0.4,0.4c-0.2-0.1-0.5-0.1-0.7-0.2C562.4,317.6,562.5,317.5,562.6,317.4z M575,321.9
		c-0.1-0.1-0.2-0.1-0.3-0.1c-0.1-0.4-0.3-0.7-0.6-1c-0.1-2.4-0.1-4.7-0.2-7.1c0-0.2,0-0.3-0.1-0.5c0.3-0.7,0.6-1.4,0.7-2.2
		c0.2,0,0.4-0.1,0.5-0.2L575,321.9L575,321.9z M569.3,325.8c-0.9-0.7-1.8-1.4-2.6-2.2c0.9,0.2,1.7,0.4,2.6,0.6
		C569.3,324.7,569.3,325.3,569.3,325.8z M561.9,325.9c-0.1,0-0.1,0-0.2-0.1c-1.9-1.1-3.9-2.2-6-3.1c-0.2-0.1-0.3-0.1-0.5-0.1
		c0.5-0.4,1-0.7,1.5-1.1L561.9,325.9z M547.7,328c1.7,1.5,3.5,2.9,5.2,4.4c-2.7-0.8-5.4-1.5-8.2-2.3
		C545.8,329.5,546.8,328.8,547.7,328z M575,337.5c-0.2-0.2-0.4-0.5-0.6-0.7c0-1.1-0.1-2.2-0.1-3.2l0.7-3.1L575,337.5L575,337.5z
		 M568,340.3c-0.6-0.2-1.3-0.4-1.9-0.6c-0.2-0.5-0.4-0.9-0.7-1.4c0.3-0.8,0.1-1.8-0.6-2.4c-0.4-0.3-0.7-0.6-1.1-0.9
		c-0.6-1.1-1.2-2.2-1.9-3.3c2.5,1.7,4.7,3.6,6.8,5.8C568.4,338.4,568.2,339.4,568,340.3z M557.5,343c1.8,0.6,3.6,1.1,5.4,1.5
		c0.4,0.9,0.8,1.8,1.2,2.7C561.9,345.8,559.7,344.4,557.5,343z M575,360.2c-0.1-5.3-0.3-10.5-0.4-15.8c0.1,0,0.3,0.1,0.4,0.1V360.2z
		"/>
</g>
<path d="M687.4,63.7c-0.8-2-3.2-3.7-5.5-2.9c-17.6,5.8-36.1,4.9-53.1-2.6c-2.3-1-5.4,0.9-6,3.1c-0.7,2.7,0.7,4.9,3.1,6
	c6.9,3,14.2,5.1,21.7,6.1c-9.6,5.3-17.5,13.5-22.4,23.4c-1.6,3.2-3,6.6-4,10.1c-12.6,1.2-24.7,8.3-31.2,19.3
	c-2.4,4.1-4.1,8.7-5,13.5c-2.6,0.3-5.1,0.9-7.4,1.7c-7.5,2.6-13.8,7.5-18.1,14.2c-2.8,4.5-4.8,9.7-5.5,15
	c-15.6,5.8-26.1,23.5-21.3,40.2c0.5,1.7,1.1,3.5,1.8,5.1c-3.1,2.6-5.6,5.9-7.3,9.7c-4.3,9.8-1.3,21.2,4.9,29.4
	c6.6,8.6,17.5,12.8,28,13.8c2.5,0.2,5.1,0.2,7.6,0.1c2.5-0.2,4.9-1.9,4.9-4.6c0-2.4-2-5.1-4.6-4.9c-2.2,0.1-4.4,0.2-6.6,0
	c-1.1-0.1-2.2-0.2-3.3-0.3c-0.2,0-0.4-0.1-0.5-0.1c0,0-0.1,0-0.2,0c-0.6-0.1-1.2-0.2-1.7-0.4c-4.5-1-7.6-2.3-11.2-4.9
	c-1.6-1.1-2.6-2-4.1-3.7c-0.3-0.4-0.6-0.7-0.9-1.1c-0.1-0.2-0.3-0.4-0.4-0.6l0,0l-0.1-0.1c-0.6-0.9-1.1-1.7-1.6-2.6
	c-0.4-0.7-1-2-1.1-2.4c0,0.1-0.3-0.8-0.3-1c-0.2-0.5-0.3-1-0.4-1.6c-0.2-1-0.4-2-0.6-3c0-0.2,0-0.4,0-0.6c0-0.5,0-1.1,0-1.6
	s0-0.9,0.1-1.4c0-0.2,0-0.5,0.1-0.7c0-0.1,0-0.3,0.1-0.5c0-0.2,0.2-0.8,0.2-0.9c0.1-0.5,0.3-1,0.4-1.6c0.1-0.4,0.3-0.9,0.5-1.3
	c0,0,0.1-0.1,0.1-0.2c0.1-0.2,0.2-0.5,0.3-0.5c0.5-0.9,1-1.7,1.6-2.6c0.1-0.2,0.2-0.2,0.2-0.3c0,0,0.1-0.1,0.2-0.2
	c0.2-0.2,0.4-0.5,0.6-0.7c0.3,0.6,0.7,1.1,1.1,1.7c3,4.6,6.2,9.4,10.6,12.8c4.1,3.2,9.4,4.6,14.6,3.5c5.6-1.3,9.7-5.8,10.1-11.6
	c0.4-5.9-3.1-11.4-7.5-15c-4.3-3.6-9.5-5.7-15.1-6.1c-3.5-0.3-6.9,0.2-10,1.3V211c-0.6-1.4-1.3-4.2-1.6-6.2c0-0.2-0.1-0.9-0.1-0.8
	c0-0.4,0-0.8-0.1-1.2c0-0.9,0-1.9,0.1-2.8c0-0.4,0.1-0.7,0.1-1c0,0.3,0.1-0.7,0.2-0.9c0.2-0.9,0.5-1.8,0.8-2.7
	c0.1-0.4,0.3-0.8,0.4-1.2c0.1-0.2,0.2-0.4,0.2-0.6c0-0.1,0.1-0.3,0.2-0.5c0.1-0.2,0.3-0.7,0.4-0.8c0.2-0.5,0.5-0.9,0.7-1.4
	c0.5-0.8,1-1.6,1.6-2.4c0.3-0.4,0.5-0.7,0.8-1.1c0,0,0-0.1,0.1-0.1c0.1-0.2,0.3-0.3,0.4-0.5c1.3-1.4,2.7-2.7,4.2-3.9
	c0.1-0.1,0.2-0.2,0.2-0.2s0.1-0.1,0.2-0.1c0.4-0.3,0.9-0.6,1.3-0.8c0.4-0.2,0.7-0.4,1.1-0.6c1,6.3,3.6,12.1,7.8,17.1
	c4.9,5.8,11.8,10.1,19.1,12c3.6,0.9,7.4,1.3,11.2,1.1c2.8-0.2,4.5-1.8,4.9-4.6c3-18.8-13.9-38.4-32.9-37.9c0.3-1.1,0.6-2.1,1-3.1
	c0.1-0.3,0.3-0.7,0.4-1c0-0.1,0.2-0.4,0.2-0.5c0.3-0.7,0.7-1.4,1.1-2.1c0.7-1.2,1.5-2.4,2.3-3.5c0.1-0.1,0.3-0.3,0.4-0.5
	c0.2-0.2,0.4-0.4,0.6-0.6c0.6-0.6,1.1-1.2,1.7-1.7c0.5-0.5,1.1-1,1.7-1.4c0,0,0.8-0.6,0.7-0.5c0.2-0.1,0.3-0.2,0.5-0.3
	c1.4-0.9,2.9-1.7,4.5-2.3c0,0,0.2-0.1,0.3-0.1c0.4-0.1,0.8-0.3,1.2-0.4c0.7-0.2,1.3-0.4,2-0.6c0.5-0.1,1.1-0.2,1.6-0.3
	c0.3,7.9,2.8,15.7,7.6,22c5,6.6,14.6,11.7,22.5,6.9s9.1-15.3,4.9-22.9c-4.9-8.9-14.5-14.2-24.6-15.6c0.2-0.8,0.4-1.6,0.7-2.3
	c0.2-0.7,0.5-1.5,0.8-2.2c0.1-0.4,0.3-0.7,0.5-1.1c0-0.1,0.1-0.1,0.1-0.2c0-0.1,0.1-0.1,0.1-0.2c0.7-1.5,1.6-2.9,2.5-4.3
	c0.4-0.6,0.9-1.3,1.4-1.9l0.1-0.1c0-0.1,0.1-0.1,0.2-0.2c0.2-0.2,0.4-0.5,0.6-0.7c1.1-1.2,2.4-2.4,3.7-3.4c0.3-0.2,0.6-0.5,0.9-0.7
	c0.1,0,0.1-0.1,0.1-0.1c0.1,0,0.1-0.1,0.2-0.1c0.6-0.4,1.3-0.8,1.9-1.2c1.4-0.8,2.8-1.5,4.3-2.2c0.3-0.1,0.5-0.2,0.8-0.3
	c0.1,0,0.5-0.2,0.6-0.2c0.6-0.2,1.3-0.4,2-0.6c1.1-0.3,2.2-0.6,3.3-0.8c-0.8,7.6,0.1,15.2,3.1,22.3s9.5,13.7,17.8,13.6
	c8.1-0.2,14.9-6.5,17.1-14.1c2.4-8-0.8-16.4-6.6-22c-5.4-5.2-12.3-8.3-19.6-9.4c0.1-0.1,0.1-0.3,0.2-0.4c0.5-1.3,1-2.6,1.6-3.9
	c0,0,0.1-0.1,0.1-0.2c0.2-0.4,0.4-0.8,0.6-1.2c0.3-0.6,0.7-1.3,1-1.9c0.7-1.3,1.5-2.5,2.3-3.7c0.4-0.6,0.8-1.2,1.3-1.8
	c0.2-0.3,0.4-0.6,0.7-0.9c0.1-0.1,0.6-0.8,0.6-0.8c1.8-2.1,3.8-4.1,5.9-5.9c0.5-0.5,1.1-0.9,1.7-1.4c0.3-0.2,0.6-0.5,1-0.7l0.1-0.1
	c1.3-0.9,2.6-1.7,4-2.5c1.3-0.7,4.4-2,5.2-2.2c0,0-3.4,16.3-3.3,28.9c0,2.5,2,4.9,4.6,4.9c2.5,0,4.9-1.9,4.9-4.6
	c0-2.1,0.1-4.2,0.3-6.2c0-0.3,0.1-0.6,0.1-1c0-0.2,0.1-0.4,0.1-0.4c0-0.1,0-0.1,0-0.2c0.1-0.3,0.1-0.6,0.2-0.9
	c0.2-0.9,0.4-1.9,0.7-2.8c0.5-2,1.2-4,2-5.9c0.2-0.4,0.4-0.9,0.6-1.3c0.1-0.1,0.1-0.2,0.1-0.3c0.1-0.2,0.2-0.3,0.2-0.5
	c0.5-0.9,0.9-1.9,1.5-2.8c1-1.8,2.2-3.6,3.4-5.2c1.3-1.7,1.9-2.5,3.6-4.2c1.4-1.5,3-2.9,4.6-4.2c1.5-1.2,2.5-1.9,4.5-3.1
	C687.3,68.4,688.3,66,687.4,63.7z M548.9,219.3c0.2,0,0.3-0.1,0.5-0.1c0,0,0.1,0,0.2,0c0.6,0,1.1,0,1.7,0c0.5,0,1,0,1.5,0.1
	c0.2,0,0.5,0.1,0.7,0.1c0.1,0,0.1,0,0.1,0l0,0c1,0.2,2.1,0.5,3.1,0.8c3.2,1.1,6.5,3.5,8.1,6.4c0.2,0.4,0.4,0.8,0.6,1.2
	c-0.1-0.1,0.3,0.9,0.3,1c0.1,0.2,0.1,0.5,0.1,0.7c0,0,0,0.2,0,0.3s0,0.3,0,0.3c0,0.2,0,0.4,0,0.7c0-0.1-0.1,0.3-0.2,0.6
	c0-0.1-0.3,0.4-0.4,0.7c-0.1,0.1-0.2,0.2-0.3,0.3s-0.2,0.1-0.3,0.2c0,0-0.1,0-0.2,0.1c-0.3,0.1-0.8,0.4-0.6,0.3
	c-0.3,0.1-0.7,0.2-1,0.3c-0.2,0-0.3,0.1-0.5,0.1c-0.4,0-0.9,0-1.3,0c-0.3,0-0.7-0.1-0.7-0.1c-0.3-0.1-0.7-0.2-1-0.3
	c-0.1,0-0.6-0.2-0.8-0.3c-0.1-0.1-0.3-0.1-0.3-0.1c-0.3-0.2-0.6-0.3-0.8-0.5c-1.7-1.1-2.6-2-4.2-3.8c-1.5-1.8-2.1-2.7-3.5-4.7
	c-0.8-1.2-1.7-2.5-2.5-3.8C547.8,219.5,548.4,219.4,548.9,219.3z M564.9,178c0.9,0,1.8,0.1,2.7,0.2c0.2,0,0.4,0.1,0.5,0.1
	c0.5,0.1,1,0.2,1.5,0.4c0.9,0.3,1.8,0.6,2.7,0.9c0.1,0.1,0.7,0.3,0.8,0.4c0.1,0,0.2,0.1,0.2,0.1c0.3,0.1,0.5,0.3,0.8,0.4
	c0.8,0.4,1.6,0.9,2.4,1.5c0.4,0.2,0.7,0.5,1.1,0.8c0.1,0.1,0.7,0.6,0.8,0.6c1.4,1.2,2.7,2.5,3.8,3.9c0.3,0.3,0.5,0.7,0.8,1l0.1,0.1
	c0.1,0.1,0.3,0.4,0.3,0.5c0.5,0.8,1,1.6,1.5,2.4c0.4,0.8,0.9,1.7,1.2,2.6c0.1,0.1,0.1,0.3,0.2,0.4v0.1c0.2,0.5,0.3,1,0.5,1.4
	c0.3,0.9,0.5,1.8,0.7,2.7c0.1,0.4,0.2,0.9,0.2,1.3c0,0.1,0,0.3,0.1,0.4c0,0.1,0,0.1,0,0.3c0,0.4,0,0.7,0,1.1c-0.6,0-1.2-0.1-1.9-0.2
	c-0.1,0-0.5-0.1-0.6-0.1c-0.5-0.1-1-0.2-1.5-0.4c-1.5-0.4-2.9-0.9-4.3-1.4c-0.2-0.1-0.4-0.2-0.6-0.2c-0.1,0-0.5-0.2-0.6-0.3
	c-0.7-0.4-1.5-0.8-2.2-1.2c-1.2-0.7-2.4-1.5-3.5-2.4c-0.1-0.1-0.4-0.3-0.5-0.4c-0.3-0.3-0.6-0.5-0.8-0.8c-0.7-0.6-1.3-1.3-1.9-2
	c-0.5-0.6-1-1.2-1.4-1.7c0,0-0.1-0.1-0.2-0.2c-0.2-0.3-0.5-0.7-0.7-1c-0.8-1.3-1.5-2.6-2.1-4c0,0-0.4-1-0.3-0.8
	c-0.1-0.2-0.1-0.4-0.2-0.5c-0.2-0.7-0.4-1.4-0.6-2.1c-0.2-0.7-0.3-1.4-0.4-2.2c-0.1-0.4-0.1-0.7-0.2-1.1c0-0.1,0-0.2,0-0.3h0.1
	C563.8,178,564.4,178,564.9,178z M595.4,149.5c1.4,0.3,2.8,0.7,4.2,1.3c0.4,0.1,0.7,0.3,1.1,0.4c0.1,0,0.2,0.1,0.2,0.1
	s0.1,0,0.1,0.1c0.8,0.4,1.5,0.8,2.2,1.2s1.3,0.8,1.9,1.2c0.3,0.2,0.6,0.4,0.9,0.7c0.1,0.1,0.4,0.3,0.5,0.4c0.6,0.5,1.2,1,1.7,1.6
	c0.2,0.2,0.5,0.5,0.7,0.8s0.4,0.5,0.7,0.8c0.3,0.5,0.4,0.5,0.2,0.2c0.5,0.6,0.8,1.3,1.2,2c0.2,0.4,0.4,0.8,0.6,1.1
	c0,0.1,0.1,0.2,0.1,0.3c0,0,0,0.1,0.1,0.2c0.1,0.4,0.2,0.8,0.3,1.2c0,0,0.1,0.5,0.1,0.8s0,0.7,0,0.7c0,0.4,0,0.9-0.1,1.3
	c0,0.1,0,0.2,0,0.2c0,0.1,0,0.1-0.1,0.2c-0.1,0.3-0.2,0.6-0.2,0.8c0,0-0.2,0.4-0.2,0.6c-0.1,0.2-0.3,0.6-0.3,0.6
	c-0.2,0.3-0.4,0.6-0.6,0.9l0,0c0,0-0.1,0.1-0.2,0.1c-0.1,0.1-0.3,0.3-0.4,0.4c0.2-0.2-0.8,0.5-1,0.6c0.2-0.1,0.8-0.2-0.1,0
	c-0.4,0.1-0.7,0.2-1.1,0.2c0,0,0,0-0.1,0s-0.1,0-0.2,0c-0.4,0-0.7,0-1.1-0.1l0,0c-0.1,0-0.1,0-0.2-0.1c-0.3-0.1-0.6-0.2-0.9-0.3
	c0,0-0.9-0.4-0.8-0.3c-0.3-0.2-0.7-0.4-1-0.6c-0.3-0.2-0.7-0.4-1-0.7c-0.1-0.1-0.6-0.4-0.6-0.4c-0.6-0.5-1.1-1-1.6-1.5
	s-1-1.1-1.4-1.7c0-0.1-0.2-0.3-0.3-0.4c-0.3-0.5-0.7-1.1-1-1.6c-0.7-1.3-1.4-2.7-1.9-4v-0.1c0-0.1-0.1-0.2-0.1-0.3
	c-0.1-0.3-0.2-0.6-0.3-0.9c-0.3-0.9-0.5-1.8-0.8-2.7c-0.2-0.8-0.3-1.5-0.5-2.3c-0.1-0.4-0.1-0.8-0.2-1.2c0-0.1-0.1-0.5-0.1-0.7
	c0-0.5-0.1-1.1-0.1-1.6c0.1,0,0.2,0,0.3,0C594.1,149.2,595.3,149.4,595.4,149.5z M632.9,117.1c0.7,0.2,1.5,0.4,2.2,0.7
	c0.4,0.2,0.9,0.3,1.3,0.5c0.1,0,0.7,0.3,0.8,0.3c1.3,0.6,2.6,1.4,3.8,2.2c0.3,0.2,0.5,0.4,0.8,0.5c0,0,0.6,0.5,0.7,0.6
	c0.6,0.5,1.1,1,1.7,1.6c0.5,0.5,0.9,1,1.4,1.5c0.1,0.1,0.2,0.2,0.2,0.2c0,0.1,0.1,0.1,0.2,0.2c0.2,0.3,0.3,0.5,0.5,0.8
	c0.4,0.6,0.8,1.3,1.1,2c0,0.1,0.4,1,0.3,0.8c0.1,0.3,0.2,0.7,0.3,1c0.2,0.6,0.3,1.2,0.4,1.8c0,0.1,0,0.3,0,0.4c0,0.4,0,0.8,0,1.3
	c0,0.3-0.1,0.6-0.1,0.8c0.1-1.1-0.1,0.2-0.1,0.4c-0.2,0.8-0.4,1.5-0.7,2.2c0,0.1,0,0.1-0.1,0.1c0,0,0,0.1-0.1,0.1
	c-0.1,0.3-0.3,0.5-0.4,0.8c-0.3,0.5-0.6,1-1,1.5l-0.5,0.6c-0.2,0.2-0.4,0.4-0.6,0.6c-0.3,0.3-0.6,0.5-0.9,0.8
	c-0.1,0.1-0.1,0.1-0.1,0.1c-0.1,0-0.1,0.1-0.2,0.1c-0.5,0.3-1,0.6-1.6,0.8c0.2-0.1-1.1,0.3-1.4,0.3h-0.1c-0.4,0-0.7,0-1.1,0
	c-0.2,0-0.3,0-0.5,0c0.2,0-0.8-0.2-1-0.3c-0.3-0.1-0.6-0.2-0.9-0.3c-0.1,0-0.1-0.1-0.2-0.1c-0.5-0.3-1-0.6-1.5-0.9
	c0,0-0.6-0.5-0.7-0.5c-0.2-0.2-0.4-0.4-0.6-0.6c-0.3-0.3-0.6-0.6-0.9-1c-0.1-0.1-0.6-0.9-0.5-0.7c-1.8-2.8-2.6-4.6-3.3-7.5
	c-0.3-1.3-0.6-2.7-0.8-4.1c-0.1-0.4-0.1-0.9-0.2-1.3l0,0c-0.1-0.9-0.1-1.7-0.2-2.6c-0.1-2.3,0-4.6,0.3-6.8c0.2,0,0.4,0,0.6,0.1
	c0.3,0,0.6,0.1,0.8,0.1c0.1,0,0.5,0.1,0.6,0.1C631.6,116.8,632.2,117,632.9,117.1z"/>
<g>
	<path d="M-258.7,526.6c-3.8-2-7.3-4.2-10.7-6.9c-0.3-0.2-0.6-0.5-0.9-0.7c-0.1-0.1-0.7-0.6-0.8-0.7c-0.9-0.7-1.7-1.5-2.5-2.3
		c-1.5-1.4-2.9-3-4.3-4.5c-0.7-0.8-1.3-1.6-2-2.4c-0.3-0.4-0.6-0.7-0.9-1.1c0,0-0.6-0.8-0.6-0.9c-1.1-1.6-2.2-3.3-3.2-5
		c-1-1.8-2-3.6-2.9-5.5c-0.5-1-0.9-2.1-1.3-3.1c-0.1-0.2-0.1-0.3-0.2-0.4c0-0.1-0.1-0.2-0.1-0.4c-0.2-0.5-0.4-1.1-0.6-1.6
		c-1-2.8-3.6-4.8-6.7-4.1c-1.3,0.3-2.5,1.2-3.3,2.3c-0.3,0.3-0.5,0.7-0.6,1.1c-0.1,0.2-0.2,0.5-0.2,0.7c-0.6,2.1-1.3,4.2-2.1,6.3
		c-0.9,2.3-1.4,3.4-2.3,5.2c-2,4-4.4,7.8-7.1,11.3c-1.4,1.8-2,2.5-3.7,4.4c-1.5,1.6-3,3.1-4.7,4.6c-1.7,1.5-3.5,3-5.3,4.3
		c-0.2,0.2-0.3,0.2-0.3,0.3c-0.1,0-0.2,0.1-0.4,0.2c-0.5,0.3-0.9,0.6-1.4,1c-1,0.6-1.9,1.2-2.9,1.8c-2.6,1.5-3.7,4.8-2.3,7.5
		c1.4,2.6,4.9,3.8,7.5,2.3c10.5-6.3,19.5-14.9,26.1-25.2c0.3,36.1,0.6,72.2,1,108.2c0.1,11.3,0.2,22.6,0.3,33.8
		c0,2.9,2.3,5.8,5.3,5.7c2.9,0,5.8-2.2,5.7-5.3c-0.4-40-0.7-79.9-1.1-119.9c-0.1-7.1-0.1-14.2-0.2-21.3c6.3,8.1,14.3,14.9,23.6,19.7
		c2.7,1.4,6,1,7.7-1.7C-255.5,531.9-256,528-258.7,526.6z"/>
</g>
<g>
	<path d="M-292.7,679.5c-12,0-21.8-10-21.9-22.2l-0.9-103.5c-0.4,0.3-0.9,0.5-1.3,0.8c-3.3,2-7.1,3-11,3c-8.1,0-15.8-4.6-19.6-11.7
		c-5.6-10.5-1.9-23.5,8.4-29.7c0.9-0.5,1.6-1,2.3-1.4c0.3-0.2,0.6-0.4,0.9-0.6l0.4-0.2c1.6-1.2,2.9-2.3,4.2-3.4
		c1.2-1.1,2.5-2.3,3.6-3.5c1.4-1.5,1.6-1.8,2.6-3.1c2.1-2.8,3.9-5.7,5.5-8.8c0.7-1.3,0.9-1.9,1.6-3.7c0.6-1.5,1.1-3,1.6-4.7
		c0.2-0.9,0.5-1.8,0.9-2.6c0.7-1.6,1.5-3.2,2.6-4.6c3.2-4.4,7.8-7.5,12.9-8.7c1.7-0.4,3.4-0.6,5.1-0.6l0,0v5.5v-5.5
		c9.5,0,18,6.3,21.2,15.6c0.1,0.4,0.3,0.8,0.4,1.2l0.1,0.2c0.3,0.7,0.7,1.6,1.1,2.5c0.6,1.4,1.4,2.8,2.2,4.2
		c0.7,1.2,1.5,2.4,2.3,3.6c0.1,0.1,0.2,0.2,0.3,0.4l0.2,0.3c0.2,0.2,0.4,0.5,0.6,0.8c0.5,0.6,1,1.2,1.5,1.8c1,1.2,2.1,2.4,3.3,3.4
		c0.6,0.6,1.2,1.2,1.8,1.7l0.6,0.5c0.2,0.1,0.3,0.3,0.5,0.4c2.5,1.9,5.2,3.7,8.1,5.2c5.3,2.8,9.1,7.5,10.7,13.5
		c1.6,6.1,0.7,12.6-2.6,17.8c-4.1,6.4-11,10.2-18.6,10.2c-3.3,0-6.6-0.7-9.7-2.1l0.9,106.1c0.1,6.3-2.7,12.3-7.4,16.5
		c-4.1,3.6-9.3,5.6-14.8,5.6L-292.7,679.5z M-304.7,531.8l1.1,125.3c0.1,6.2,4.9,11.2,10.8,11.2h0.1c2.8,0,5.4-1.1,7.5-2.9
		c2.4-2.1,3.7-5,3.7-8l-1-126.1l8.7,5.7c2.1,1.4,4.4,2.7,6.7,3.9c1.8,0.9,3.7,1.4,5.6,1.4c3.8,0,7.3-1.9,9.3-5.1
		c1.7-2.6,2.1-5.9,1.3-9c-0.8-2.9-2.6-5.2-5.1-6.5c-3.5-1.8-6.8-3.9-9.8-6.3c-0.2-0.2-0.5-0.4-0.7-0.6l-0.8-0.7
		c-0.8-0.7-1.5-1.4-2.3-2.1c-1.4-1.3-2.7-2.7-3.9-4.2c-0.6-0.7-1.2-1.4-1.8-2.2c-0.3-0.3-0.5-0.7-0.7-1l-0.3-0.4
		c-0.1-0.1-0.2-0.3-0.3-0.4l-0.1-0.1c-1-1.4-1.9-2.9-2.8-4.4c-1-1.7-1.8-3.4-2.6-5.1c-0.5-1-0.9-2.1-1.2-2.9l-0.3-0.7
		c-0.2-0.4-0.3-0.9-0.5-1.3c-1.6-4.8-5.9-8-10.7-8l0,0l0,0c-0.8,0-1.7,0.1-2.6,0.3c-2.6,0.6-4.9,2.2-6.5,4.4l0,0
		c-0.5,0.7-0.9,1.5-1.3,2.3c-0.2,0.4-0.3,0.9-0.4,1.3v0.1c-0.6,2-1.2,3.9-1.9,5.7c-0.9,2.2-1.3,3.1-2.1,4.7
		c-1.9,3.7-4.1,7.2-6.6,10.5c-1.2,1.6-1.7,2.2-3.3,3.9c-1.4,1.5-2.8,2.9-4.3,4.2s-3.1,2.6-4.9,4l-0.8,0.6c-0.3,0.2-0.7,0.5-1,0.7
		c-0.8,0.5-1.7,1.1-2.7,1.7c-5.2,3.1-7.1,9.7-4.3,14.9c1.9,3.6,5.8,5.8,9.9,5.8c1.9,0,3.7-0.5,5.3-1.5c3.1-1.8,6.1-3.9,9-6.2
		L-304.7,531.8z"/>
</g>
<path d="M-26.4,548.3c-1.7-1.9-45.4-21.3-47.2-21.3c-2.5,0-5.6,2-5.7,4.7c-0.3,1.2-0.2,2.6,0.3,3.8c1.4,14.7,2.9,29.4,4.3,44.1
	c0.3,2.9,2.1,5.8,5.3,5.7c0.3,0,0.5,0,0.8-0.1c0.6,0,7.6-4.7,12.3-7.9c0.4,1.5,0.8,3,1.2,4.5c0.4,1.8,0.7,3.5,1,5.3
	c0.1,0.9,0.2,1.8,0.3,2.7c0,0,0,0.1,0,0.2c0.1,0.6,0.1,1.2,0.1,1.9c0.2,3.7,0.2,7.4-0.1,11.1c-0.1,1.8-0.4,3.6-0.6,5.4
	c0-0.1-0.1,0.5-0.1,0.8c-0.1,0.3-0.2,1-0.2,0.9c-0.2,1.1-0.4,2.1-0.7,3.2c-0.8,3.5-1.9,7-3.1,10.4c-0.6,1.6-1.3,3.2-1.9,4.7
	c0,0-0.4,1-0.5,1c-0.2,0.3-0.3,0.7-0.5,1c-0.5,1-1,1.9-1.5,2.9c-1.8,3.3-3.8,6.4-6.1,9.4c-0.5,0.7-1,1.3-1.5,1.9
	c-0.1,0.1-0.2,0.2-0.2,0.3c-0.1,0.1-0.1,0.2-0.2,0.3c-0.2,0.3-0.5,0.6-0.7,0.8c-1.3,1.5-2.7,2.9-4.1,4.3
	c-5.7,5.5-10.9,9.2-17.9,12.9c-6.9,3.6-12.9,5.7-20.8,7.5c-1.8,0.4-3.7,0.7-5.5,1c-0.9,0.1-1.9,0.3-2.8,0.4
	c-0.5,0.1-0.9,0.1-1.4,0.2c-0.1,0-0.9,0.1-1.1,0.1c-3.8,0.3-7.7,0.4-11.6,0.2c-1.8-0.1-3.6-0.2-5.3-0.4c-0.9-0.1-1.9-0.2-2.8-0.3
	c-0.6-0.1-1.1-0.2-1.7-0.2c0,0-1-0.2-1.1-0.2c-3.8-0.7-7.5-1.6-11.1-2.8c-1.7-0.5-3.3-1.1-4.9-1.7c-0.9-0.3-1.7-0.7-2.5-1
	c-0.4-0.2-0.8-0.4-1.3-0.5c-0.1,0-0.9-0.4-1-0.4c-3.4-1.6-6.7-3.4-9.9-5.4c-6.7-4.2-11.4-8-16.8-13.6c-10.3-10.6-18-23.5-21.9-37.8
	c-4.3-15.8-4.2-32.6,0.2-48.2c4.2-15.2,12.1-28.8,23.6-39.2c5.6-5,11.2-8.8,18.5-11.9c0.5-0.2,1-0.4,1.5-0.6
	c-0.2,0.1-0.8,0.3,0.2-0.1c0.9-0.3,1.7-0.6,2.6-0.9c2-0.6,3.9-1.1,5.9-1.5c0.9-0.2,1.8-0.3,2.8-0.5c0.3,0,0.7-0.1,1-0.1
	c0.1,0,0.2,0,0.3,0s0.1,0,0.2,0c1.7-0.1,3.4-0.2,5.1-0.2c1.7,0,3.4,0.2,5.1,0.4c0.5,0.1,1,0.1,1.5,0.2c0.1,0,0.2,0,0.3,0
	c0.9,0.2,1.9,0.4,2.8,0.6c1.7,0.4,3.3,0.9,4.9,1.4c0.8,0.3,1.6,0.6,2.4,0.9c0.3,0.1,0.6,0.3,0.9,0.4c0.1,0.1,0.9,0.4,1.2,0.5
	s0.8,0.4,0.8,0.4c0.4,0.2,0.8,0.4,1.1,0.6c0.7,0.4,1.5,0.8,2.2,1.3c1.5,0.9,3,1.9,4.4,3c0.1,0,0.7,0.5,0.8,0.6
	c0.2,0.1,0.3,0.3,0.5,0.4c0.6,0.6,1.2,1.1,1.8,1.7c1.3,1.3,2.5,2.7,3.7,4.1c0.1,0.2,0.3,0.3,0.4,0.5c-0.2-0.2,0.5,0.7,0.6,0.8
	c0.5,0.7,0.9,1.4,1.3,2.1c0.8,1.5,1.6,3,2.2,4.5c0.2,0.6,0.6,1,1,1.4c0.2,0.6,0.6,1.2,1.1,1.7c1.9,2,5.9,2.6,7.8,0.3
	c5.9-6.9,11.8-13.8,17.7-20.7c1.9-2.3,2.5-5.5,0.3-7.8c-0.5-0.5-1.1-0.9-1.8-1.2c-11.6-13.7-28.3-22.9-45.9-26.1
	c-19.2-3.4-38.9,0.1-56,9.3c-35.2,19-54.3,59.5-51.3,98.8c2.8,36.3,23,71.5,55.1,89.5c32.4,18.2,75.4,18,106.6-2.9
	c29.5-19.9,46-56.2,41.6-91.4c-0.5-4-1.3-8-2.4-12c-0.1-0.2-0.1-0.4-0.2-0.6c4-2.9,16.3-11.6,16.4-11.9
	C-24.3,554-24.6,550.2-26.4,548.3z M-67.3,542.4c8.1,3.9,16.3,7.9,24.4,11.8c-7.3,5.2-14.5,10.5-21.8,15.7
	C-65.5,560.8-66.4,551.6-67.3,542.4z M-232.5,572.4c0.5-9.3,1.9-17.3,4.9-26.3c5.6-17,15.6-32.1,30.1-43.2c2.9-2.2,6.5-4.5,10.2-6.6
	c1.9-1,3.8-2,5.8-2.9c1.1-0.5,2.1-1,3.2-1.4c1.3-0.5,1.4-0.6,2.5-1c4.2-1.5,8.6-2.7,13-3.4c1-0.2,1.9-0.3,2.9-0.5
	c0.6-0.1,1.2-0.1,1.7-0.2c0.1,0,0.2,0,0.3,0c0,0,0.1,0,0.2,0c2.2-0.2,4.4-0.3,6.6-0.3c2.1,0,4.2,0.1,6.3,0.3c1,0.1,2.1,0.2,3.1,0.3
	c0.5,0.1,0.9,0.1,1.4,0.2c0.4,0.1,0.7,0.1,1.1,0.2c0.1,0,0.2,0,0.3,0c4.2,0.8,8.3,1.9,12.4,3.4c1.8,0.6,3.5,1.4,5.3,2.1
	c0.1,0,1,0.5,1,0.5c0.5,0.3,1,0.5,1.5,0.8c1,0.5,2,1.1,3,1.6c1.8,1,3.6,2.2,5.3,3.4c0.8,0.5,1.5,1.1,2.3,1.7c0.5,0.3,0.9,0.7,1.3,1
	c0.3,0.3,0.5,0.4,0.4,0.4c0.2,0.2,0.4,0.4,0.6,0.5c2,1.7,3.9,3.6,5.6,5.5c-3,3.5-6,7-9,10.5c-7-11.8-19.4-20.2-32.6-23.5
	c-16.3-4.1-33.3-0.8-47.5,8c-31.1,19.2-45.6,57.2-41.6,92.6c-0.7-3.8-1.3-7.9-1.5-10.7C-232.6,581.2-232.7,576.8-232.5,572.4z"/>
<path d="M59.4,526.1c-4.5-19.1-8.9-38.2-13.4-57.3c0-1.3-0.4-2.6-1.4-3.7c-1.9-2.1-5.8-2.5-7.8-0.3c-13.7,14.9-27.4,29.7-41.1,44.6
	c-2,2.2-2.4,5.5-0.3,7.8c0.9,1,2.2,1.6,3.6,1.7c0.5,0.5,1.2,0.8,1.9,1c5.9,1.4,11.9,2.8,17.8,4.2C12.5,547.4,6.3,570.7,0.2,594
	c-10.9,6-21.7,12.1-32.6,18.1c-2.3,0.1-4.6,1.4-5.1,3.8l-4.8,23c-1.4,1.3-2.7,2.6-4,3.9c-1.4,1.5,0.2,4,2.1,3
	c0.2-0.1,0.3-0.2,0.5-0.2c-1.3,6.1-2.6,12.3-3.9,18.4c-0.1,0.6-0.2,1.3-0.1,1.9c0,0.9,0.2,1.8,0.6,2.6c1.5,2.8,4.8,3.5,7.5,2.3
	c10.7-4.8,21.4-9.6,32.1-14.4c8.3,9.8,16.7,19.7,25,29.5c0,0.3-0.1,0.6-0.1,0.9c-0.3,2.9,2.5,5.8,5.3,5.7c1.9,0,3.4-0.8,4.4-2.1
	c0.4-0.2,0.8-0.5,1.1-0.8c2.1-2,2.2-5.1,0.7-7.3c1.4-14.5,2.8-29.1,4.3-43.6c1.3-1.7,1.8-4.2,0.6-6c-7.6-12-15.3-24-22.9-36l18.6-70
	c2.5,0.6,17.9,4.2,20.8,4.9c1.3,1.2,3.2,1.7,5,1.3C58.2,532.1,60.1,529.1,59.4,526.1z M9.6,510.6c1.1-1.2,2.2-2.4,3.3-3.6
	c1.1,1.7,2.2,3.4,3.3,5.1C14,511.6,11.8,511.1,9.6,510.6z M15.8,504.8c-0.1-0.2-0.3-0.4-0.4-0.5c0.5-0.5,1-1.1,1.5-1.6
	c0.3,1.8,0.7,3.6,1,5.3L15.8,504.8z M-32.2,644.3c6.1-1.2,12.3-2.4,18.4-3.7c-6.1,4.2-12.7,7.5-19.7,9.8
	C-33,648.4-32.6,646.4-32.2,644.3z M-7.8,644.4c-9,4-18,8.1-27,12.1l0.4-1.9c9.9-2.9,19.1-7.8,27.2-14.3
	C-7.4,641.7-7.6,643-7.8,644.4z M-6.5,635.5c-0.1,0-0.3,0-0.4,0c-5.7,1.1-11.4,2.3-17.1,3.4c6.1-3.1,12.2-6.1,18.3-9.2
	C-5.9,631.6-6.2,633.5-6.5,635.5z M-5,625.2c-0.5,0.1-0.9,0.3-1.4,0.4c0.5-0.3,1-0.5,1.5-0.8C-5,625-5,625.1-5,625.2z M-4.3,620.7
	c-0.3,0-0.7,0-1,0.2c-6.8,3.6-13.6,7.3-20.4,10.9c-1.3,0.4-2.5,0.8-3.8,1.2c7.9-5.9,16.5-11,25.6-14.9
	C-4.1,618.9-4.2,619.8-4.3,620.7z M-3.3,613.8C-3.4,613.8-3.4,613.8-3.3,613.8l-4.3,1.5c-0.4-0.9-1.4-1.7-2.6-1.1
	c-5,2.2-10.1,4.5-15.1,6.7c7.1-3.9,14.1-7.8,21.2-11.8c0.1,0.1,0.2,0.2,0.3,0.3c0.4,0.3,0.7,0.6,1.1,0.9l0,0L-3.3,613.8z
	 M22.5,635.4c-1.1,11.7-2.3,23.4-3.4,35.1C13.6,664,8,657.4,2.5,650.9c0-0.2,0.1-0.4,0.1-0.6c1.8-12.6,3.6-25.2,5.5-37.8
	C12.8,620.2,17.6,627.8,22.5,635.4z M37.4,480.5l0.4,1.6c-0.2-0.5-0.4-0.9-0.6-1.3C37.2,480.6,37.3,480.6,37.4,480.5z M30.4,488
	c-0.1,1.3-0.1,2.5-0.1,3.8c-0.3-0.6-0.5-1.2-0.8-1.9c-0.1-0.2-0.2-0.4-0.4-0.5L30.4,488z M22.7,513.7c-0.2-0.8-0.3-1.6-0.5-2.5
	c0.4,0.9,0.8,1.8,1.2,2.6C23.2,513.8,22.9,513.7,22.7,513.7z M20.7,498.6c0.7-0.7,1.4-1.5,2.1-2.2c0.3,2.2,0.7,4.3,1.2,6.4l0.8,5.1
	L20.7,498.6z M27.6,502.1c-0.5-3.2-1-6.3-1.5-9.5c0.1-0.1,0.1-0.1,0.2-0.2c1.5,5.9,2.9,11.8,4.4,17.7
	C29.4,507.6,28.4,504.9,27.6,502.1z M34.2,501.1c-0.5-5.8-0.5-11.6,0.2-17.3l0,0c1.6,3.4,2.8,7,3.8,10.6c-0.2,4.9-0.4,9.8-0.6,14.8
	C36.5,506.4,35.4,503.7,34.2,501.1z M44.6,518.8c0.1-2.4,0.2-4.7,0.1-7.1l1.8,7.5C45.8,519.1,45.2,518.9,44.6,518.8z"/>
<g>
	<path d="M185.5,609.9c-1,1.3,0.1,3.2,1.5,2.5c9.6-5.2,18.9-11.4,27.7-18.4c7.8-3.7,15.7-7.5,23.5-11.2c0.8-0.4,0.8-1.2,0.5-1.9
		c2.4-1.2,4.9-2.4,7.3-3.6c1.5-0.7,0.4-3-0.9-2.8c-0.6,0.1-1.2,0.2-1.8,0.3c0.7-0.7,0.7-2.1-0.4-2.6c-0.1,0-0.2-0.1-0.3-0.1
		c-0.1-0.3-0.3-0.5-0.5-0.7c-1.3-0.9-2.6-1.8-3.9-2.7c-1.9-3.6-6.1-5.1-9.3-6.6c-10.4-4.9-20.7-9.8-31.1-14.8
		c-5.9-2.8-11.7-5.6-17.6-8.3c-1.6-0.7-2.3,2.1-0.8,2.9v0.1c-0.1-0.1-0.2-0.3-0.3-0.4c-1.1-1.4-2.7,1.5-1.6,3c1,1.5,2.1,3.1,3.1,4.6
		c-0.4-0.2-0.8,0-1.2,0.3c-0.5-0.4-1-0.8-1.5-1.1c-1.3-0.9-2.6,1-1.6,2.3c5.8,8.1,11.7,16.2,17.5,24.3c-4.5,8.9-9.1,17.9-13.6,26.8
		c-0.4,0.7-0.2,1.4,0.2,1.9c-0.9,2-1.9,4-2.8,5.9c-0.6,1.4,0.5,2.8,1.7,2.2c2.8-1.5,5.5-3,8.3-4.5C187,608.2,186.2,609,185.5,609.9z
		 M182.6,545.7c1.6,0.9,3.3,1.9,4.9,2.8c-0.7,0-1.2,1-1.2,2C185.1,548.9,183.8,547.3,182.6,545.7z M193,605.5
		c0.4-0.5,0.8-0.9,1.3-1.4c1.5-0.7,3.1-1.5,4.6-2.3C196.9,603.1,195,604.3,193,605.5z M181.8,607.1l1.4-3c0.2,0.5,0.6,0.9,1,1
		c-0.2,0.2-0.5,0.3-0.7,0.5c-0.3,0.2-0.5,0.6-0.6,1C182.5,606.8,182.2,607,181.8,607.1z M186,603.5c-0.3,0.2-0.5,0.5-0.6,0.8
		c-0.1,0-0.1,0.1-0.2,0.1c0.8-1.3,1.7-2.6,2.5-3.8c0.2-0.1,0.3-0.3,0.5-0.4c3.9-1.8,7.7-3.6,11.6-5.5c-0.3,0.3-0.7,0.6-1,1l-9.1,5.9
		C188.4,602.2,187.2,602.9,186,603.5z M200.7,573.7c0,0.1,0.1,0.1,0.1,0.2c0.1,0.1,0.2,0.2,0.3,0.3c0,0,0,0.1-0.1,0.1
		C200.9,574.1,200.8,573.9,200.7,573.7z M229.7,569.1c0.1,0.2,0.2,0.5,0.4,0.6l0.5,0.4c-0.9-0.5-1.8-1-2.6-1.6v-0.1
		C228.5,568.7,229.1,568.9,229.7,569.1z M202.2,570.5c-3.7-4.7-7.4-9.3-11.1-14c11.7,6.2,23.4,12.5,35,18.7
		c-1.4,0.8-2.8,1.7-4.2,2.5c-9.1,5.1-18.2,10.3-27.3,15.4c2.8-3.6,5.3-7.6,7.6-11.9c1.1,0.6,2.3-1.5,1.5-3c0.2-0.3,0.3-0.7,0.5-1
		c0.7-1.6-0.5-3.5-1.5-2.9c-0.1-0.1-0.3-0.3-0.4-0.3C202.8,573.1,203,571.5,202.2,570.5z"/>
	<path d="M81.4,607.3c2.8,1.5,5.5,3,8.3,4.5c1.2,0.6,2.3-0.8,1.7-2.2c-0.9-2-1.9-4-2.8-5.9c0.4-0.4,0.6-1.1,0.2-1.9
		c-4.5-8.9-9.1-17.9-13.6-26.8c5.8-8.1,11.7-16.2,17.5-24.3c0.9-1.3-0.4-3.2-1.6-2.3c-0.5,0.4-1,0.7-1.5,1.1
		c-0.3-0.3-0.7-0.5-1.2-0.3c1-1.5,2.1-3.1,3.1-4.6c1-1.6-0.5-4.5-1.6-3c-0.1,0.1-0.2,0.3-0.3,0.4v-0.1c1.5-0.8,0.8-3.6-0.8-2.9
		c-5.9,2.8-11.7,5.6-17.6,8.3c-10.4,4.9-20.7,9.8-31.1,14.8c-3.2,1.5-7.4,3-9.3,6.6c-1.3,0.9-2.6,1.8-3.9,2.7
		c-0.2,0.2-0.4,0.4-0.5,0.7c-0.1,0-0.2,0.1-0.3,0.1c-1.1,0.5-1.1,1.9-0.4,2.6c-0.6-0.1-1.2-0.2-1.8-0.3c-1.3-0.2-2.4,2.1-0.9,2.8
		c2.4,1.2,4.9,2.4,7.3,3.6c-0.3,0.7-0.2,1.5,0.5,1.9c7.8,3.7,15.7,7.5,23.5,11.2c8.8,7,18,13.2,27.7,18.4c1.3,0.7,2.5-1.2,1.5-2.5
		C82.8,609,82.1,608.2,81.4,607.3z M82.7,550.5c0-1-0.4-2-1.2-2c1.6-0.9,3.3-1.9,4.9-2.8C85.2,547.3,84,548.9,82.7,550.5z
		 M70.2,601.9c1.5,0.8,3,1.6,4.6,2.3c0.4,0.5,0.8,0.9,1.3,1.4C74.1,604.3,72.1,603.1,70.2,601.9z M86.2,606.6
		c-0.1-0.4-0.3-0.8-0.6-1c-0.2-0.2-0.5-0.3-0.7-0.5c0.4-0.1,0.7-0.5,1-1l1.4,3C86.9,607,86.6,606.8,86.2,606.6z M79.4,601.6
		l-9.1-5.9c-0.3-0.3-0.7-0.6-1-1c3.9,1.8,7.7,3.6,11.6,5.5c0.2,0.1,0.3,0.3,0.5,0.4c0.8,1.3,1.7,2.6,2.5,3.8c-0.1,0-0.1-0.1-0.2-0.1
		c-0.1-0.3-0.3-0.7-0.6-0.8C81.8,602.9,80.6,602.2,79.4,601.6z M68,574.3c0,0,0-0.1-0.1-0.1c0.1-0.1,0.2-0.2,0.3-0.3
		c0-0.1,0.1-0.1,0.1-0.2C68.2,573.9,68.1,574.1,68,574.3z M41.1,568.5C41.1,568.5,41.1,568.6,41.1,568.5c-0.9,0.6-1.7,1.2-2.6,1.7
		l0.5-0.4c0.2-0.2,0.3-0.4,0.4-0.6C40,568.9,40.5,568.7,41.1,568.5z M66.8,573.9c-0.1,0.1-0.3,0.2-0.4,0.3c-1.1-0.6-2.2,1.4-1.5,2.9
		c0.2,0.3,0.3,0.7,0.5,1c-0.8,1.5,0.4,3.6,1.5,3c2.3,4.4,4.8,8.4,7.6,11.9c-9.1-5.1-18.2-10.3-27.3-15.4c-1.4-0.9-2.8-1.7-4.2-2.5
		c11.7-6.2,23.4-12.5,35-18.7c-3.7,4.7-7.4,9.3-11.1,14C66.1,571.5,66.3,573.1,66.8,573.9z"/>
	<path d="M100.2,626.6c-1.3-1-3.2,0.1-2.5,1.5c5.2,9.6,11.4,18.9,18.4,27.7c3.7,7.8,7.5,15.7,11.2,23.5c0.4,0.8,1.2,0.8,1.9,0.5
		c1.2,2.4,2.4,4.9,3.6,7.3c0.7,1.5,3,0.4,2.8-0.9c-0.1-0.6-0.2-1.2-0.3-1.8c0.7,0.7,2.1,0.7,2.6-0.4c0-0.1,0.1-0.2,0.1-0.3
		c0.3-0.1,0.5-0.3,0.7-0.5c0.9-1.3,1.8-2.6,2.7-3.9c3.6-1.9,5.1-6.1,6.6-9.3c4.9-10.4,9.8-20.7,14.8-31.1c2.8-5.9,5.6-11.7,8.3-17.6
		c0.7-1.6-2.1-2.3-2.9-0.8h-0.1c0.1-0.1,0.3-0.2,0.4-0.3c1.4-1.1-1.5-2.7-3-1.6c-1.5,1-3.1,2.1-4.6,3.1c0.2-0.4,0-0.8-0.3-1.2
		c0.4-0.5,0.8-1,1.1-1.5c0.9-1.3-1-2.6-2.3-1.6c-8.1,5.8-16.2,11.7-24.3,17.5c-8.9-4.5-17.9-9.1-26.8-13.6c-0.7-0.4-1.4-0.2-1.9,0.2
		c-2-0.9-4-1.9-5.9-2.8c-1.4-0.6-2.8,0.5-2.2,1.7c1.5,2.8,3,5.5,4.5,8.3C102,628.1,101.1,627.3,100.2,626.6z M164.4,623.7
		c-0.9,1.6-1.9,3.3-2.8,4.9c0-0.7-1-1.2-2-1.2C161.2,626.2,162.8,624.9,164.4,623.7z M104.6,634.1c0.5,0.4,0.9,0.8,1.4,1.3
		c0.7,1.5,1.5,3.1,2.3,4.6C107,638,105.8,636.1,104.6,634.1z M103,622.9l3,1.4c-0.5,0.2-0.9,0.6-1,1c-0.2-0.2-0.3-0.5-0.5-0.7
		c-0.2-0.3-0.6-0.5-1-0.6C103.4,623.6,103.2,623.2,103,622.9z M106.6,627.1c-0.2-0.3-0.5-0.5-0.8-0.6c0-0.1-0.1-0.1-0.1-0.2
		c1.3,0.8,2.6,1.7,3.8,2.5c0.1,0.2,0.3,0.3,0.4,0.5c1.8,3.9,3.6,7.7,5.5,11.6c-0.3-0.3-0.6-0.7-1-1l-5.9-9.1
		C107.9,629.5,107.3,628.3,106.6,627.1z M136.4,641.8c-0.1,0-0.1,0.1-0.2,0.1c-0.1,0.1-0.2,0.2-0.3,0.3c0,0-0.1,0-0.1-0.1
		C136.1,642,136.2,641.9,136.4,641.8z M141.1,670.8c-0.2,0.1-0.5,0.2-0.6,0.4l-0.4,0.5c0.5-0.9,1-1.8,1.6-2.6h0.1
		C141.4,669.6,141.2,670.2,141.1,670.8z M139.6,643.3c4.7-3.7,9.3-7.4,14-11.1c-6.2,11.7-12.5,23.4-18.7,35
		c-0.8-1.4-1.7-2.8-2.5-4.2c-5.1-9.1-10.3-18.2-15.4-27.3c3.6,2.8,7.6,5.3,11.9,7.6c-0.6,1.1,1.5,2.3,3,1.5c0.3,0.2,0.7,0.3,1,0.5
		c1.6,0.7,3.5-0.5,2.9-1.5c0.1-0.1,0.3-0.3,0.3-0.4C137.1,643.8,138.7,644,139.6,643.3z"/>
	<path d="M102.8,522.4c-1.5,2.8-3,5.5-4.5,8.3c-0.6,1.2,0.8,2.3,2.2,1.7c2-0.9,4-1.9,5.9-2.8c0.4,0.4,1.1,0.6,1.9,0.2
		c8.9-4.5,17.9-9.1,26.8-13.6c8.1,5.8,16.2,11.7,24.3,17.5c1.3,0.9,3.2-0.4,2.3-1.6c-0.4-0.5-0.7-1-1.1-1.5c0.3-0.3,0.5-0.7,0.3-1.2
		c1.5,1,3.1,2.1,4.6,3.1c1.6,1,4.5-0.5,3-1.6c-0.1-0.1-0.3-0.2-0.4-0.3h0.1c0.8,1.5,3.6,0.8,2.9-0.8c-2.8-5.9-5.6-11.7-8.3-17.6
		c-4.9-10.4-9.8-20.7-14.8-31.1c-1.5-3.2-3-7.4-6.6-9.3c-0.9-1.3-1.8-2.6-2.7-3.9c-0.2-0.2-0.4-0.4-0.7-0.5c0-0.1-0.1-0.2-0.1-0.3
		c-0.5-1.1-1.9-1.1-2.6-0.4c0.1-0.6,0.2-1.2,0.3-1.8c0.2-1.3-2.1-2.4-2.8-0.9c-1.2,2.4-2.4,4.9-3.6,7.3c-0.7-0.3-1.5-0.2-1.9,0.5
		c-3.7,7.8-7.5,15.7-11.2,23.5c-7,8.8-13.2,18-18.4,27.7c-0.7,1.3,1.2,2.5,2.5,1.5C101.1,523.9,102,523.2,102.8,522.4z M159.6,523.8
		c1,0,2-0.4,2-1.2c0.9,1.6,1.9,3.3,2.8,4.9C162.8,526.3,161.2,525.1,159.6,523.8z M108.3,511.3c-0.8,1.5-1.6,3-2.3,4.6
		c-0.5,0.4-0.9,0.8-1.4,1.3C105.8,515.2,107,513.2,108.3,511.3z M103.5,527.3c0.4-0.1,0.8-0.3,1-0.6c0.2-0.2,0.3-0.5,0.5-0.7
		c0.1,0.4,0.5,0.7,1,1l-3,1.4C103.2,528,103.4,527.6,103.5,527.3z M108.5,520.5l5.9-9.1c0.3-0.3,0.6-0.7,1-1
		c-1.8,3.9-3.6,7.7-5.5,11.6c-0.1,0.2-0.3,0.3-0.4,0.5c-1.3,0.8-2.6,1.7-3.8,2.5c0-0.1,0.1-0.1,0.1-0.2c0.3-0.1,0.7-0.3,0.8-0.6
		C107.3,522.9,107.9,521.7,108.5,520.5z M135.9,509.1c0,0,0.1,0,0.1-0.1c0.1,0.1,0.2,0.2,0.3,0.3c0.1,0,0.1,0.1,0.2,0.1
		C136.2,509.3,136.1,509.2,135.9,509.1z M141.6,482.2L141.6,482.2c-0.6-0.9-1.2-1.7-1.7-2.6l0.4,0.5c0.2,0.2,0.4,0.3,0.6,0.4
		C141.2,481.1,141.4,481.6,141.6,482.2z M136.3,507.9c-0.1-0.1-0.2-0.3-0.3-0.4c0.6-1.1-1.4-2.2-2.9-1.5c-0.3,0.2-0.7,0.3-1,0.5
		c-1.5-0.8-3.6,0.4-3,1.5c-4.4,2.3-8.4,4.8-11.9,7.6c5.1-9.1,10.3-18.2,15.4-27.3c0.9-1.4,1.7-2.8,2.5-4.2
		c6.2,11.7,12.5,23.4,18.7,35c-4.7-3.7-9.3-7.4-14-11.1C138.7,507.2,137.1,507.4,136.3,507.9z"/>
</g>
<path d="M434,491.6c-0.4-0.3-0.8-0.7-1.2-1c-0.3-1.2-1.4-2-2.7-2.2c-7.4-6-14.7-12.1-22.1-18.1c0-0.2,0-0.3,0-0.5
	c0-4-6.8-4.3-6.8-0.2c0,0,0,0,0,0.1c-0.6,0.7-0.8,1.7-0.7,2.7c0.3,1.7,0.5,3.4,0.8,5.1c0.2,18.2,0.3,36.3,0.5,54.5
	c-5.8-1.3-11.6-2.6-17.4-3.9c-17.8-4.7-35.6-9.5-53.4-14.2c-20.1-5.3-40.2-10.7-60.3-16c0.1-0.2,0.1-0.3,0.2-0.5
	c1.3-3.4-4-5.5-6.1-2.6c-0.3,0.4-0.6,0.9-1,1.3c-5-1.3-10.1-2.7-15.1-4L206,480.8c-0.7-0.9-1.4-1.8-2-2.8c-1-1.4-2.8-2.1-4.6-1.3
	c-0.9,0.4-1.6,1.4-1.8,2.3c-1-1.3-2.8-2-4.5-1.2c-1.5,0.7-2.4,2.8-1.4,4.3c0.4,0.5,0.8,1.1,1.1,1.6c-1.1,0.7-1.8,2-1.5,3.2
	c-1.1,1.6-0.8,4,1.7,4.6c0.9,0.2,1.8,0.4,2.6,0.6c3.9,4.1,7.9,8.2,11.8,12.2c14.1,19.8,28.2,39.6,42.3,59.4
	c2.7,3.8,5.4,7.6,8.1,11.4c-22.7,23.1-45.4,46.2-68.1,69.3c-7.5,7.6-15,15.2-22.4,22.8c-1.8,1.9-0.7,4.4,1.1,5.2
	c-0.2,1.9,1.4,4,4.1,3.6c33-6,66.1-11.9,99.1-17.9c32.9-5.9,65.8-11.9,98.8-17.8c15.2-2.7,30.5-5.5,45.7-8.2
	c3.1,4.9-0.1,77.4,2.6,84.7c0.6,1.6,82-77.5,99.4-112.8c4.1-8.3,20.2-20,23.9-28.4C542.7,575,464.6,516.7,434,491.6z M511.1,568.6
	c1.2,0.8,2.3,1.6,3.5,2.4c-2.5,4.9-5.1,9.9-7.6,14.8C508.4,580.1,509.8,574.3,511.1,568.6z M501.2,561.7c1.6,1.1,3.2,2.2,4.8,3.3
	c-0.5,0.3-1,0.9-1.3,1.6c-6.4,15.1-12.8,30.1-19.3,45.2c2.8-9.1,5.7-18.1,8.5-27.2C496.3,577,498.8,569.4,501.2,561.7z M477,535.3
	c2.5,2.1,5.1,4.2,7.6,6.3c-2.6-2-5.1-4-7.6-6C477,535.4,477,535.3,477,535.3z M473.2,555.9c1-4.3,1.9-8.6,2.7-13
	c4.5,3.6,9.2,7.1,13.8,10.6c-3.1,10.5-6.2,21-9.3,31.5c-0.5-0.8-1.1-1.7-1.6-2.5c2.4-7.3,4.8-14.5,7.2-21.8c0.9-2.8-2.1-4.5-4.4-3.9
	c0.3-1,0.6-1.9,0.9-2.9c1.2-3.9-5.1-5.7-6.5-1.9c-0.8,2.2-1.5,4.5-2.3,6.7c-0.2-0.7-0.4-1.3-0.7-2
	C473,556.5,473.1,556.2,473.2,555.9z M467.9,575.5c-5.3,15.5-10.7,31-16,46.5c0.5-5.8,1.1-11.6,2-17.3c5.4-9.6,10-19.6,13.6-29.9
	C467.7,575,467.8,575.3,467.9,575.5z M435.9,678.5c-2.2-1.9,14.7-10.3,13.3-12.7c5.1-7.8,9.9-15.8,14.3-23.9c-0.4,1.3-0.8,2.6-1.2,4
	C459.7,654.7,438.5,669.7,435.9,678.5z M444.8,648.3c0.5-0.3,1-0.8,1.3-1.4c0.3,0.2,0.7,0.3,1,0.4c-0.6,2.1-1.3,4.3-1.9,6.4
	C444.9,651.9,444.8,650.1,444.8,648.3z M455.7,642.3c0.5-1.8,1.1-3.5,1.6-5.3c0.4,0.1,0.8,0.2,1.2,0.2c-0.7,1.3-1.4,2.6-2.1,3.8
	C456.2,641.4,455.9,641.9,455.7,642.3z M466.9,526.9c-0.1,0-0.2,0-0.3,0.1c-3.1-2.6-6.2-5.3-9.3-7.9
	C460.5,521.7,463.7,524.3,466.9,526.9z M456.3,526.7c2.2,1.9,4.5,3.9,6.8,5.7c-1.4,3.8-2.7,7.7-4.1,11.5c-0.8,0.2-1.5,0.6-2,1.2
	c-0.6,0.6-1.1,1.3-1.7,1.9l2.1-9.1c0.4-1.7-0.4-3.4-2.2-3.9c-0.2-0.1-0.4-0.1-0.6-0.1L456.3,526.7z M450.8,522
	c-0.1,0.1-0.1,0.1-0.2,0.2l-3.9,4.9c-1-2.1-3.7-2.3-5.3-1.2c0.7-3.5,1.3-7,2-10.5C445.8,517.5,448.3,519.8,450.8,522z M439.7,535
	c0.3-1.7,0.6-3.4,0.9-5c0.4,1.2,0.7,2.3,1,3.5c-0.7,0.9-1.4,1.8-2.2,2.7C439.5,535.8,439.6,535.4,439.7,535z M434.4,506.9
	c0.2,0.2,0.3,0.3,0.5,0.5c-0.3,0.1-0.5,0.3-0.7,0.5C434.2,507.6,434.3,507.3,434.4,506.9z M436.9,549.9c1.6-2.1,3.3-4.1,4.9-6.2
	c-2.8,8.3-5.6,16.7-8.4,25C434.5,562.5,435.7,556.2,436.9,549.9z M420.4,531.3c1-2.1,2-4.1,3-6.2l-3.7,16.6
	c-0.3,0.2-0.6,0.4-0.9,0.7v-0.1c-0.4-3-0.8-5.9-1.3-8.9C418.9,533.4,419.9,532.5,420.4,531.3z M416.1,522.7c-0.4-3-0.8-6-1.3-8.9
	c2.2-2.6,4.3-5.1,6.5-7.7C419.6,511.6,417.8,517.2,416.1,522.7z M414.7,487.5c0-0.1,0-0.1,0-0.2c2.5,2.6,4.9,5.1,7.4,7.6
	c-2.9,3.4-5.7,6.8-8.6,10.1c-0.1-1-0.3-2-0.4-3C413.7,497.2,414.2,492.4,414.7,487.5z M411.9,484.4c-0.4,0-0.8,0-1.2,0.1
	c-0.1-0.5-0.2-1.1-0.2-1.6C410.9,483.3,411.4,483.8,411.9,484.4z M409.8,534.7c-0.3-0.1-0.6-0.1-0.8-0.2c-0.1-0.2-0.2-0.4-0.4-0.5
	c0-2.6,0-5.2-0.1-7.8C409,529,409.4,531.9,409.8,534.7z M404.6,541.9c0.3,0,0.5,0.1,0.8,0.1c2.4,0.6,4.8,1.2,7.2,1.8
	c1,0.2,1.9,0.1,2.5-0.3c0.4,1.3,2.1,1.3,3.1,0.5l-9.5,28.7c0.3-3.2,0.4-6.3,0.4-9.5c0-0.2,0.1-0.4,0.1-0.6c1.5-5,2.7-10.1,3.7-15.2
	l0,0l0,0c0.1-0.3,0.1-0.6,0.2-0.8c0.5-3-4-4.1-5.9-2.3c-0.7-0.7-1.9-1.1-2.9-1C404.3,542.8,404.4,542.4,404.6,541.9z M385.7,539.3
	c3.7,0.6,7.5,1.1,11.2,1.7c-1.6,3.6-3.1,7.2-4.7,10.8c0.2-1.5,0.3-2.9,0.5-4.4c0.4-3.5-5.8-4.5-6.6-1.1
	c-3.7,15.1-7.4,30.1-11.1,45.2c-0.5,1.2-1.1,2.4-1.6,3.7C377.5,576.5,381.6,557.9,385.7,539.3z M379.8,622.1
	c-3.9,0.8-7.9,1.6-11.8,2.4c0.5-1.1,0.9-2.1,1.4-3.2c1.2,1.2,3.1,1.7,4.6,0.2c1.6-1.6,3.2-3.3,4.7-5c-0.1,1-0.2,2-0.3,3
	C378.2,620.7,378.8,621.6,379.8,622.1z M378.1,607.1c0.9-3.6,1.8-7.3,2.7-10.9c-0.3,2.9-0.6,5.8-0.9,8.7
	C379.3,605.6,378.7,606.3,378.1,607.1z M373.5,537.3c1.8,0.3,3.6,0.6,5.4,0.9c-3.8,13.6-7.5,27.3-11.3,40.9
	C369.6,565.1,371.6,551.2,373.5,537.3z M363.1,531.5c0.9,0.2,1.7,0.4,2.6,0.6C364.8,531.9,364,531.8,363.1,531.5L363.1,531.5z
	 M362.4,535.3c1.5,0.3,3,0.6,4.4,0.8L355,574.2c1.5-8,3-16,4.5-24C360.6,545.2,361.5,540.2,362.4,535.3z M361,578
	c-2.3,16.4-4.7,32.8-7,49.3l-8.8,1.7C350.5,612,355.7,595,361,578z M348.9,527.9c2.4,0.6,4.8,1.2,7.1,1.8c-0.1,0.2-0.1,0.4-0.2,0.5
	c-2.4-0.5-4.8-1-7.2-1.5C348.8,528.5,348.9,528.2,348.9,527.9z M347.9,532.4c2.3,0.5,4.6,1,6.9,1.4c-0.2,0.8-0.5,1.5-0.7,2.3
	c-1.8-0.7-4.2-0.3-4.7,1.8c-5.1,19.4-10.1,38.9-15.2,58.3c-0.3,0.6-0.6,1.2-0.9,1.8c3.6-15.9,7.1-31.9,10.7-47.8L347.9,532.4z
	 M339.1,525.5l3.2,0.8c-0.1,0.4-0.2,0.7-0.3,1.1c-1-0.2-2.1-0.5-3.1-0.7L339.1,525.5z M335.4,545.8c0.9-5.2,1.9-10.3,2.8-15.5
	c0.9,0.2,1.8,0.4,2.8,0.6l-8.1,28.4L335.4,545.8z M346.2,585.1c-1.4,7.3-2.7,14.6-4.1,21.9c-1.5,7.8-2.9,15.7-4.4,23.5
	c-1.2,0.2-2.5,0.5-3.7,0.7c-0.6,0.1-1.3,0.3-1.9,0.4C336.8,616.1,341.5,600.6,346.2,585.1z M291.7,513.6c0.1,0,0.2,0,0.2,0.1
	c11.7,2.9,23.3,5.8,35,8.8c-0.2,0.4-0.3,0.9-0.5,1.3c-6.2-1.5-12.4-3.1-18.5-4.8c-0.2-0.1-0.4-0.2-0.6-0.3c-0.5-0.2-1-0.3-1.6-0.3
	c-4.8-1.3-9.5-2.7-14.2-4.1C291.6,514,291.6,513.8,291.7,513.6z M321.1,633.6c0.1,0.1,0.3,0.1,0.4,0.1c-3.2,0.6-6.4,1.3-9.6,1.9
	c1.9-1.8,3.8-3.6,5.6-5.4c0.6,0,1.3-0.2,1.8-0.6c0,0.1,0,0.1,0,0.2C318.9,631.3,319.5,632.9,321.1,633.6z M318.1,603.8
	c-1.2,6.8-2.5,13.5-3.7,20.3c-1.8,1.9-3.6,3.7-5.5,5.5c0.9-4,1.8-8,2.7-11.9l10.3-34.7C320.6,589.9,319.3,596.8,318.1,603.8z
	 M298.9,638.2c-2.6,0.5-5.2,1-7.8,1.5c4.4-12.2,8.9-24.3,13.3-36.5c1.6-2.8,3.2-5.6,4.8-8.4c-1.3,5.3-2.6,10.7-4,16
	c-2.1,8.6-4.3,17.2-6.4,25.8C298.8,637.3,298.8,637.8,298.9,638.2z M300.5,520.7c0.6,0.2,1.2,0.3,1.7,0.5l-4.9,8.8
	c1-2.5,2.1-5.1,3.1-7.6C300.6,521.9,300.6,521.3,300.5,520.7z M306.3,578.6c1.8-7,3.7-14,5.5-20.9c2.3-8.6,4.5-17.1,6.8-25.7
	c1-4-4.8-5.6-6.5-1.9c-3.8,8.6-7.6,17.2-11.4,25.8c2.7-10.9,5.5-21.8,8.2-32.8c5.4,1.4,10.8,2.8,16.2,4.1
	C318.9,544.3,312.6,561.5,306.3,578.6z M290.8,518c1.4,0.4,2.8,0.8,4.2,1.2c-0.4,0.4-0.8,0.8-1,1.4c-2.1,4.3-4.2,8.6-6.2,12.9
	C288.8,528.3,289.8,523.1,290.8,518z M282.2,515.4c0.1,0,0.1,0,0.2,0.1c-0.2,0.4-0.4,0.7-0.6,1.1
	C281.9,516.1,282.1,515.7,282.2,515.4z M274.9,643c-1.5,0.3-3,0.6-4.5,0.9c0.2-0.2,0.4-0.5,0.6-0.9c3.7-8.1,7.4-16.2,11.1-24.3
	c-2.3,7.6-4.7,15.3-7,22.9C274.9,642.1,274.8,642.6,274.9,643z M266.1,644.8c-4.8,0.9-9.5,1.9-14.3,2.8c0.2-0.4,0.4-0.7,0.6-1.1
	c1.6,0.9,4.1,0.6,5-1.6c3.1-7.5,6.2-15.1,9.4-22.6c3-5,5.9-10,8.9-15c-3.7,11.3-7.5,22.6-11.2,33.8
	C263.9,642.9,264.8,644.2,266.1,644.8z M258.8,599.8c0.4-1.3,0.8-2.6,1.2-3.9c0,0,0,0,0.1,0c0.3-0.2,0.6-0.4,1-0.6
	C260.3,596.7,259.6,598.3,258.8,599.8z M266.5,575.7c0.4-0.4,0.8-0.8,1.2-1.2c0.4,0.5,0.7,1,1.1,1.5c-0.4,0.4-0.8,0.7-1.3,1.1
	C267.1,576.6,266.8,576.1,266.5,575.7z M271.4,591.3c0.3-1.1,0.6-2.2,0.8-3.3c0.4-0.2,0.7-0.4,1.1-0.7
	C272.7,588.7,272,590,271.4,591.3z M271.4,549.9l9.8-18.3c-1.7,8.7-3.4,17.4-5.2,26.1c-0.3,1.6,0.3,2.7,1.3,3.4
	c0,0.1-0.1,0.1-0.1,0.2c-3.2-3.3-6.4-6.7-9.6-10C269.1,551.7,270.6,551.4,271.4,549.9z M264,541.7c2-3.2,4-6.3,6-9.5
	c-1.5,5-3.1,10.1-4.6,15.1c-0.1,0.5-0.2,0.9-0.1,1.3c-1.9-2-3.8-3.9-5.6-5.9C261.1,543.4,263,543.3,264,541.7z M257.9,539
	c-0.2,0.7-0.2,1.3,0,1.9c-1-1-2-2-2.9-3.1c0.4-0.2,0.7-0.5,1-1c1.9-3,3.9-5.9,5.8-8.9C260.5,531.7,259.2,535.4,257.9,539z
	 M252.8,505.5c1.1,0.4,2.2,0.8,3.3,1.2c-1.9,2.6-3.7,5.2-5.6,7.8C251.3,511.5,252,508.5,252.8,505.5z M255.8,518.5
	c-1.8,4.9-3.6,9.7-5.4,14.6c-1-1-1.9-2-2.9-3C250.3,526.2,253,522.3,255.8,518.5z M229.3,503.3c-1.6-1.8-5.1-1.6-5.9,0.7l-1.1-1.5
	c-0.8-1-1.5-2.1-2.3-3.1l-1.8-2.4c4.6,1,9.1,2,13.7,3.1C231,501.2,230.1,502.2,229.3,503.3z M239.9,501.9c1.5,0.3,3.1,0.7,4.6,1
	c-2.3,2.6-4.7,5.2-7,7.9C238.3,507.9,239.1,504.9,239.9,501.9z M243.8,513.5c-0.8,3.3-1.7,6.7-2.5,10c-1.1-1.2-2.2-2.3-3.3-3.5
	C239.9,517.9,241.9,515.7,243.8,513.5z M238.4,536.2c1.1,1.2,2.3,2.3,3.4,3.5c4.3,5.7,8.5,11.4,12.8,17.2c3.1,4.1,6.1,8.2,9.2,12.3
	l-1.1,1.1C254.5,558.9,246.5,547.5,238.4,536.2z M261.8,580.4c0.2,0.3,0.5,0.6,0.7,1c-3,2.4-6,4.9-8.9,7.5
	C256.3,586,259,583.2,261.8,580.4z M239.7,616.7c0.6-2.4,1.2-4.8,1.6-7.3c2.2-1.7,4.5-3.4,6.8-5c-3.5,7.7-7.1,15.5-10.6,23.2
	C238.2,623.9,238.9,620.3,239.7,616.7z M238.9,640.4c0.3,2.7,4.7,4.4,6.2,1.5c4.3-8.6,8.6-17.1,12.9-25.7c-0.4,1.7-0.9,3.4-1.3,5.1
	c-4.6,9.4-9.2,18.7-13.8,28.1c-3,0.6-5.9,1.2-8.9,1.8C235.6,647.6,237.2,644,238.9,640.4z M230.5,619.9c0.7-0.7,1.3-1.4,2-2.1
	c-2.1,7-5.1,13.8-8.9,20.1l1.3-5.3c0.5-1.9-0.6-3.3-2-3.8C225.4,625.9,227.9,622.8,230.5,619.9z M227,645l-1.6,7.9
	c-1.7,0.3-3.3,0.7-5,1C222.7,651,224.9,648.1,227,645z M204.2,653.6c0,1.1,0.1,2.2,0.1,3.3c-0.9,0.2-1.8,0.3-2.7,0.5
	C202.4,656.1,203.3,654.8,204.2,653.6z M200.5,645.3c-3.4,4.6-6.8,9.3-10,14c-1.2,0.2-2.5,0.4-3.7,0.7
	C191.3,655,195.8,650.1,200.5,645.3z M179.9,668.2c0.2-0.2,0.4-0.4,0.5-0.6c3.6-0.7,7.2-1.3,10.9-2c0.6,0.2,1.2,0.2,1.8,0.1
	l12.4-2.5c0.1,0.1,0.3,0.2,0.4,0.3C197.2,665.1,188.5,666.7,179.9,668.2z M207.8,648.5c2-2.8,4-5.5,6.1-8.2c-1.4,3-2.8,5.9-4.2,8.9
	C209.1,648.8,208.5,648.6,207.8,648.5z M226.8,659.8c-5.4,1-10.9,2-16.3,2.9c0.1-0.2,0.3-0.3,0.4-0.5l5.1-1
	c9.8-1.8,19.6-3.5,29.5-5.3c0.2,0,0.5-0.1,0.7-0.1c9.3-1.7,18.6-3.3,27.9-5c2.7-0.5,5.4-1,8.2-1.5c0.1,0.2,0.3,0.3,0.5,0.4
	L226.8,659.8z M283.3,511.7c0.3,0.1,0.7,0.1,1,0.2c0,0.1-0.1,0.1-0.1,0.2C283.9,512,283.6,511.9,283.3,511.7L283.3,511.7z
	 M296.5,545c-2.4,9.6-4.8,19.1-7.2,28.7c-1.9-1.9-3.7-3.9-5.6-5.8C288,560.3,292.3,552.6,296.5,545z M325.6,642
	c-12.6,2.3-25.2,4.5-37.8,6.8c0.1-0.1,0.1-0.2,0.2-0.4c0-0.1,0-0.1,0.1-0.2c18.9-3.4,37.8-6.8,56.7-10.2c10.6-1.8,21.2-3.5,31.8-5.3
	l4.2-0.7L325.6,642z M389.9,620.1c-1.8,0.3-3.5,0.7-5.3,1c0.1-0.2,0.2-0.4,0.2-0.6c1.4-5.8,2.9-11.6,4.3-17.4
	c1.8-2.6,3.6-5.2,5.2-7.9c-1.7,7.3-3.5,14.5-5.2,21.8C389,618.2,389.2,619.3,389.9,620.1z M397.8,574.4c-0.9,2.2-1.9,4.4-3,6.5
	c1.4-5.6,2.8-11.3,4.2-16.9C398.6,567.4,398.2,570.9,397.8,574.4z M406.3,616.5c0,0.1,0,0.2,0,0.3c-1.8,0.4-3.7,0.7-5.5,1.1
	c3.5-10.6,7-21.2,10.5-31.8C409.7,596.3,408,606.4,406.3,616.5z M422.3,591.3c-1.4,7.6-2.9,15.3-4.3,22.9c0,0.1,0,0.2,0,0.3
	c-1.5,0.3-2.9,0.6-4.4,0.9c3.9-13.2,7.8-26.4,11.6-39.6L422.3,591.3z M431.7,603.3c-0.9,4.2-1.7,8.4-2.6,12.6
	c-0.2-1.6-1.5-3.1-3.6-2.9c3.6-10.6,7.2-21.2,10.7-31.9C434.8,588.5,433.3,595.9,431.7,603.3z M436.4,630.7c2-2.5,3.9-5.1,5.8-7.7
	c-0.1,0.3-0.2,0.6-0.2,0.9c-1.1,4.3-2.1,8.7-2.9,13.1C437.9,635.1,436.9,633,436.4,630.7z M431.6,688.3c-0.7-2.3-1.5-4.6-2.2-6.9
	c1.2,1.2,2.5,2.4,3.9,3.4C432.8,685.9,432.2,687.1,431.6,688.3z M442,694.8c1.1-2.7,2.3-5.3,3.5-8c0.4,0.4,0.9,0.7,1.4,0.9
	C445.3,690.1,443.7,692.4,442,694.8z M476.9,596.4c-3.6,9.6-7.6,19-12.1,28.3c3.8-11.4,7.5-22.8,11.3-34.2c0.6,0.8,1.2,1.7,1.8,2.5
	C477.6,594.1,477.3,595.3,476.9,596.4z"/>
<g>
	<path d="M569.8,701.3c-0.4-5.8-0.7-42.9-1.1-48.7c-0.2-3.5-2.9-7.1-7.1-7c-3.7,0-7.9,2.7-7.7,6.5c0.4,5.8,0.7,42.9,1.1,48.7
		c0.2,3.5,2.9,7.1,7.1,7C565.9,707.8,570.1,705.1,569.8,701.3z"/>
	<path d="M566.8,636.3c-0.4-5.8-0.7-11.5-1.1-17.3c-0.2-3.5-2.9-7.1-7.1-7c-3.7,0-7.9,2.7-7.7,6.5c0.4,5.8,0.7,11.5,1.1,17.3
		c0.2,3.5,2.9,7.1,7.1,7C562.8,642.8,567,640.1,566.8,636.3z"/>
	<path d="M565.3,598.7c-0.3-3.7-0.7-7.5-1-11.2c-0.2-1.9-0.5-3.4-2-4.9c-1.2-1.2-3.3-2.2-5.1-2.2c-3.6,0-8,2.7-7.7,6.5
		c0.3,3.7,0.7,7.5,1,11.2c0.2,1.9,0.5,3.4,2,4.9c1.2,1.2,3.3,2.2,5.1,2.2C561.3,605.2,565.7,602.5,565.3,598.7z"/>
	<path d="M565.6,567.2c-0.4-4.1-0.7-8.1-1.1-12.2c-0.3-3.5-2.8-7.1-7.1-7c-3.6,0-8,2.7-7.7,6.5c0.4,4.1,0.7,8.1,1.1,12.2
		c0.3,3.5,2.8,7.1,7.1,7C561.6,573.7,565.9,571,565.6,567.2z"/>
	<path d="M556.3,513.9c-4,0-7.6,2.7-7.7,6.5c-0.1,5.4-0.2,10.8-0.3,16.3c-0.1,3.5,3.1,7,7.1,7s7.6-2.7,7.7-6.5
		c0.1-5.4,0.2-10.8,0.3-16.3C563.5,517.4,560.3,513.9,556.3,513.9z"/>
	<path d="M562.1,482.4c-3.9-1-8,0.8-9.3,4.4c-1.5,4.1-3,8.1-4.4,12.2c-1.2,3.4,1,7.6,4.8,8.5c3.9,1,8-0.8,9.3-4.4
		c1.5-4.1,3-8.1,4.4-12.2C568.2,487.6,565.9,483.4,562.1,482.4z"/>
	<path d="M590.1,459.8c-3-2.7-7.2-2.7-10.4-0.3c-4.1,3.1-8.1,6.1-12.2,9.2c-3,2.3-3.1,7.1-0.4,9.6c3,2.7,7.2,2.7,10.4,0.3
		c4.1-3.1,8.1-6.1,12.2-9.2C592.7,467.1,592.8,462.2,590.1,459.8z"/>
	<path d="M631.1,461c0.1-3.6-2.7-7-6.9-7.2c-6.1-0.3-12.2-0.6-18.3-1c-3.9-0.2-7.8,2.6-7.9,6.3c-0.1,3.6,2.7,7,6.9,7.2
		c6.1,0.3,12.2,0.6,18.3,1C627,467.5,631,464.7,631.1,461z"/>
	<path d="M660.8,472.9c-4.5-3.3-9-6.5-13.5-9.8c-3-2.2-7.9-2.3-10.4,0.7c-2.4,2.8-2.5,7.2,0.8,9.6c4.5,3.3,9,6.5,13.5,9.8
		c3,2.2,7.9,2.3,10.4-0.7C664,479.7,664.1,475.3,660.8,472.9z"/>
	<path d="M678.9,505.9c-1.1-5.4-2.2-10.8-3.3-16.3c-0.7-3.5-5.2-6-8.9-5c-4,1-6.2,4.4-5.5,8.2c1.1,5.4,2.2,10.8,3.3,16.3
		c0.7,3.5,5.2,6,8.9,5C677.5,513,679.7,509.6,678.9,505.9z"/>
	<path d="M684.9,538.2l-1-12.2c-0.3-3.5-2.8-7.1-7.1-7c-3.6,0-8,2.7-7.7,6.5l1,12.2c0.3,3.5,2.8,7.1,7.1,7
		C680.8,544.7,685.2,542,684.9,538.2z"/>
	<path d="M686.6,572c-0.7-5.1-1.4-10.2-2.2-15.3c-0.5-3.5-5.3-6-8.9-5c-4.2,1.1-6,4.4-5.5,8.2c0.7,5.1,1.4,10.2,2.2,15.3
		c0.5,3.5,5.3,6,8.9,5C685.3,579.1,687.1,575.8,686.6,572z"/>
	<path d="M689,606.4l-1.2-12.2c-0.2-1.9-0.5-3.4-2-4.9c-1.2-1.2-3.3-2.2-5.1-2.2c-3.6,0-8,2.7-7.7,6.5l1.2,12.2
		c0.2,1.9,0.5,3.4,2,4.9c1.2,1.2,3.3,2.2,5.1,2.2C684.9,612.9,689.3,610.1,689,606.4z"/>
	<path d="M680.9,620.7c-3.9,0-7.7,2.7-7.7,6.5v15.3c0,3.5,3,7.1,7.1,7c3.9,0,7.7-2.7,7.7-6.5v-15.3C688,624.2,685,620.7,680.9,620.7
		z"/>
	<path d="M679.6,652.2c-4.2,0-7.2,2.7-7.7,6.5c-0.7,6.4-0.7,32.2-1.4,38.6c-0.4,3.5,3.3,7,7.1,7c4.2,0,7.2-2.7,7.7-6.5
		c0.7-6.4,0.7-32.2,1.4-38.6C687.1,655.7,683.4,652.2,679.6,652.2z"/>
	<path d="M716.4,668.9c-2.6-2.3-7.8-3.2-10.4-0.3c-9.1,9.9-18.1,19.7-27.2,29.6c-10.1-6.4-20.1-12.8-30.2-19.3
		c-3.2-2-8.3-1-10.2,2.1c-2.1,3.3-1.1,7.2,2.3,9.4c10.8,6.9,21.5,13.7,32.3,20.6c0.3,0.6,0.7,1.1,1.1,1.5c2.6,2.3,7.8,3.2,10.4,0.3
		c10.5-11.4,21-22.8,31.5-34.2c1.3-1.4,2.3-2.8,2.4-4.7C718.4,672.1,717.7,670.1,716.4,668.9z"/>
</g>
<g>
	<g>
		<g>
			<path d="M205,744.7c0.5,0,1,0.5,1,0.5l-8.9,19c-1,0-3.3,0.1-3.9,0.1c-0.5,0-1-0.5-1-0.5l-3-19c1.8,0,4.2-0.1,4.8-0.1
				c0.5,0,1,0.5,1,0.5l0.9,9.3c0.1,0.8,0.1,1.9,0.1,3.1c0.3-1.3,0.6-2.5,1-3.3l3.7-9.4C202.4,744.8,204.4,744.7,205,744.7L205,744.7
				z"/>
		</g>
		<g>
			<path d="M214.2,754.1c0,2.1-1.2,3.4-4,4l-3,0.6c0.2,1.3,1.1,1.9,2.4,1.9c1.7,0,2.8-1.3,2.8-1.3s0.8,0.5,0.8,1.4
				c0,1.7-2.6,3.6-5.7,3.6c-3.1,0-5.2-2-5.2-5.3c0-3.8,2.7-9.1,7.6-9.1C212.6,750.1,214.2,751.7,214.2,754.1L214.2,754.1z
				 M209.1,756.1c0.6-0.2,0.8-0.7,0.8-1.3s-0.2-1.4-0.9-1.4c-1.2,0-1.7,1.9-1.9,3.4L209.1,756.1z"/>
		</g>
		<g>
			<path d="M222.4,750.1c2.4,0,4.3,1.3,4.3,3c0,2.1-2.6,2.9-2.6,2.9s-0.7-2.3-2.5-2.3c-1.2,0-1.8,1.2-1.8,3.7c0,2.3,0.6,3.3,2.1,3.3
				s2.5-1,2.5-1s0.9,0.5,0.9,1.4c0,1.7-2.5,3.4-5.5,3.4c-3.2,0-5.1-2-5.1-5.3C214.6,755.3,217.4,750.1,222.4,750.1L222.4,750.1z"/>
		</g>
		<g>
			<path d="M234.1,747c0.6,0,1,0.5,1,0.5l-0.5,2.9h3.1l-0.7,2.2c-0.2,0.7-0.6,1.1-1.3,1.1h-1.6l-0.9,5.7c-0.1,0.9,0.1,1.3,0.7,1.3
				c0.6,0,1.1-0.3,1.1-0.3s0.9,0.5,0.9,1.4c0,1.4-2,2.8-4.5,2.8c-2.6,0-3.7-1.6-3.3-4.5l1-6.3h-1.6l0.7-2.3c0.2-0.6,0.7-1,1.3-1h0.8
				l1-2.7C232.5,747.4,233.6,747,234.1,747L234.1,747z"/>
		</g>
		<g>
			<path d="M249,754.1c0,2.1-1.2,3.4-4,4l-3,0.6c0.2,1.3,1.1,1.9,2.4,1.9c1.7,0,2.8-1.3,2.8-1.3s0.9,0.5,0.9,1.4
				c0,1.7-2.6,3.6-5.7,3.6c-3.1,0-5.2-2-5.2-5.3c0-3.8,2.7-9.1,7.6-9.1C247.4,750.1,249,751.7,249,754.1L249,754.1z M243.9,756.1
				c0.6-0.2,0.8-0.7,0.8-1.3s-0.2-1.4-0.9-1.4c-1.2,0-1.7,1.9-1.9,3.4L243.9,756.1z"/>
		</g>
		<g>
			<path d="M261.4,754.1c0,2.1-1.2,3.4-4,4l-3,0.6c0.2,1.3,1.1,1.9,2.4,1.9c1.7,0,2.8-1.3,2.8-1.3s0.9,0.5,0.9,1.4
				c0,1.7-2.6,3.6-5.7,3.6c-3.1,0-5.2-2-5.2-5.3c0-3.8,2.7-9.1,7.6-9.1C259.7,750.1,261.4,751.7,261.4,754.1L261.4,754.1z
				 M256.3,756.1c0.6-0.2,0.8-0.7,0.8-1.3s-0.2-1.4-0.9-1.4c-1.2,0-1.7,1.9-1.9,3.4L256.3,756.1z"/>
		</g>
		<g>
			<path d="M271.5,759.2c0,0,1,1,1,2.5c0,2.1-1.8,2.7-3.3,2.7c-2,0-3.4-0.9-4.9-1.4c-0.4,0.5-0.8,1-1.2,1.4c0,0-2.2-0.1-2.2-1.6
				c0-1.8,3.1-5,6.4-8.5c-0.4-0.1-0.7-0.1-1.1-0.1c-1.9,0-2.6,0.9-2.6,0.9s-1-1.1-0.9-2.5c0.1-2,2-2.5,3.5-2.5
				c1.6,0,2.7,0.6,3.9,1.1l0.9-1.1c0,0,2.2,0.1,2.2,1.6c0,1.8-3,4.9-6.2,8.3c0.7,0.2,1.3,0.3,1.9,0.3
				C270.7,760.3,271.5,759.2,271.5,759.2L271.5,759.2z"/>
		</g>
		<g>
			<path d="M285.8,763.2c-0.8,4.8-4.1,7.3-8.3,7.3c-2.7,0-4.7-1.4-4.7-3c0-1.1,0.9-1.6,0.9-1.6s0.9,0.8,2.7,0.8c1.7,0,4-0.7,4.4-3.3
				l0.3-2c-1.1,1.6-2.6,3-4.5,3c-2.1,0-3.1-1.7-2.5-5.3l0.6-3.8c0.4-2.3,0.5-4.3,0.5-4.3c1.5-0.3,3.5-1,4.2-1c0.5,0,1,0.5,1,0.5
				l-0.8,4.8l-0.7,4.4c-0.1,0.4,0,0.6,0.4,0.6c1.8,0,2.8-5.1,2.8-5.1c0.4-2.3,0.5-4.3,0.5-4.3c1.5-0.3,3.5-1,4.2-1
				c0.5,0,1,0.5,1,0.5l-0.8,4.8L285.8,763.2z"/>
		</g>
	</g>
	<g>
		<path d="M81.1,750.9h4.8c1.1,0,1.9,0.1,2.5,0.2c0.8,0.2,1.4,0.6,1.9,1.2c0.5,0.6,0.9,1.3,1.2,2.1c0.3,0.8,0.4,1.8,0.4,3
			c0,1.1-0.1,2-0.4,2.7c-0.3,0.9-0.8,1.7-1.4,2.3c-0.5,0.4-1.1,0.8-1.8,1c-0.6,0.2-1.3,0.3-2.3,0.3h-4.9L81.1,750.9L81.1,750.9z
			 M83.7,753v8.5h1.9c0.7,0,1.3,0,1.6-0.1c0.4-0.1,0.8-0.3,1.1-0.5c0.3-0.3,0.5-0.7,0.7-1.2c0.2-0.6,0.3-1.4,0.3-2.4
			s-0.1-1.8-0.3-2.3s-0.4-0.9-0.7-1.2c-0.3-0.3-0.7-0.5-1.2-0.6c-0.4-0.1-1.1-0.1-2.1-0.1h-1.3V753z"/>
		<path d="M99.1,760.8l2.5,0.4c-0.3,0.9-0.8,1.6-1.5,2.1s-1.5,0.7-2.6,0.7c-1.6,0-2.8-0.5-3.6-1.6c-0.6-0.8-0.9-1.9-0.9-3.2
			c0-1.5,0.4-2.8,1.2-3.6c0.8-0.9,1.8-1.3,3.1-1.3c1.4,0,2.5,0.5,3.3,1.4s1.2,2.3,1.2,4.2h-6.3c0,0.7,0.2,1.3,0.6,1.7
			s0.9,0.6,1.4,0.6c0.4,0,0.7-0.1,1-0.3C98.8,761.6,99,761.2,99.1,760.8z M99.2,758.3c0-0.7-0.2-1.3-0.6-1.6
			c-0.4-0.4-0.8-0.6-1.3-0.6s-1,0.2-1.3,0.6c-0.4,0.4-0.5,0.9-0.5,1.6H99.2z"/>
		<path d="M102.5,761.1l2.5-0.4c0.1,0.5,0.3,0.8,0.6,1.1c0.3,0.2,0.8,0.4,1.4,0.4s1.1-0.1,1.4-0.4c0.2-0.2,0.3-0.4,0.3-0.7
			c0-0.2-0.1-0.3-0.2-0.5c-0.1-0.1-0.4-0.2-0.8-0.3c-2-0.4-3.3-0.8-3.8-1.2c-0.7-0.5-1.1-1.2-1.1-2.1c0-0.8,0.3-1.5,1-2
			c0.6-0.6,1.6-0.8,3-0.8c1.3,0,2.2,0.2,2.8,0.6s1,1,1.3,1.8l-2.3,0.4c-0.1-0.4-0.3-0.6-0.6-0.8c-0.3-0.2-0.7-0.3-1.2-0.3
			c-0.7,0-1.1,0.1-1.4,0.3c-0.2,0.1-0.3,0.3-0.3,0.5s0.1,0.3,0.2,0.4c0.2,0.2,1,0.4,2.3,0.7s2.2,0.7,2.8,1.1
			c0.5,0.4,0.8,1.1,0.8,1.8c0,0.9-0.4,1.6-1.1,2.2c-0.7,0.6-1.8,0.9-3.2,0.9c-1.3,0-2.3-0.3-3-0.8
			C103.2,762.7,102.7,762,102.5,761.1z"/>
		<path d="M113,753.1v-2.3h2.5v2.3H113z M113,763.7v-9.3h2.5v9.3H113z"/>
		<path d="M117.4,764.4l2.8,0.3c0,0.3,0.2,0.6,0.3,0.7c0.2,0.2,0.6,0.3,1.1,0.3c0.6,0,1.1-0.1,1.5-0.3c0.2-0.1,0.4-0.3,0.5-0.6
			c0.1-0.2,0.1-0.6,0.1-1.1v-1.4c-0.7,1-1.7,1.5-2.8,1.5c-1.3,0-2.2-0.5-3-1.6c-0.6-0.8-0.9-1.9-0.9-3.1c0-1.6,0.4-2.8,1.1-3.6
			c0.8-0.8,1.7-1.2,2.8-1.2c1.2,0,2.1,0.5,2.9,1.5v-1.3h2.3v8.4c0,1.1-0.1,1.9-0.3,2.5c-0.2,0.5-0.4,1-0.8,1.3
			c-0.3,0.3-0.8,0.6-1.3,0.7c-0.5,0.2-1.2,0.3-2.1,0.3c-1.6,0-2.7-0.3-3.4-0.8c-0.7-0.5-1-1.2-1-2.1
			C117.4,764.6,117.4,764.5,117.4,764.4z M119.6,758.9c0,1,0.2,1.7,0.6,2.2s0.9,0.7,1.4,0.7c0.6,0,1.1-0.2,1.5-0.7s0.6-1.2,0.6-2.1
			c0-1-0.2-1.7-0.6-2.2s-0.9-0.7-1.5-0.7s-1.1,0.2-1.5,0.7C119.8,757.2,119.6,757.9,119.6,758.9z"/>
		<path d="M136.7,763.7h-2.5V759c0-1-0.1-1.7-0.2-2s-0.3-0.5-0.5-0.7s-0.5-0.2-0.9-0.2s-0.8,0.1-1.2,0.4c-0.3,0.2-0.6,0.5-0.7,0.9
			s-0.2,1.1-0.2,2.1v4.2H128v-9.3h2.3v1.4c0.8-1.1,1.8-1.6,3.1-1.6c0.5,0,1,0.1,1.5,0.3s0.8,0.4,1,0.8c0.2,0.3,0.4,0.7,0.5,1
			c0.1,0.4,0.1,0.9,0.1,1.7v5.7H136.7z"/>
		<path d="M144.3,760.8l2.5,0.4c-0.3,0.9-0.8,1.6-1.5,2.1s-1.5,0.7-2.6,0.7c-1.6,0-2.8-0.5-3.6-1.6c-0.6-0.8-0.9-1.9-0.9-3.2
			c0-1.5,0.4-2.8,1.2-3.6c0.8-0.9,1.8-1.3,3.1-1.3c1.4,0,2.5,0.5,3.3,1.4s1.2,2.3,1.2,4.2h-6.2c0,0.7,0.2,1.3,0.6,1.7
			s0.9,0.6,1.4,0.6c0.4,0,0.7-0.1,1-0.3C144,761.6,144.2,761.2,144.3,760.8z M144.4,758.3c0-0.7-0.2-1.3-0.6-1.6
			c-0.4-0.4-0.8-0.6-1.3-0.6s-1,0.2-1.3,0.6c-0.4,0.4-0.5,0.9-0.5,1.6H144.4z"/>
		<path d="M157.1,763.7h-2.3v-1.4c-0.4,0.5-0.8,0.9-1.3,1.2s-1,0.4-1.6,0.4c-1.1,0-2-0.4-2.8-1.3c-0.8-0.9-1.1-2.1-1.1-3.6
			c0-1.6,0.4-2.8,1.1-3.6c0.7-0.8,1.7-1.2,2.8-1.2c1,0,1.9,0.4,2.7,1.3v-4.6h2.5L157.1,763.7L157.1,763.7z M150.5,758.9
			c0,1,0.1,1.7,0.4,2.2c0.4,0.6,1,1,1.7,1c0.6,0,1.1-0.2,1.5-0.7s0.6-1.2,0.6-2.2c0-1.1-0.2-1.8-0.6-2.3c-0.4-0.5-0.9-0.7-1.5-0.7
			s-1.1,0.2-1.5,0.7C150.7,757.3,150.5,758,150.5,758.9z"/>
		<path d="M163.7,763.7v-12.9h2.5v4.6c0.8-0.9,1.7-1.3,2.7-1.3c1.1,0,2.1,0.4,2.8,1.2s1.1,2,1.1,3.5c0,1.6-0.4,2.8-1.1,3.7
			c-0.8,0.9-1.7,1.3-2.8,1.3c-0.5,0-1.1-0.1-1.6-0.4c-0.5-0.3-1-0.7-1.3-1.2v1.4h-2.3V763.7z M166.2,758.9c0,1,0.2,1.7,0.5,2.1
			c0.4,0.7,1,1,1.7,1c0.5,0,1-0.2,1.4-0.7s0.6-1.2,0.6-2.2c0-1.1-0.2-1.8-0.6-2.3c-0.4-0.5-0.9-0.7-1.5-0.7s-1.1,0.2-1.5,0.7
			C166.4,757.2,166.2,757.9,166.2,758.9z"/>
		<path d="M173.3,754.4h2.6l2.2,6.6l2.2-6.6h2.6l-3.3,9L179,765c-0.2,0.5-0.4,1-0.6,1.2c-0.2,0.3-0.4,0.5-0.7,0.7s-0.6,0.3-0.9,0.4
			c-0.4,0.1-0.8,0.1-1.3,0.1s-0.9,0-1.4-0.1l-0.2-1.9c0.4,0.1,0.7,0.1,1,0.1c0.6,0,1-0.2,1.3-0.5s0.5-0.8,0.6-1.3L173.3,754.4z"/>
	</g>
</g>
</svg>
