<?xml version="1.0" encoding="iso-8859-1"?>
<!-- Generator: Adobe Illustrator 19.0.0, SVG Export Plug-In . SVG Version: 6.00 Build 0)  -->
<svg version="1.1" id="Capa_1" xmlns="http://www.w3.org/2000/svg" xmlns:xlink="http://www.w3.org/1999/xlink" x="0px" y="0px"
	 viewBox="0 0 512 512" style="enable-background:new 0 0 512 512;" xml:space="preserve">
<g>
	<g>
		<path d="M512,34.133V17.067C512,7.641,504.359,0,494.933,0H17.067C7.641,0,0,7.641,0,17.067v17.067
			C0,43.559,7.641,51.2,17.067,51.2h6.144L0.256,142.993c-0.639,2.55-0.067,5.251,1.55,7.323c1.617,2.072,4.099,3.283,6.727,3.284
			h14.677L0.256,245.393c-0.639,2.55-0.067,5.251,1.55,7.323C3.423,254.789,5.905,256,8.533,256h14.677L0.256,347.793
			c-0.639,2.55-0.067,5.251,1.55,7.323c1.617,2.072,4.099,3.283,6.727,3.284h14.677L0.256,450.193
			c-0.639,2.55-0.067,5.251,1.55,7.323c1.617,2.072,4.099,3.284,6.727,3.284h34.133v34.133H8.533c-4.713,0-8.533,3.82-8.533,8.533
			S3.82,512,8.533,512h494.933c4.713,0,8.533-3.82,8.533-8.533s-3.82-8.533-8.533-8.533h-34.133V460.8h34.133
			c2.628,0,5.11-1.211,6.727-3.284c1.617-2.072,2.189-4.774,1.55-7.323L488.789,358.4h14.677c2.628,0,5.11-1.211,6.727-3.284
			c1.617-2.072,2.189-4.774,1.55-7.323L488.789,256h14.677c2.628,0,5.11-1.211,6.727-3.284c1.617-2.072,2.189-4.774,1.55-7.323
			L488.789,153.6h14.677c2.628,0,5.11-1.211,6.727-3.284c1.617-2.072,2.189-4.774,1.55-7.323L488.789,51.2h6.144
			C504.359,51.2,512,43.559,512,34.133z M93.867,494.933H59.733V460.8h34.133V494.933z M401.067,494.933H110.933V460.8h110.933
			h179.2V494.933z M230.4,443.733v-25.6c0-14.138,11.461-25.6,25.6-25.6s25.6,11.462,25.6,25.6v25.6H230.4z M452.267,494.933
			h-34.133V460.8h34.133V494.933z M492.536,136.533h-40.269c-4.713,0-8.533,3.82-8.533,8.533s3.821,8.533,8.533,8.533h18.944
			l21.333,85.333h-40.277c-4.713,0-8.533,3.82-8.533,8.533s3.821,8.533,8.533,8.533h18.944l21.333,85.333h-40.277
			c-4.713,0-8.533,3.82-8.533,8.533s3.821,8.533,8.533,8.533h18.944l21.333,85.333H298.667v-25.6
			c0-23.564-19.103-42.667-42.667-42.667s-42.667,19.103-42.667,42.667v25.6H19.465L40.798,358.4h360.269
			c4.713,0,8.533-3.82,8.533-8.533s-3.82-8.533-8.533-8.533H19.465L40.798,256h360.269c4.713,0,8.533-3.82,8.533-8.533
			s-3.82-8.533-8.533-8.533H19.465L40.798,153.6h360.269c4.713,0,8.533-3.821,8.533-8.533s-3.82-8.533-8.533-8.533H19.465
			L40.798,51.2h430.404L492.536,136.533z M477.867,34.133h-460.8V17.067h477.867v17.067H477.867z"/>
	</g>
</g>
<g>
</g>
<g>
</g>
<g>
</g>
<g>
</g>
<g>
</g>
<g>
</g>
<g>
</g>
<g>
</g>
<g>
</g>
<g>
</g>
<g>
</g>
<g>
</g>
<g>
</g>
<g>
</g>
<g>
</g>
</svg>
