<?xml version="1.0" encoding="utf-8"?>
<!-- Generator: Adobe Illustrator 22.1.0, SVG Export Plug-In . SVG Version: 6.00 Build 0)  -->
<svg version="1.1" id="Layer_1" xmlns="http://www.w3.org/2000/svg" xmlns:xlink="http://www.w3.org/1999/xlink" x="0px" y="0px"
	 viewBox="0 0 500 260" style="enable-background:new 0 0 500 260;" xml:space="preserve">
<style type="text/css">
	.st0{fill:#CE9A78;}
	.st1{fill:#8E6052;}
	.st2{fill:#B78569;}
	.st3{fill:#FFB948;}
	.st4{fill:#D1831C;}
</style>
<g>
	<g>
		<g>
			<path class="st0" d="M469,27.6c2.3,5.9-0.7,12.6-6.7,14.8l-239.6,91.1c-5.9,2.3-12.6-0.7-14.8-6.7l0,0
				c-2.3-5.9,0.7-12.6,6.7-14.8L454.1,21C460.1,18.7,466.7,21.7,469,27.6L469,27.6z"/>
			<path class="st1" d="M218.6,139.6c-6.9,0-13.2-4.3-15.7-10.8c-3.3-8.6,1.1-18.3,9.7-21.6l239.6-91.1c1.9-0.7,3.9-1.1,6-1.1
				c6.9,0,13.2,4.3,15.7,10.8c3.3,8.6-1.1,18.3-9.7,21.6l-239.6,91.1C222.6,139.2,220.6,139.6,218.6,139.6z M458.2,25.5
				c-0.8,0-1.5,0.1-2.2,0.4L216.4,117c-3.2,1.2-4.9,4.8-3.6,8.1c0.9,2.4,3.3,4,5.9,4c0.8,0,1.5-0.1,2.2-0.4l239.6-91.1
				c3.2-1.2,4.9-4.8,3.6-8.1C463.2,27.1,460.8,25.5,458.2,25.5z"/>
		</g>
		<g>
			<path class="st0" d="M214.4,171.9c3.2,8.5-1,18-9.5,21.2l0,0c-8.5,3.2-18-1-21.2-9.5l-31.1-81.9c-3.2-8.5,1-18,9.5-21.2l0,0
				c8.5-3.2,18,1,21.2,9.5L214.4,171.9z"/>
			<path class="st1" d="M199,199.4c-8.9,0-17.1-5.6-20.3-14l-31.1-81.9c-2.1-5.4-1.9-11.3,0.5-16.6s6.7-9.3,12.1-11.4
				c2.5-0.9,5.1-1.4,7.7-1.4c8.9,0,17.1,5.6,20.3,14l31.1,81.9c4.2,11.2-1.4,23.7-12.6,28C204.3,198.9,201.7,199.4,199,199.4z
				 M167.9,84.6c-1.4,0-2.7,0.2-4,0.7c-2.8,1.1-5,3.1-6.2,5.9c-1.2,2.7-1.3,5.8-0.3,8.6l31.1,81.9c1.6,4.3,5.8,7.2,10.5,7.2
				c1.4,0,2.7-0.2,4-0.7c5.8-2.2,8.7-8.7,6.5-14.4l-31.1-81.9C176.7,87.5,172.5,84.6,167.9,84.6z"/>
		</g>
		<g>
			<path class="st2" d="M237.7,140.7c3.2,8.5-1,18-9.5,21.2l0,0c-8.5,3.2-18-1-21.2-9.5l-16.7-44c-3.2-8.5,1-18,9.5-21.2l0,0
				c8.5-3.2,18,1,21.2,9.5L237.7,140.7z"/>
			<path class="st1" d="M222.4,168.3c-8.9,0-17.1-5.6-20.3-14l-16.7-44c-4.2-11.2,1.4-23.7,12.6-28c2.5-0.9,5.1-1.4,7.7-1.4
				c8.9,0,17.1,5.6,20.3,14l16.7,44c4.2,11.2-1.4,23.7-12.6,28C227.6,167.8,225,168.3,222.4,168.3z M205.6,91.3
				c-1.4,0-2.7,0.2-4,0.7c-5.8,2.2-8.7,8.7-6.5,14.4l16.7,44c1.6,4.3,5.8,7.2,10.5,7.2c1.4,0,2.7-0.2,4-0.7
				c5.8-2.2,8.7-8.7,6.5-14.4l-16.7-44C214.4,94.2,210.2,91.3,205.6,91.3z"/>
		</g>
	</g>
	<g>
		<g>
			<path class="st3" d="M114.2,185.9l8,21l6.2,16.4c3.2,8.5,12.7,12.7,21.2,9.5s12.7-12.7,9.5-21.2L144.9,174
				C134.5,176.3,124.9,184.7,114.2,185.9z"/>
			<path class="st4" d="M143.8,239C143.8,239,143.8,239,143.8,239c-8.9,0-17.1-5.6-20.3-13.9L107,181.5l6.7-0.8
				c4.9-0.6,9.8-3.1,15-5.7c4.8-2.4,9.7-4.9,15.1-6.1l4.4-1l15.9,41.9c2.1,5.4,1.9,11.3-0.5,16.6c-2.4,5.3-6.7,9.3-12.1,11.3
				C149,238.6,146.4,239,143.8,239z M121.3,189.7l12.1,31.7c1.6,4.3,5.8,7.2,10.5,7.2l0,0c1.4,0,2.7-0.2,4-0.7
				c2.8-1.1,5-3.1,6.2-5.9s1.3-5.8,0.3-8.6l-12.5-33c-2.7,1.1-5.5,2.5-8.4,3.9C129.5,186.3,125.5,188.4,121.3,189.7z"/>
		</g>
		<g>
			<path class="st0" d="M144.9,174l-29.7-78.1c-3.2-8.5-12.7-12.7-21.2-9.5c-8.5,3.2-12.7,12.7-9.5,21.2l6.6,17.4l23.2,61
				C124.9,184.7,134.5,176.3,144.9,174z"/>
			<path class="st1" d="M110.8,191.6l-31.2-82.2c-2.1-5.4-1.9-11.3,0.5-16.6c2.4-5.3,6.7-9.3,12.1-11.4c2.5-0.9,5.1-1.4,7.7-1.4
				c8.9,0,17.1,5.6,20.3,14l31.8,83.8l-5.9,1.3c-4.1,0.9-8.3,3-12.7,5.3c-5.8,2.9-11.8,6-18.5,6.8L110.8,191.6z M99.8,90.5
				c-1.4,0-2.7,0.2-4,0.7c-2.8,1.1-5,3.1-6.2,5.9c-1.2,2.7-1.3,5.8-0.3,8.6l28.2,74.2c3.6-1.1,7.3-2.9,11.1-4.9
				c3-1.5,6.1-3.1,9.4-4.4l-27.7-72.9C108.6,93.4,104.4,90.5,99.8,90.5z"/>
		</g>
		<g>
			<path class="st3" d="M144.9,174l14.3,37.6c3.2,8.5,12.7,12.7,21.2,9.5c3.6-1.4,6.5-3.9,8.3-7c-6.6-14.3-14.3-29.4-25.9-36.5
				C156.4,173.2,150.5,172.7,144.9,174z"/>
			<path class="st4" d="M174.5,227.5L174.5,227.5c-8.9,0-17.1-5.6-20.3-14l-16.4-43.3l5.9-1.3c8-1.8,15-0.4,22,4.3
				c12.6,7.8,20.6,23.4,27.8,38.7l1.2,2.5l-1.4,2.4c-2.5,4.2-6.4,7.5-11,9.3C179.8,227,177.2,227.5,174.5,227.5z M152.3,178.8
				l11.8,30.9c1.6,4.3,5.8,7.2,10.5,7.2l0,0c1.4,0,2.7-0.2,4-0.7c1.6-0.6,3-1.5,4.1-2.7c-6.1-13-13-25.6-22.5-31.4l-0.2-0.1
				C157.4,180.2,154.9,179.2,152.3,178.8z"/>
		</g>
		<g>
			<path class="st2" d="M189.9,199.9l-44-115.7c-3.2-8.5-12.7-12.7-21.2-9.5c-8.5,3.2-12.7,12.7-9.5,21.2l29.7,78.1
				c5.6-1.3,11.5-0.8,18,3.6c11.5,7.1,19.2,22.2,25.9,36.5C191.1,209.9,191.7,204.8,189.9,199.9z"/>
			<path class="st1" d="M188.2,225.4l-4.2-9.1c-6.5-13.9-13.6-28-23.8-34.2l-0.2-0.1c-3.3-2.2-6.5-3.3-9.8-3.3
				c-1.3,0-2.6,0.2-4.1,0.5l-4.4,1l-31.3-82.4c-4.2-11.2,1.4-23.7,12.6-28c2.5-0.9,5.1-1.4,7.7-1.4c8.9,0,17.1,5.6,20.3,14l44,115.7
				c2.3,6.2,1.8,13-1.6,18.7L188.2,225.4z M165.7,173.2c5.1,3.1,9.4,7.5,13.2,12.7L141,86.1c-1.6-4.3-5.8-7.2-10.5-7.2
				c-1.4,0-2.7,0.2-4,0.7c-5.8,2.2-8.7,8.7-6.5,14.4l28.2,74.2C154.4,167.8,160.1,169.4,165.7,173.2z"/>
		</g>
		<g>
			<path class="st3" d="M109.8,186c-10.7-1.4-11.7-14.3-19.5-18.4c-5.6-3-11.5-0.1-17.2,2.5l11,29l7.4,19.5
				c3.2,8.5,12.7,12.7,21.2,9.5c8.5-3.2,12.7-12.7,9.5-21.2l-8-21C112.8,186.1,111.3,186.2,109.8,186z"/>
			<path class="st4" d="M106.9,234.4c-8.9,0-17.1-5.6-20.3-14l-20.2-53.1l5-2.3c4.1-1.9,8.7-3.9,13.7-3.9c2.7,0,5.3,0.6,7.6,1.9
				c4.5,2.4,7.1,6.5,9.4,10.2c2.9,4.5,4.6,7.1,8.1,7.6c1.1,0.1,2.1,0,3.3-0.1l4.1-0.5l9.4,24.8c4.2,11.2-1.4,23.7-12.6,28
				C112.1,233.9,109.5,234.4,106.9,234.4z M79.8,172.9l16.6,43.8c1.6,4.3,5.8,7.2,10.5,7.2c1.4,0,2.7-0.2,4-0.7
				c5.8-2.2,8.7-8.7,6.5-14.4l-6.6-17.4c-0.4,0-0.9,0-1.3-0.1l-0.2,0c-8.6-1.1-12.6-7.4-15.8-12.4c-1.8-2.8-3.4-5.4-5.5-6.5
				c-0.9-0.5-1.7-0.7-2.7-0.7C83.6,171.6,81.7,172.2,79.8,172.9z"/>
		</g>
		<g>
			<path class="st2" d="M90.3,167.7c7.8,4.1,8.8,17,19.5,18.4c1.5,0.1,3,0.1,4.5-0.1l-23.2-61c-3.2-8.5-12.7-12.7-21.2-9.5
				s-12.7,12.7-9.5,21.2l7,18.4l5.7,15C78.8,167.6,84.7,164.7,90.3,167.7z"/>
			<path class="st1" d="M111.5,191.3c-0.7,0-1.4,0-2.1-0.1l-0.2,0c-8.6-1.1-12.6-7.4-15.8-12.4c-1.8-2.8-3.4-5.4-5.5-6.5
				c-0.9-0.5-1.7-0.7-2.7-0.7c-2.7,0-6.1,1.5-9.4,3l-5.6,2.5l-14.7-38.7c-2.1-5.4-1.9-11.3,0.5-16.6c2.4-5.3,6.7-9.3,12.1-11.4
				c2.5-0.9,5.1-1.4,7.7-1.4c8.9,0,17.1,5.6,20.3,14l25.6,67.2l-6.7,0.8C113.7,191.3,112.6,191.3,111.5,191.3z M85.2,161.1
				c2.7,0,5.3,0.6,7.6,1.9c4.5,2.4,7.1,6.5,9.4,10.2c1.3,2,2.3,3.6,3.4,4.9l-19.5-51.2c-1.6-4.3-5.8-7.2-10.5-7.2
				c-1.4,0-2.7,0.2-4,0.7c-2.8,1.1-5,3.1-6.2,5.9c-1.2,2.7-1.3,5.8-0.3,8.6L76,163.1C78.9,162,82,161.1,85.2,161.1z"/>
		</g>
		<g>
			<path class="st3" d="M69.2,171.8c-10.2,3.9-19,8.6-27.2,9.1l11.4,29.9c3.2,8.5,12.7,12.8,21.2,9.5c8.5-3.2,12.7-12.7,9.5-21.2
				l-11-29C71.8,170.7,70.5,171.3,69.2,171.8z"/>
			<path class="st4" d="M68.7,227C68.7,227,68.7,227,68.7,227c-8.9,0-17.1-5.8-20.3-14.2l-13.9-36.7l7.1-0.5
				c5.2-0.3,11-2.8,17.8-5.6c2.5-1.1,5.2-2.2,7.9-3.2c1.2-0.4,2.4-1,3.6-1.5l5.1-2.3l13,34.2c4.2,11.2-1.4,23.9-12.6,28.1
				C74,226.3,71.4,227,68.7,227z M49.2,185l9.1,24c1.6,4.3,5.8,7.2,10.5,7.2l0,0c1.4,0,2.7-0.2,4-0.7c5.8-2.2,8.7-8.7,6.5-14.4
				L70.1,177c-2.3,0.9-4.5,1.8-6.7,2.7C58.5,181.8,53.8,183.7,49.2,185z"/>
		</g>
		<g>
			<path class="st0" d="M69.2,171.8c1.3-0.5,2.6-1.1,3.9-1.6l-5.7-15c-3.2-8.5-12.7-12.7-21.2-9.5c-8.5,3.2-12.7,12.7-9.5,21.2
				l5.4,14.1C50.2,180.3,59,175.6,69.2,171.8z"/>
			<path class="st1" d="M38.5,186.4l-6.7-17.7c-2.1-5.4-1.9-11.3,0.5-16.6c2.4-5.3,6.7-9.3,12.1-11.4c2.5-0.9,5.1-1.4,7.7-1.4
				c8.9,0,17.1,5.6,20.3,14l7.5,19.7l-4.5,2c-1.3,0.6-2.7,1.2-4.2,1.8c-2.6,1-5.2,2.1-7.6,3.1c-7.3,3-14.2,5.9-21.1,6.4L38.5,186.4z
				 M52,149.7c-1.4,0-2.7,0.2-4,0.7c-2.8,1.1-5,3.1-6.2,5.9c-1.2,2.7-1.3,5.8-0.3,8.6l3.9,10.2c4.2-0.9,8.8-2.9,14-5
				c2.2-0.9,4.5-1.9,7-2.8l-3.9-10.3C60.8,152.6,56.6,149.7,52,149.7z"/>
		</g>
	</g>
</g>
</svg>
