<?xml version="1.0" encoding="utf-8"?>
<!-- Generator: Adobe Illustrator 22.0.1, SVG Export Plug-In . SVG Version: 6.00 Build 0)  -->
<svg version="1.1" id="Layer_1" xmlns="http://www.w3.org/2000/svg" xmlns:xlink="http://www.w3.org/1999/xlink" x="0px" y="0px"
	 viewBox="0 0 288 288" style="enable-background:new 0 0 288 288;" xml:space="preserve">
<style type="text/css">
	.st0{opacity:0.5;}
	.st1{fill:#FCFBF5;}
	.st2{fill:#FFA6A9;}
	.st3{fill:#D9AE38;}
	.st4{fill:#003242;}
</style>
<g id="New_Symbol_6">
</g>
<g class="st0">
	<rect y="0" class="st1" width="288" height="288"/>
	<g>
		<path class="st2" d="M161.5,125.3l2.8-4c0.4-0.6,0-1.5-0.7-1.5l-4.9-0.4c-0.7-0.1-1.3,0.7-1,1.4l2.1,4.4
			C160.2,125.8,161.1,125.9,161.5,125.3z"/>
		<path class="st2" d="M205.7,134.2l-4.1-2.7c-0.6-0.4-1.5,0-1.5,0.8l-0.3,4.9c0,0.7,0.7,1.3,1.4,0.9l4.4-2.2
			C206.3,135.5,206.3,134.6,205.7,134.2z"/>
		<path class="st2" d="M130,84.8l4,2.8c0.6,0.4,1.5,0,1.5-0.7l0.4-4.9c0.1-0.7-0.7-1.3-1.4-0.9l-4.4,2.1
			C129.4,83.5,129.4,84.4,130,84.8z"/>
		<path class="st2" d="M272.8,269.2l-2.2-4.3c-0.3-0.7-1.3-0.7-1.7-0.1l-2.7,4.1c-0.4,0.6,0,1.5,0.8,1.5l4.9,0.3
			C272.6,270.6,273.1,269.8,272.8,269.2z"/>
		<path class="st2" d="M268.6,76.3l0.6-4.8c0.1-0.7-0.6-1.3-1.3-1l-4.5,1.9c-0.7,0.3-0.8,1.2-0.2,1.7l3.9,3
			C267.7,77.4,268.5,77.1,268.6,76.3z"/>
		<path class="st2" d="M202.2,97.9l-0.1-4.9c0-0.7-0.8-1.2-1.5-0.8l-4.2,2.5c-0.6,0.4-0.6,1.3,0,1.7l4.3,2.4
			C201.4,99.2,202.2,98.7,202.2,97.9z"/>
		<path class="st2" d="M231.9,258.8l-3.1,3.8c-0.5,0.6-0.1,1.4,0.6,1.6l4.8,0.8c0.7,0.1,1.3-0.6,1.1-1.3l-1.7-4.6
			C233.3,258.4,232.4,258.2,231.9,258.8z"/>
		<path class="st2" d="M171.9,23.4l3.6-3.3c0.5-0.5,0.3-1.4-0.4-1.6l-4.7-1.4c-0.7-0.2-1.4,0.4-1.2,1.1l1.1,4.8
			C170.4,23.7,171.3,24,171.9,23.4z"/>
		<path class="st2" d="M227.8,186.4l-4.5-1.9c-0.7-0.3-1.4,0.3-1.3,1l0.6,4.8c0.1,0.7,1,1.1,1.6,0.6l3.9-3
			C228.6,187.6,228.5,186.7,227.8,186.4z"/>
		<path class="st2" d="M70.1,196.3l0.5,4.9c0.1,0.7,0.9,1.1,1.5,0.7l3.9-2.9c0.6-0.4,0.5-1.4-0.2-1.7l-4.5-2
			C70.8,195,70,195.5,70.1,196.3z"/>
		<path class="st2" d="M126.3,163.8l-2.6-4.2c-0.4-0.6-1.3-0.6-1.7,0l-2.3,4.3c-0.4,0.7,0.1,1.5,0.9,1.4l4.9-0.1
			C126.2,165.3,126.7,164.4,126.3,163.8z"/>
		<path class="st2" d="M227.6,17.4l2.3-4.3c0.3-0.7-0.1-1.4-0.9-1.4l-4.9,0.2c-0.7,0-1.2,0.9-0.8,1.5l2.6,4.1
			C226.3,18.1,227.3,18.1,227.6,17.4z"/>
		<path class="st2" d="M23.4,38.2l-3.1-3.8c-0.5-0.6-1.4-0.4-1.7,0.3L17,39.3c-0.3,0.7,0.3,1.4,1.1,1.3l4.8-0.8
			C23.6,39.7,23.9,38.8,23.4,38.2z"/>
		<path class="st2" d="M167.5,68.4l3,3.9c0.5,0.6,1.4,0.5,1.7-0.2l1.8-4.5c0.3-0.7-0.3-1.4-1-1.3l-4.8,0.7
			C167.4,67,167.1,67.8,167.5,68.4z"/>
		<path class="st2" d="M80.6,24.8l1.3,4.7c0.2,0.7,1.1,1,1.6,0.4l3.4-3.5c0.5-0.5,0.3-1.4-0.4-1.6l-4.7-1.2
			C81,23.4,80.4,24.1,80.6,24.8z"/>
		<path class="st3" d="M117.9,119.4l-4.9,0c-0.7,0-1.2,0.8-0.8,1.4l2.4,4.2c0.4,0.6,1.3,0.7,1.7,0l2.5-4.2
			C119.1,120.2,118.6,119.4,117.9,119.4z"/>
		<path class="st3" d="M166,161.3l-3.3,3.6c-0.5,0.5-0.2,1.4,0.5,1.6l4.8,1.1c0.7,0.2,1.4-0.5,1.1-1.2l-1.4-4.7
			C167.4,161,166.5,160.8,166,161.3z"/>
		<path class="st3" d="M16.1,253.7l-4.9-0.4c-0.7-0.1-1.3,0.7-0.9,1.4l2.1,4.4c0.3,0.7,1.3,0.7,1.7,0.1l2.8-4
			C17.3,254.6,16.9,253.7,16.1,253.7z"/>
		<path class="st3" d="M112.1,259.9l3.5,3.4c0.5,0.5,1.4,0.3,1.6-0.5l1.2-4.7c0.2-0.7-0.5-1.4-1.2-1.2l-4.7,1.3
			C111.8,258.5,111.5,259.4,112.1,259.9z"/>
		<path class="st3" d="M108.2,205l-0.2,4.9c0,0.7,0.8,1.2,1.4,0.9l4.3-2.3c0.7-0.3,0.7-1.3,0.1-1.7l-4.1-2.6
			C109.1,203.8,108.2,204.3,108.2,205z"/>
		<path class="st3" d="M66.1,102.7l-4-2.7c-0.6-0.4-1.5,0-1.5,0.7l-0.3,4.9c-0.1,0.7,0.7,1.3,1.4,0.9l4.4-2.1
			C66.7,104.1,66.7,103.1,66.1,102.7z"/>
		<path class="st3" d="M195.8,203.5l-4.8-0.7c-0.7-0.1-1.3,0.6-1,1.3l1.8,4.5c0.3,0.7,1.2,0.8,1.7,0.2l3-3.8
			C196.9,204.5,196.5,203.6,195.8,203.5z"/>
		<path class="st3" d="M37.1,265.8l-0.3,4.9c0,0.7,0.7,1.3,1.4,0.9l4.4-2.2c0.7-0.3,0.7-1.3,0.1-1.7l-4.1-2.7
			C38,264.7,37.1,265.1,37.1,265.8z"/>
		<path class="st3" d="M26,127.9l4.9,0.4c0.7,0.1,1.3-0.7,1-1.4l-2.1-4.4c-0.3-0.7-1.2-0.8-1.7-0.1l-2.8,4
			C24.9,127,25.2,127.8,26,127.9z"/>
		<path class="st3" d="M135.8,41.4l2.5-4.2c0.4-0.6-0.1-1.5-0.8-1.5l-4.9-0.1c-0.7,0-1.2,0.8-0.9,1.4l2.4,4.3
			C134.5,42,135.4,42,135.8,41.4z"/>
		<path class="st3" d="M190.1,265.8l4.8-0.9c0.7-0.1,1-1,0.6-1.6l-3.2-3.7c-0.5-0.6-1.4-0.4-1.6,0.3l-1.6,4.6
			C188.7,265.2,189.3,265.9,190.1,265.8z"/>
		<path class="st3" d="M16.1,173.1l3.6-3.3c0.6-0.5,0.4-1.4-0.3-1.6l-4.6-1.5c-0.7-0.2-1.4,0.4-1.2,1.1l1,4.8
			C14.7,173.3,15.6,173.6,16.1,173.1z"/>
		<path class="st3" d="M82.8,157.8l2.7-4.1c0.4-0.6,0-1.5-0.8-1.5l-4.9-0.3c-0.7,0-1.3,0.7-0.9,1.4l2.2,4.4
			C81.5,158.4,82.4,158.4,82.8,157.8z"/>
		<path class="st3" d="M266.9,197.2l4.6-1.7c0.7-0.3,0.8-1.2,0.3-1.7l-3.8-3.1c-0.6-0.5-1.4-0.1-1.6,0.6l-0.8,4.8
			C265.5,196.8,266.2,197.4,266.9,197.2z"/>
		<path class="st3" d="M200.5,43.7l4.6,1.6c0.7,0.2,1.4-0.4,1.3-1.1l-0.9-4.8c-0.1-0.7-1-1-1.6-0.6l-3.7,3.2
			C199.7,42.5,199.8,43.4,200.5,43.7z"/>
		<path class="st4" d="M42.1,17.3l-0.3,4.9c0,0.7,0.7,1.3,1.4,0.9l4.4-2.2c0.7-0.3,0.7-1.3,0.1-1.7l-4.1-2.7
			C43,16.1,42.2,16.5,42.1,17.3z"/>
		<path class="st4" d="M21.9,83.9l0.3-4.9c0.1-0.7-0.7-1.3-1.4-0.9l-4.4,2.1c-0.7,0.3-0.7,1.3-0.1,1.7l4.1,2.7
			C21,85,21.8,84.6,21.9,83.9z"/>
		<path class="st4" d="M123.3,14.2l0.9-4.8c0.1-0.7-0.6-1.3-1.3-1.1l-4.6,1.6c-0.7,0.2-0.9,1.2-0.3,1.6l3.7,3.2
			C122.3,15.3,123.2,15,123.3,14.2z"/>
		<path class="st4" d="M254.9,156.6l2.5,4.2c0.4,0.6,1.3,0.6,1.7,0l2.4-4.3c0.4-0.6-0.1-1.5-0.9-1.4l-4.9,0
			C255,155.2,254.5,156,254.9,156.6z"/>
		<path class="st4" d="M259.9,230.3l3.5,3.4c0.5,0.5,1.4,0.3,1.6-0.5l1.2-4.7c0.2-0.7-0.5-1.4-1.2-1.2l-4.7,1.4
			C259.6,228.9,259.3,229.8,259.9,230.3z"/>
		<path class="st4" d="M49.9,167.5l-4.3,2.3c-0.7,0.3-0.7,1.3-0.1,1.7l4.1,2.6c0.6,0.4,1.5,0,1.5-0.8l0.2-4.9
			C51.3,167.6,50.5,167.1,49.9,167.5z"/>
		<path class="st4" d="M62,232.1l-1.1,4.8c-0.2,0.7,0.5,1.4,1.2,1.1l4.7-1.4c0.7-0.2,0.9-1.1,0.4-1.6l-3.6-3.3
			C63.1,231.1,62.2,231.4,62,232.1z"/>
		<path class="st4" d="M250.5,117.5l3.2,3.7c0.5,0.6,1.4,0.4,1.6-0.3l1.6-4.6c0.2-0.7-0.4-1.4-1.1-1.3l-4.8,0.9
			C250.3,116,250,116.9,250.5,117.5z"/>
		<path class="st4" d="M83,273.8l-0.7-4.8c-0.1-0.7-1-1.1-1.6-0.6l-3.8,3.1c-0.6,0.5-0.4,1.4,0.3,1.7l4.6,1.8
			C82.4,275.1,83.1,274.5,83,273.8z"/>
		<path class="st4" d="M24.1,217.5l2.3-4.3c0.3-0.7-0.2-1.4-0.9-1.4l-4.9,0.2c-0.7,0-1.2,0.9-0.8,1.5l2.6,4.1
			C22.9,218.2,23.8,218.1,24.1,217.5z"/>
		<path class="st4" d="M87.8,65.2L82.9,65c-0.7,0-1.2,0.8-0.9,1.4l2.3,4.3c0.3,0.7,1.3,0.7,1.7,0.1l2.6-4.1
			C89,66.1,88.5,65.2,87.8,65.2z"/>
		<path class="st4" d="M155,255.6l3.9-3c0.6-0.5,0.5-1.4-0.2-1.7l-4.5-1.8c-0.7-0.3-1.4,0.3-1.3,1l0.7,4.8
			C153.5,255.7,154.4,256.1,155,255.6z"/>
		<path class="st4" d="M148.8,206.8l-1.1,4.8c-0.2,0.7,0.5,1.4,1.2,1.1l4.7-1.5c0.7-0.2,0.9-1.1,0.4-1.6l-3.6-3.3
			C149.8,205.8,148.9,206.1,148.8,206.8z"/>
		<path class="st4" d="M230.8,70.3l-4.1-2.6c-0.6-0.4-1.5,0-1.5,0.8l-0.2,4.9c0,0.7,0.8,1.2,1.4,0.9l4.3-2.3
			C231.4,71.6,231.4,70.7,230.8,70.3z"/>
		<path class="st4" d="M266.5,30.8l-1.6-4.6c-0.3-0.7-1.2-0.9-1.7-0.3l-3.2,3.7c-0.5,0.6-0.2,1.4,0.6,1.6l4.8,0.9
			C266.2,32.2,266.8,31.5,266.5,30.8z"/>
	</g>
</g>
</svg>
